<svg xmlns="http://www.w3.org/2000/svg" xmlns:xlink="http://www.w3.org/1999/xlink" xmlns:lucid="lucid" width="1360" height="1460"><g transform="translate(-1240 20)" lucid:page-tab-id="l1V8F02eU7M4"><path d="M1703 102.55h393.84M1703.03 102.55H1702M2096.82 102.55h1.02" stroke="#b2b2b2" stroke-width="2" fill="none"/><path d="M1660 40h480v80h-480z" fill="none"/><use xlink:href="#a" transform="matrix(1,0,0,1,1665,45) translate(134.8446180555556 45.34505208333333)"/><use xlink:href="#b" transform="matrix(1,0,0,1,1665,45) translate(163.67708333333337 45.34505208333333)"/><use xlink:href="#c" transform="matrix(1,0,0,1,1665,45) translate(191.14236111111114 45.34505208333333)"/><use xlink:href="#d" transform="matrix(1,0,0,1,1665,45) translate(219.42795138888889 45.34505208333333)"/><use xlink:href="#e" transform="matrix(1,0,0,1,1665,45) translate(249.90104166666666 45.34505208333333)"/><use xlink:href="#f" transform="matrix(1,0,0,1,1665,45) translate(281.0121527777777 45.34505208333333)"/><use xlink:href="#g" transform="matrix(1,0,0,1,1665,45) translate(305.04427083333326 45.34505208333333)"/><path d="M1260 1320h100v100h-100z" stroke="#01579b" fill-opacity="0" opacity="0"/><g opacity="0"><path d="M2480 1320h100v100h-100z" stroke="#01579b" fill-opacity="0"/></g><g opacity="0"><path d="M1260 0h100v100h-100z" stroke="#01579b" fill-opacity="0"/></g><g opacity="0"><path d="M2480 0h100v100h-100z" stroke="#01579b" fill-opacity="0"/></g><g class="lucid-layer" lucid:layer-id="..V8qvzT4l1n" display="block"><g fill="none"><path d="M1900 280c265.1 0 480 214.9 480 480s-214.9 480-480 480-480-214.9-480-480" stroke="#01579b" stroke-width="5"/><path d="M1381.6 856l38.4-96 48 96" stroke="#01579b" stroke-width="5"/><path d="M1900 280c265.1 0 480 214.9 480 480s-214.9 480-480 480-480-214.9-480-480z"/></g><path d="M1304.6 1360H1290a30 30 0 0 1-30-30V190a30 30 0 0 1 30-30h14.6z" stroke="#01579b" stroke-width="3" fill="#fff" fill-opacity="0"/><path d="M1304.6 160H2550a30 30 0 0 1 30 30v1140a30 30 0 0 1-30 30H1304.6z" stroke="#01579b" stroke-width="3" fill="none"/><use xlink:href="#h" transform="matrix(-1.8369701987210297e-16,-1,1,-1.8369701987210297e-16,1260,1360) translate(0 30.9)"/><use xlink:href="#i" transform="matrix(-1.8369701987210297e-16,-1,1,-1.8369701987210297e-16,1260,1360) translate(19.999999999999996 30.9)"/><use xlink:href="#j" transform="matrix(-1.8369701987210297e-16,-1,1,-1.8369701987210297e-16,1260,1360) translate(39.99999999999999 30.9)"/><use xlink:href="#j" transform="matrix(-1.8369701987210297e-16,-1,1,-1.8369701987210297e-16,1260,1360) translate(59.999999999999986 30.9)"/><use xlink:href="#k" transform="matrix(-1.8369701987210297e-16,-1,1,-1.8369701987210297e-16,1260,1360) translate(79.99999999999999 30.9)"/><use xlink:href="#l" transform="matrix(-1.8369701987210297e-16,-1,1,-1.8369701987210297e-16,1260,1360) translate(99.99999999999999 30.9)"/></g><g class="lucid-layer" lucid:layer-id="i~V8_UdBDUTV" display="block"><path d="M2240 700c22.1 0 40 22.4 40 50s-17.9 50-40 50h-120c-22.1 0-40-22.4-40-50s17.9-50 40-50z" stroke="#01579b" stroke-width="3" fill="#fff"/><use xlink:href="#m" transform="matrix(1,0,0,1,2085,705) translate(56.09875 35.56640625)"/><use xlink:href="#n" transform="matrix(1,0,0,1,2085,705) translate(76.09875 35.56640625)"/><use xlink:href="#o" transform="matrix(1,0,0,1,2085,705) translate(93.91125 35.56640625)"/><use xlink:href="#p" transform="matrix(1,0,0,1,2085,705) translate(113.91125 35.56640625)"/><use xlink:href="#q" transform="matrix(1,0,0,1,2085,705) translate(50.2003125 65.27343749999999)"/><use xlink:href="#r" transform="matrix(1,0,0,1,2085,705) translate(70.10265625 65.27343749999999)"/><use xlink:href="#s" transform="matrix(1,0,0,1,2085,705) translate(85.57140625 65.27343749999999)"/><use xlink:href="#t" transform="matrix(1,0,0,1,2085,705) translate(102.83703125 65.27343749999999)"/><use xlink:href="#u" transform="matrix(1,0,0,1,2085,705) translate(121.62609375 65.27343749999999)"/><path d="M2000 1206a6 6 0 0 1 6-6h188a6 6 0 0 1 6 6v88a6 6 0 0 1-6 6h-188a6 6 0 0 1-6-6z" stroke="#01579b" stroke-width="3" fill="#0277bd"/><use xlink:href="#v" transform="matrix(1,0,0,1,2012,1212) translate(68 45.25390625)"/><use xlink:href="#w" transform="matrix(1,0,0,1,2012,1212) translate(88 45.25390625)"/><path d="M1440 956a6 6 0 0 1 6-6h188a6 6 0 0 1 6 6v88a6 6 0 0 1-6 6h-188a6 6 0 0 1-6-6z" stroke="#01579b" stroke-width="3" fill="#0277bd"/><use xlink:href="#x" transform="matrix(1,0,0,1,1452,962) translate(61.29101562500001 45.25390625)"/><use xlink:href="#y" transform="matrix(1,0,0,1,1452,962) translate(78.556640625 45.25390625)"/><use xlink:href="#z" transform="matrix(1,0,0,1,1452,962) translate(96.173828125 45.25390625)"/><path d="M2180 956a6 6 0 0 1 6-6h188a6 6 0 0 1 6 6v88a6 6 0 0 1-6 6h-188a6 6 0 0 1-6-6z" stroke="#01579b" stroke-width="3" fill="#0277bd"/><use xlink:href="#A" transform="matrix(1,0,0,1,2192,962) translate(38.02929687500001 45.25390625)"/><use xlink:href="#B" transform="matrix(1,0,0,1,2192,962) translate(58.029296875 45.25390625)"/><use xlink:href="#C" transform="matrix(1,0,0,1,2192,962) translate(78.029296875 45.25390625)"/><use xlink:href="#D" transform="matrix(1,0,0,1,2192,962) translate(98.029296875 45.25390625)"/><use xlink:href="#E" transform="matrix(1,0,0,1,2192,962) translate(118.029296875 45.25390625)"/><path d="M2460 700c22.1 0 40 22.4 40 50s-17.9 50-40 50h-120c-22.1 0-40-22.4-40-50s17.9-50 40-50z" stroke="#01579b" stroke-width="3" fill="#fff"/><use xlink:href="#F" transform="matrix(1,0,0,1,2305,705) translate(50.19531250000001 52.44140625)"/><use xlink:href="#r" transform="matrix(1,0,0,1,2305,705) translate(70.09765625 52.44140625)"/><use xlink:href="#s" transform="matrix(1,0,0,1,2305,705) translate(85.56640625 52.44140625)"/><use xlink:href="#t" transform="matrix(1,0,0,1,2305,705) translate(102.83203125 52.44140625)"/><use xlink:href="#u" transform="matrix(1,0,0,1,2305,705) translate(121.62109375 52.44140625)"/><path d="M1760 1200c22.1 0 40 22.4 40 50s-17.9 50-40 50h-120c-22.1 0-40-22.4-40-50s17.9-50 40-50z" stroke="#01579b" stroke-width="3" fill="#fff"/><use xlink:href="#F" transform="matrix(1,0,0,1,1605,1205) translate(42.91992187500001 52.44140625)"/><use xlink:href="#r" transform="matrix(1,0,0,1,1605,1205) translate(62.822265625 52.44140625)"/><use xlink:href="#s" transform="matrix(1,0,0,1,1605,1205) translate(78.291015625 52.44140625)"/><use xlink:href="#G" transform="matrix(1,0,0,1,1605,1205) translate(95.556640625 52.44140625)"/><use xlink:href="#H" transform="matrix(1,0,0,1,1605,1205) translate(114.072265625 52.44140625)"/><use xlink:href="#I" transform="matrix(1,0,0,1,1605,1205) translate(131.650390625 52.44140625)"/><path d="M1460 700c22.1 0 40 22.4 40 50s-17.9 50-40 50h-120c-22.1 0-40-22.4-40-50s17.9-50 40-50z" stroke="#01579b" stroke-width="3" fill="#fff"/><use xlink:href="#F" transform="matrix(1,0,0,1,1305,705) translate(50.19531250000001 52.44140625)"/><use xlink:href="#r" transform="matrix(1,0,0,1,1305,705) translate(70.09765625 52.44140625)"/><use xlink:href="#s" transform="matrix(1,0,0,1,1305,705) translate(85.56640625 52.44140625)"/><use xlink:href="#t" transform="matrix(1,0,0,1,1305,705) translate(102.83203125 52.44140625)"/><use xlink:href="#u" transform="matrix(1,0,0,1,1305,705) translate(121.62109375 52.44140625)"/><path d="M1440 446a6 6 0 0 1 6-6h188a6 6 0 0 1 6 6v88a6 6 0 0 1-6 6h-188a6 6 0 0 1-6-6z" stroke="#01579b" stroke-width="3" fill="#0277bd"/><g><use xlink:href="#A" transform="matrix(1,0,0,1,1452,452) translate(38.02929687500001 45.25390625)"/><use xlink:href="#B" transform="matrix(1,0,0,1,1452,452) translate(58.029296875 45.25390625)"/><use xlink:href="#C" transform="matrix(1,0,0,1,1452,452) translate(78.029296875 45.25390625)"/><use xlink:href="#D" transform="matrix(1,0,0,1,1452,452) translate(98.029296875 45.25390625)"/><use xlink:href="#E" transform="matrix(1,0,0,1,1452,452) translate(118.029296875 45.25390625)"/></g><path d="M2180 446a6 6 0 0 1 6-6h188a6 6 0 0 1 6 6v88a6 6 0 0 1-6 6h-188a6 6 0 0 1-6-6z" stroke="#01579b" stroke-width="3" fill="#0277bd"/><g><use xlink:href="#x" transform="matrix(1,0,0,1,2192,452) translate(61.29101562500001 45.25390625)"/><use xlink:href="#y" transform="matrix(1,0,0,1,2192,452) translate(78.556640625 45.25390625)"/><use xlink:href="#z" transform="matrix(1,0,0,1,2192,452) translate(96.173828125 45.25390625)"/></g><path d="M1600 206a6 6 0 0 1 6-6h188a6 6 0 0 1 6 6v88a6 6 0 0 1-6 6h-188a6 6 0 0 1-6-6z" stroke="#01579b" stroke-width="3" fill="#0277bd"/><g><use xlink:href="#v" transform="matrix(1,0,0,1,1612,212) translate(68 45.25390625)"/><use xlink:href="#w" transform="matrix(1,0,0,1,1612,212) translate(88 45.25390625)"/></g><path d="M2160 200c22.1 0 40 22.4 40 50s-17.9 50-40 50h-120c-22.1 0-40-22.4-40-50s17.9-50 40-50z" stroke="#01579b" stroke-width="3" fill="#fff"/><g><use xlink:href="#F" transform="matrix(1,0,0,1,2005,205) translate(42.91992187500001 52.44140625)"/><use xlink:href="#r" transform="matrix(1,0,0,1,2005,205) translate(62.822265625 52.44140625)"/><use xlink:href="#s" transform="matrix(1,0,0,1,2005,205) translate(78.291015625 52.44140625)"/><use xlink:href="#G" transform="matrix(1,0,0,1,2005,205) translate(95.556640625 52.44140625)"/><use xlink:href="#H" transform="matrix(1,0,0,1,2005,205) translate(114.072265625 52.44140625)"/><use xlink:href="#I" transform="matrix(1,0,0,1,2005,205) translate(131.650390625 52.44140625)"/></g><path d="M2080 820c22.1 0 40 22.4 40 50s-17.9 50-40 50h-120c-22.1 0-40-22.4-40-50s17.9-50 40-50z" stroke="#01579b" stroke-width="3" fill="#fff"/><g><use xlink:href="#J" transform="matrix(1,0,0,1,1925,825) translate(57.046015625 35.56640625)"/><use xlink:href="#K" transform="matrix(1,0,0,1,1925,825) translate(76.596796875 35.56640625)"/><use xlink:href="#L" transform="matrix(1,0,0,1,1925,825) translate(96.655390625 35.56640625)"/><use xlink:href="#M" transform="matrix(1,0,0,1,1925,825) translate(115.698359375 35.56640625)"/><use xlink:href="#N" transform="matrix(1,0,0,1,1925,825) translate(53.374140625 65.27343749999999)"/><use xlink:href="#O" transform="matrix(1,0,0,1,1925,825) translate(72.163203125 65.27343749999999)"/><use xlink:href="#t" transform="matrix(1,0,0,1,1925,825) translate(99.663203125 65.27343749999999)"/><use xlink:href="#u" transform="matrix(1,0,0,1,1925,825) translate(118.452265625 65.27343749999999)"/></g><path d="M1780 646a6 6 0 0 1 6-6h188a6 6 0 0 1 6 6v88a6 6 0 0 1-6 6h-188a6 6 0 0 1-6-6z" stroke="#01579b" stroke-width="3" fill="#0277bd"/><g><use xlink:href="#P" transform="matrix(1,0,0,1,1792,652) translate(36.29101562500001 45.25390625)"/><use xlink:href="#Q" transform="matrix(1,0,0,1,1792,652) translate(53.830078125 45.25390625)"/><use xlink:href="#R" transform="matrix(1,0,0,1,1792,652) translate(69.669921875 45.25390625)"/><use xlink:href="#R" transform="matrix(1,0,0,1,1792,652) translate(88.185546875 45.25390625)"/><use xlink:href="#S" transform="matrix(1,0,0,1,1792,652) translate(106.701171875 45.25390625)"/><use xlink:href="#T" transform="matrix(1,0,0,1,1792,652) translate(124.279296875 45.25390625)"/></g><path d="M1780 795c22.1 0 40 22.4 40 50s-17.9 50-40 50h-120c-22.1 0-40-22.4-40-50s17.9-50 40-50z" stroke="#01579b" stroke-width="3" fill="#fff"/><g><use xlink:href="#U" transform="matrix(1,0,0,1,1625,800) translate(67.8125 52.44140625)"/><use xlink:href="#V" transform="matrix(1,0,0,1,1625,800) translate(86.34765625 52.44140625)"/><use xlink:href="#u" transform="matrix(1,0,0,1,1625,800) translate(104.00390625 52.44140625)"/></g><path d="M2279.98 542.47l-.06 2.75-.22 3.54-.35 3.35-.47 3.2-.6 3.08-.7 2.97-.8 2.88-.9 2.8-1.03 2.77-1.15 2.73-1.28 2.72-1.42 2.72-1.58 2.74-1.78 2.8-2 2.88-2.26 3-2.62 3.14-3.07 3.4-3.74 3.82-4.8 4.5-7.15 6.15-31.16 25.33-4.8 4.5-3.73 3.8-3.06 3.4-2.62 3.17-2.27 3-2 2.86-1.77 2.8-1.58 2.73-1.42 2.7-1.28 2.73-1.15 2.73-1.03 2.76-.9 2.8-.8 2.9-.38 1.53" stroke="#01579b" stroke-width="2" stroke-linejoin="round" fill="none"/><path d="M2280.98 542.5l-2-.03.02-1h2z" stroke="#01579b" stroke-width=".05" fill="#01579b"/><path d="M2180.36 695.28l-3.03-14.7 9.22 1.04z" stroke="#01579b" stroke-width="2" fill="#01579b"/><path d="M2179.96 802.5l-.2 5.28-.66 6.13-1.1 5.93-1.47 5.64-1.8 5.32-2.1 4.95-2.36 4.58-2.55 4.2-2.73 3.8-2.87 3.45-2.98 3.1-3.07 2.75-3.17 2.46-3.25 2.15-3.34 1.88-3.43 1.6-3.2 1.24" stroke="#01579b" stroke-width="2" stroke-linejoin="round" fill="none"/><path d="M2180.96 802.56l-2-.07.04-1h2z" stroke="#01579b" stroke-width=".05" fill="#01579b"/><path d="M2124.7 869.47l13.3-6.92 1.53 9.15z" stroke="#01579b" stroke-width="2" fill="#01579b"/><path d="M1917.5 869.97l-.78-.02-1.75-.14-1.74-.22-1.7-.32-1.7-.4-1.64-.5-1.63-.57-1.57-.67-1.52-.73-1.47-.8-1.4-.88-1.36-.94-1.3-1-1.2-1.05-1.16-1.1-1.07-1.15-1-1.2-.92-1.2-.86-1.27-.77-1.28-.7-1.32-.63-1.34-.55-1.37-.48-1.4-.4-1.4-.34-1.44-.26-1.46-.18-1.48-.1-1.5-.02-1.55.06-1.57.14-1.6.24-1.64.33-1.7.44-1.72.57-1.78.68-1.83.82-1.9.97-1.97 1.16-2.05 1.35-2.12 1.58-2.23 1.86-2.33 2.15-2.45 2.54-2.58 2.96-2.73 3.5-2.88 4.13-3.06 4.9-3.23 5.85-3.42 7.04-3.64 8.5-3.86 10.44-4.06 12.88-4.25 16.08-4.4.34-.07 5.9-1.63 5.05-1.7 4.3-1.76 3.74-1.77 3.25-1.8 2.85-1.8 2.5-1.78 2.23-1.8 1.97-1.8 1.75-1.78 1.56-1.8 1.4-1.8 1.22-1.82 1.1-1.83.96-1.84.84-1.88.72-1.9.6-1.93.5-1.98.38-2.02.27-2.06.14-2.12.02-2.16-.1-2.23-.25-2.26-.4-2.33-.54-2.36-.7-2.42-.86-2.44-1.04-2.45-1.2-2.44-1.38-2.4-1.53-2.37-1.67-2.27-1.8-2.16-1.9-2.03-2-1.9-2.04-1.72-2.07-1.56-2.1-1.4-1.43-.83" stroke="#01579b" stroke-width="2" stroke-linejoin="round" fill="none"/><path d="M1918.55 869l-.05 1 .03 1-1.08-.03.05-2z" stroke="#01579b" stroke-width=".05" fill="#01579b"/><path d="M1984.58 690.86l15-.67-2.48 8.93z" stroke="#01579b" stroke-width="2" fill="#01579b"/><path d="M1777.54 690.02l-1.84.05-2.65.2-2.5.3-2.36.4-2.27.5-2.15.58-2.07.67-2 .76-1.92.84-1.88.93-1.84 1.02-1.8 1.12-1.78 1.22-1.75 1.33-1.74 1.47-1.73 1.6-1.72 1.76-1.7 1.93-1.73 2.15-1.72 2.37-1.73 2.64-1.74 2.95-1.74 3.33-1.76 3.77-1.75 4.28-1.74 4.93-1.7 5.7-1.63 6.62-1.52 7.78-1.33 9.18-1.06 10.87-.07 1.76" stroke="#01579b" stroke-width="2" stroke-linejoin="round" fill="none"/><path d="M1778.54 691l-1 .02-.05-2 1.04-.02z" stroke="#01579b" stroke-width=".05" fill="#01579b"/><path d="M1720.1 790.27l-4.14-14.42 9.27.32z" stroke="#01579b" stroke-width="2" fill="#01579b"/></g><defs><path fill="#6f7681" d="M160-660v-74h634v74c-48 117-122 229-221 334 99 91 200 192 305 301l-55 54C723-76 622-177 520-272 405-161 267-65 106 16L71-49c273-140 515-346 637-611H160" id="W"/><use transform="matrix(0.03038194444444443,0,0,0.03038194444444443,0,0)" xlink:href="#W" id="a"/><path fill="#6f7681" d="M307 24C115 20 65-26 65-218v-537h79v315c187-31 369-76 547-135-46-16-86-65-86-124-2-71 62-134 133-134 72 0 135 62 133 134 1 66-51 119-107 130l13 43c-208 74-419 128-633 161v148c4 140 27 164 168 168 159 0 312-5 457-16l3 73C610 18 455 23 307 24zm431-649c39 1 76-36 75-75 1-39-36-77-75-75-39-2-77 36-75 75-2 39 36 76 75 75" id="X"/><use transform="matrix(0.03038194444444443,0,0,0.03038194444444443,0,0)" xlink:href="#X" id="b"/><path fill="#6f7681" d="M70-677l36-69c109 55 214 113 314 174l-40 69c-94-59-197-117-310-174zM92-67c397-38 624-223 694-586l75 16C792-244 540-28 104 10" id="Y"/><use transform="matrix(0.03038194444444443,0,0,0.03038194444444443,0,0)" xlink:href="#Y" id="c"/><path fill="#6f7681" d="M543-744c218 0 392 160 392 375C935-150 814 8 616 24l-16-72c164-16 260-138 260-321 0-173-135-303-306-304-24 215-52 406-125 543C389-54 357-3 266-3 150-3 69-170 69-310c0-260 207-434 474-434zm-67 75c-189 18-333 157-332 359 0 64 14 119 41 164 40 59 64 86 119 54 119-122 141-351 172-577" id="Z"/><use transform="matrix(0.03038194444444443,0,0,0.03038194444444443,0,0)" xlink:href="#Z" id="d"/><path fill="#6f7681" d="M58 19C286-91 516-384 500-717H219v-71h363v95C579-378 751-85 966 19l-42 62C741-5 596-223 540-444 470-224 296-10 100 81" id="aa"/><use transform="matrix(0.03038194444444443,0,0,0.03038194444444443,0,0)" xlink:href="#aa" id="e"/><path fill="#6f7681" d="M467-679c-174 0-324 229-325 420H66v-516h77c1 92-3 189 2 278 55-134 165-258 329-258 174 0 251 139 249 328C718-79 526 43 160 44l-3-72c323-3 478-94 484-399 0-146-44-252-174-252" id="ab"/><use transform="matrix(0.03038194444444443,0,0,0.03038194444444443,0,0)" xlink:href="#ab" id="f"/><path fill="#6f7681" d="M493 46l-3-74c87 7 152 11 193 11 80 0 82-49 101-138 9-56 13-140 13-247H420C383-162 296-48 129 76L75 15c202-136 279-303 276-642H54v-69h417v-147h82v147h417v69H433c0 63-2 114-5 154h450c1 138-3 290-18 361C835 8 818 50 696 56c-39 0-106-3-203-10" id="ac"/><use transform="matrix(0.03038194444444443,0,0,0.03038194444444443,0,0)" xlink:href="#ac" id="g"/><path fill="#01579b" d="M765-779c25 35 62 96 82 137l-54 24c-20-41-54-101-81-139zm110-40c27 36 65 99 84 136l-54 24c-22-44-54-100-83-138zM64-29c133-179 215-386 252-642l89 18c-30 115-51 238-109 385-37 92-91 195-147 275zM823 5c-56-217-160-484-258-660l81-27c93 170 206 449 266 658" id="ad"/><use transform="matrix(0.019999999999999997,0,0,0.019999999999999997,0,0)" xlink:href="#ad" id="h"/><path fill="#01579b" d="M483-576c17 40 66 172 79 216l-74 26c-11-45-57-172-78-217zM296 7c234-64 436-272 463-554l86 27c-36 132-72 252-157 357C596-46 474 32 362 75zm-45-533c20 43 72 174 91 226l-76 28c-15-52-69-190-89-225" id="ae"/><use transform="matrix(0.019999999999999997,0,0,0.019999999999999997,0,0)" xlink:href="#ae" id="i"/><path fill="#01579b" d="M805-665l67 40c-8 14-18 37-24 53-27 100-88 236-177 344C580-117 461-25 273 44l-72-65c183-54 308-145 399-251 78-92 139-221 159-312H421c-60 84-144 173-253 246l-69-52c173-103 271-248 314-338 11-17 25-53 31-79l93 31c-30 46-43 79-69 120h272c27 0 49-3 65-9" id="af"/><use transform="matrix(0.019999999999999997,0,0,0.019999999999999997,0,0)" xlink:href="#af" id="j"/><path fill="#01579b" d="M776-604H229v475h547v-475zm84-81c-4 226-3 464 0 691h-86c0-7 1-30 1-57H229c1 26 1 50 2 57h-86c5-220 4-468 1-691 236 4 478 3 714 0" id="ag"/><use transform="matrix(0.019999999999999997,0,0,0.019999999999999997,0,0)" xlink:href="#ag" id="k"/><path fill="#01579b" d="M749-708l51 39c-6 8-19 30-25 44-34 86-97 203-168 293 105 90 227 220 292 298l-70 61c-67-88-173-206-275-297C447-155 312-45 164 22l-64-67c262-111 480-315 578-575-161 2-340-5-491 5v-91c148 14 328 4 487 7 33 0 59-4 75-9" id="ah"/><use transform="matrix(0.019999999999999997,0,0,0.019999999999999997,0,0)" xlink:href="#ah" id="l"/><path fill="#01579b" d="M225-453c8 225-31 402-133 518L33 12c79-95 118-233 118-414v-269h747v218H225zm0-61h596v-95H225v95zm133 389h480v-73H358v73zM786 13c45-4 52 9 52-30v-51H358V85h-79v-474h640v372c-4 102-16 94-123 99-31 0-81-2-150-5l-1-69c82 3 129 5 141 5zM72-737v-65h880v65H72zm766 482v-73H358v73h480" id="ai"/><use transform="matrix(0.019531249999999997,0,0,0.019531249999999997,0,0)" xlink:href="#ai" id="m"/><path fill="#01579b" d="M528-390c-17-54-39-81-100-84-41 0-87 20-139 60s-104 96-156 170l-63-40c84-117 153-235 206-354H76v-65h228c16-38 31-80 46-125l73 17-40 108h444v65H355c-22 52-50 106-74 160 123-94 275-88 321 69 69-16 147-29 234-40l7 67c-93 12-168 25-227 39 9 51 13 118 13 200h-79c0-74-3-134-9-181-163 47-247 107-243 178C304-25 440-32 574-26c76 0 159-7 250-22l7 68C681 48 405 55 304-2c-56-29-84-75-84-138 0-109 103-192 308-250" id="aj"/><use transform="matrix(0.019531249999999997,0,0,0.019531249999999997,0,0)" xlink:href="#aj" id="n"/><path fill="#01579b" d="M391-305c-69-53-130-97-183-133l43-60c35 25 92 65 169 122 31-88 48-181 51-279H263C218-525 159-411 87-313l-50-57c94-137 161-293 201-468l72 11c-7 37-16 71-25 102h261c0 33-1 65-3 97 50 58 104 113 162 166v-364h80v433c73 59 148 110 227 155l-32 66c-71-41-136-85-195-130V89h-80v-456c-57-49-115-105-173-167C490-240 337-18 100 75L71 9c143-58 255-172 320-314" id="ak"/><use transform="matrix(0.019531249999999997,0,0,0.019531249999999997,0,0)" xlink:href="#ak" id="o"/><path fill="#01579b" d="M184-540V89h-76v-480c-21 44-42 82-63 113l-34-82c82-131 139-288 170-469l72 5c-15 102-38 197-69 284zm449 361H279v-618h354v618zM353-369v121h208v-121H353zm0-181v120h208v-120H353zm0-61h208v-118H353v118zm354 485v-642h73v642h-73zM842 3c44-2 36-8 36-59v-753h76v755c-6 106 6 125-91 129-23 0-64-2-123-5l-3-72c53 3 88 5 105 5zM234 42c61-60 109-125 142-196l62 32C400-39 351 31 291 86zm243-155l57-38C590-90 638-25 678 44l-60 35c-40-69-87-133-141-192" id="al"/><use transform="matrix(0.019531249999999997,0,0,0.019531249999999997,0,0)" xlink:href="#al" id="p"/><path fill="#01579b" d="M613-755l61-32c33 55 65 111 96 167l-62 30c-27-51-58-106-95-165zm143-39l63-33c40 66 73 123 98 172l-63 30c-32-58-65-114-98-169zm-53 290l77-24C841-370 897-191 948 8l-83 18c-50-201-104-378-162-530zM382-713C353-451 275-207 147 20L71-15c123-219 199-454 229-703" id="am"/><use transform="matrix(0.019531249999999997,0,0,0.019531249999999997,0,0)" xlink:href="#am" id="q"/><path fill="#01579b" d="M190-34c341-58 440-171 457-552l75 4C716-188 563-8 206 35zM70-543l72-16c21 72 46 163 74 272l-73 17c-23-95-48-186-73-273zm225-29l73-17c27 95 52 189 74 284l-74 16c-23-98-47-192-73-283" id="an"/><use transform="matrix(0.019531249999999997,0,0,0.019531249999999997,0,0)" xlink:href="#an" id="r"/><path fill="#01579b" d="M733-625H330c-40 118-108 222-204 311l-55-50c127-119 200-266 220-439l77 5c-3 31-9 65-18 102h466c1 488-214 682-675 724l-12-72c398-43 584-176 604-581" id="ao"/><use transform="matrix(0.019531249999999997,0,0,0.019531249999999997,0,0)" xlink:href="#ao" id="s"/><path fill="#01579b" d="M71-384c295-40 609-200 769-380l51 55c-79 87-182 164-307 231V46h-83v-482C365-373 226-331 84-310" id="ap"/><use transform="matrix(0.019531249999999997,0,0,0.019531249999999997,0,0)" xlink:href="#ap" id="t"/><path fill="#01579b" d="M70-677l36-69c109 55 214 113 314 174l-40 69c-94-59-197-117-310-174zM92-67c397-38 624-223 694-586l75 16C792-244 540-28 104 10" id="aq"/><use transform="matrix(0.019531249999999997,0,0,0.019531249999999997,0,0)" xlink:href="#aq" id="u"/><path fill="#fff" d="M785 10c59-3 60 3 60-56v-504H551v366h123v-287h76v415h-76v-62H350v106h-76v-459h76v287h123v-366H179V87h-79v-701h373v-111H72v-67h880v67H551v111h373v568c-5 116-7 122-122 126-17 0-72-2-164-5l-3-70c91 3 141 5 150 5" id="ar"/><use transform="matrix(0.019531249999999997,0,0,0.019531249999999997,0,0)" xlink:href="#ar" id="v"/><path fill="#fff" d="M236-520h552v-214H236v214zM894 67c-353-5-523-32-665-224C198-70 160 9 117 82L49 52c79-132 135-277 166-436l74 15c-7 36-17 79-32 130 55 96 116 153 226 191v-408H157v-345h710v345H565v146h336v66H565v217C656-8 817-1 965-3l-4 70h-67" id="as"/><use transform="matrix(0.019531249999999997,0,0,0.019531249999999997,0,0)" xlink:href="#as" id="w"/><path fill="#fff" d="M733-625H330c-40 118-108 222-204 311l-55-50c127-119 200-266 220-439l77 5c-3 31-9 65-18 102h466c1 488-214 682-675 724l-12-72c398-43 584-176 604-581" id="at"/><use transform="matrix(0.019531249999999997,0,0,0.019531249999999997,0,0)" xlink:href="#at" id="x"/><path fill="#fff" d="M837-7H65v-723h772V-7zM147-80h608v-577H147v577" id="au"/><use transform="matrix(0.019531249999999997,0,0,0.019531249999999997,0,0)" xlink:href="#au" id="y"/><path fill="#fff" d="M160-660v-74h634v74c-48 117-122 229-221 334 99 91 200 192 305 301l-55 54C723-76 622-177 520-272 405-161 267-65 106 16L71-49c273-140 515-346 637-611H160" id="av"/><use transform="matrix(0.019531249999999997,0,0,0.019531249999999997,0,0)" xlink:href="#av" id="z"/><path fill="#fff" d="M791-10c63-3 61 2 61-60v-588H549c-4 45-13 88-27 130 119 74 222 165 309 274l-63 45c-87-109-178-193-274-252-51 100-137 183-257 250l-44-69c157-84 252-178 275-378H172V63H92v-792h379v-114h80v114h381v659c-5 121-8 124-128 129-11 0-65-2-161-5l-3-69c91 3 141 5 151 5" id="aw"/><use transform="matrix(0.019531249999999997,0,0,0.019531249999999997,0,0)" xlink:href="#aw" id="A"/><path fill="#fff" d="M184-540V89h-76v-480c-21 44-42 82-63 113l-34-82c82-131 139-288 170-469l72 5c-15 102-38 197-69 284zm449 361H279v-618h354v618zM353-369v121h208v-121H353zm0-181v120h208v-120H353zm0-61h208v-118H353v118zm354 485v-642h73v642h-73zM842 3c44-2 36-8 36-59v-753h76v755c-6 106 6 125-91 129-23 0-64-2-123-5l-3-72c53 3 88 5 105 5zM234 42c61-60 109-125 142-196l62 32C400-39 351 31 291 86zm243-155l57-38C590-90 638-25 678 44l-60 35c-40-69-87-133-141-192" id="ax"/><use transform="matrix(0.019531249999999997,0,0,0.019531249999999997,0,0)" xlink:href="#ax" id="B"/><use transform="matrix(0.019531249999999997,0,0,0.019531249999999997,0,0)" xlink:href="#as" id="C"/><path fill="#fff" d="M520-807v275h384v69H520v437h443v72H61v-72h377v-781h82" id="ay"/><use transform="matrix(0.019531249999999997,0,0,0.019531249999999997,0,0)" xlink:href="#ay" id="D"/><path fill="#fff" d="M735-834l57-20c29 62 52 116 70 161l-58 16c-18-46-41-98-69-157zm192 142c-23-57-46-111-70-161l59-21c28 60 52 115 71 164zM119 59c-69-252-69-583 0-835l76 10c-67 248-67 568 0 815zm204-643h314v-201h75v201h201v69H712c-1 210 14 418-104 499-38 29-96 53-174 73l-24-67c74-21 114-30 161-70 88-75 60-270 66-435H323v-69" id="az"/><use transform="matrix(0.019531249999999997,0,0,0.019531249999999997,0,0)" xlink:href="#az" id="E"/><use transform="matrix(0.019531249999999997,0,0,0.019531249999999997,0,0)" xlink:href="#am" id="F"/><path fill="#01579b" d="M69-660v-70h809v70c-43 151-150 273-285 336l-41-63c125-62 205-153 242-273H69zm58 628c197-89 241-232 244-531h78c-3 336-61 494-285 597" id="aA"/><use transform="matrix(0.019531249999999997,0,0,0.019531249999999997,0,0)" xlink:href="#aA" id="G"/><path fill="#01579b" d="M243-34c309-18 506-153 511-458v-97H145v251H68v-320h334v-164h79v164h351v166C829-147 599 21 252 38" id="aB"/><use transform="matrix(0.019531249999999997,0,0,0.019531249999999997,0,0)" xlink:href="#aB" id="H"/><path fill="#01579b" d="M147-785v299c189 45 379 104 572 176l-24 74c-194-73-377-130-548-171V48H65v-833h82" id="aC"/><use transform="matrix(0.019531249999999997,0,0,0.019531249999999997,0,0)" xlink:href="#aC" id="I"/><path fill="#01579b" d="M156-737h690v73H457v234h474v72H457c11 120-39 289 81 304 96 12 223 3 322-5l3 72c-116 8-265 22-371 2C389-5 371-88 371-222v-136H71v-72h300v-234H156v-73" id="aD"/><use transform="matrix(0.019531249999999997,0,0,0.019531249999999997,0,0)" xlink:href="#aD" id="J"/><path fill="#01579b" d="M433-39c52-2 49-4 49-59v-499H96v-72h386v-147h82v147h366v72H564v508C560 18 553 30 448 34c-50 0-103-5-161-14l8-70c45 7 91 11 138 11zM243-457l73 27C263-309 204-192 141-77l-70-33c64-116 121-232 172-347zm468 27l70-31c63 119 121 239 175 361l-73 29c-59-132-116-252-172-359" id="aE"/><use transform="matrix(0.019531249999999997,0,0,0.019531249999999997,0,0)" xlink:href="#aE" id="K"/><path fill="#01579b" d="M71-330v-78h834v78H71" id="aF"/><use transform="matrix(0.019531249999999997,0,0,0.019531249999999997,0,0)" xlink:href="#aF" id="L"/><use transform="matrix(0.019531249999999997,0,0,0.019531249999999997,0,0)" xlink:href="#ao" id="M"/><use transform="matrix(0.019531249999999997,0,0,0.019531249999999997,0,0)" xlink:href="#ap" id="N"/><path fill="#01579b" d="M82-261v-65h313v65H82" id="aG"/><g id="O"><use transform="matrix(0.019531249999999997,0,0,0.019531249999999997,0,0)" xlink:href="#aq"/><use transform="matrix(0.019531249999999997,0,0,0.019531249999999997,18.183593749999996,0)" xlink:href="#aG"/></g><path fill="#fff" d="M69-720h761c3 479-214 695-654 744l-14-73c377-45 564-206 585-596H69v-75" id="aH"/><use transform="matrix(0.019531249999999997,0,0,0.019531249999999997,0,0)" xlink:href="#aH" id="P"/><path fill="#fff" d="M441-43c42-2 45-3 45-45v-284C368-251 241-152 105-74l-34-59c144-81 276-187 397-317H70v-65h416v-129h73v129h181v65H559v363C555 14 548 20 447 24c-43 0-89-3-138-9l5-66c53 5 96 8 127 8" id="aI"/><use transform="matrix(0.019531249999999997,0,0,0.019531249999999997,0,0)" xlink:href="#aI" id="Q"/><path fill="#fff" d="M69-660v-70h809v70c-43 151-150 273-285 336l-41-63c125-62 205-153 242-273H69zm58 628c197-89 241-232 244-531h78c-3 336-61 494-285 597" id="aJ"/><use transform="matrix(0.019531249999999997,0,0,0.019531249999999997,0,0)" xlink:href="#aJ" id="R"/><path fill="#fff" d="M243-34c309-18 506-153 511-458v-97H145v251H68v-320h334v-164h79v164h351v166C829-147 599 21 252 38" id="aK"/><use transform="matrix(0.019531249999999997,0,0,0.019531249999999997,0,0)" xlink:href="#aK" id="S"/><path fill="#fff" d="M147-785v299c189 45 379 104 572 176l-24 74c-194-73-377-130-548-171V48H65v-833h82" id="aL"/><use transform="matrix(0.019531249999999997,0,0,0.019531249999999997,0,0)" xlink:href="#aL" id="T"/><path fill="#01579b" d="M160-660v-74h634v74c-48 117-122 229-221 334 99 91 200 192 305 301l-55 54C723-76 622-177 520-272 405-161 267-65 106 16L71-49c273-140 515-346 637-611H160" id="aM"/><use transform="matrix(0.019531249999999997,0,0,0.019531249999999997,0,0)" xlink:href="#aM" id="U"/><path fill="#01579b" d="M307 24C115 20 65-26 65-218v-537h79v315c187-31 369-76 547-135-46-16-86-65-86-124-2-71 62-134 133-134 72 0 135 62 133 134 1 66-51 119-107 130l13 43c-208 74-419 128-633 161v148c4 140 27 164 168 168 159 0 312-5 457-16l3 73C610 18 455 23 307 24zm431-649c39 1 76-36 75-75 1-39-36-77-75-75-39-2-77 36-75 75-2 39 36 76 75 75" id="aN"/><use transform="matrix(0.019531249999999997,0,0,0.019531249999999997,0,0)" xlink:href="#aN" id="V"/></defs></g></svg>