<svg xmlns="http://www.w3.org/2000/svg" xmlns:xlink="http://www.w3.org/1999/xlink" xmlns:lucid="lucid" width="1300" height="348"><g transform="translate(-1280 -77.99999999999955)" lucid:page-tab-id="9Q72TVNhmu1u"><path d="M2044.6 400H2030a30 30 0 0 1-30-30V130a30 30 0 0 1 30-30h14.6z" stroke="#01579b" stroke-width="3" fill="#fff" fill-opacity="0"/><path d="M2044.6 100H2270a30 30 0 0 1 30 30v240a30 30 0 0 1-30 30h-225.4z" stroke="#01579b" stroke-width="3" fill="none"/><use xlink:href="#a" transform="matrix(-1.8369701987210297e-16,-1,1,-1.8369701987210297e-16,2000.0000000000005,400.0000000000002) translate(0 30.9)"/><use xlink:href="#b" transform="matrix(-1.8369701987210297e-16,-1,1,-1.8369701987210297e-16,2000.0000000000005,400.0000000000002) translate(19.999999999999996 30.9)"/><use xlink:href="#c" transform="matrix(-1.8369701987210297e-16,-1,1,-1.8369701987210297e-16,2000.0000000000005,400.0000000000002) translate(39.99999999999999 30.9)"/><use xlink:href="#d" transform="matrix(-1.8369701987210297e-16,-1,1,-1.8369701987210297e-16,2000.0000000000005,400.0000000000002) translate(65.79999999999998 30.9)"/><use xlink:href="#e" transform="matrix(-1.8369701987210297e-16,-1,1,-1.8369701987210297e-16,2000.0000000000005,400.0000000000002) translate(85.79999999999998 30.9)"/><use xlink:href="#f" transform="matrix(-1.8369701987210297e-16,-1,1,-1.8369701987210297e-16,2000.0000000000005,400.0000000000002) translate(105.79999999999998 30.9)"/><use xlink:href="#g" transform="matrix(-1.8369701987210297e-16,-1,1,-1.8369701987210297e-16,2000.0000000000005,400.0000000000002) translate(125.79999999999998 30.9)"/><path d="M1460 302c22.1 0 40 22.4 40 50s-17.9 50-40 50h-120c-22.1 0-40-22.4-40-50s17.9-50 40-50z" stroke="#01579b" stroke-width="3" fill="#fff"/><use xlink:href="#h" transform="matrix(1,0,0,1,1305,307.00000000000045) translate(17.285156250000014 52.44140625)"/><use xlink:href="#i" transform="matrix(1,0,0,1,1305,307.00000000000045) translate(35.820312500000014 52.44140625)"/><use xlink:href="#j" transform="matrix(1,0,0,1,1305,307.00000000000045) translate(54.92187500000001 52.44140625)"/><use xlink:href="#k" transform="matrix(1,0,0,1,1305,307.00000000000045) translate(85.6640625 52.44140625)"/><use xlink:href="#l" transform="matrix(1,0,0,1,1305,307.00000000000045) translate(103.88671875 52.44140625)"/><use xlink:href="#m" transform="matrix(1,0,0,1,1305,307.00000000000045) translate(120.72265625 52.44140625)"/><use xlink:href="#n" transform="matrix(1,0,0,1,1305,307.00000000000045) translate(139.1015625 52.44140625)"/><use xlink:href="#o" transform="matrix(1,0,0,1,1305,307.00000000000045) translate(157.28515625 52.44140625)"/><path d="M1520 306a6 6 0 0 1 6-6h268a6 6 0 0 1 6 6v88a6 6 0 0 1-6 6h-268a6 6 0 0 1-6-6z" fill="#fff" fill-opacity="0"/><path d="M1548 300h-22a6 6 0 0 0-6 6v88a6 6 0 0 0 6 6h22" stroke="#dfe3e8" stroke-width="3" fill="none"/><use xlink:href="#p" transform="matrix(1,0,0,1,1542.5,305) translate(0 51.650390625)"/><use xlink:href="#q" transform="matrix(1,0,0,1,1542.5,305) translate(19.999999999999996 51.650390625)"/><path d="M1300 104a6 6 0 0 1 6-6h188a6 6 0 0 1 6 6v88a6 6 0 0 1-6 6h-188a6 6 0 0 1-6-6z" stroke="#01579b" stroke-width="3" fill="#0277bd"/><use xlink:href="#r" transform="matrix(1,0,0,1,1312,109.99999999999955) translate(68 45.25390625)"/><use xlink:href="#s" transform="matrix(1,0,0,1,1312,109.99999999999955) translate(88 45.25390625)"/><path d="M1520 104a6 6 0 0 1 6-6h268a6 6 0 0 1 6 6v88a6 6 0 0 1-6 6h-268a6 6 0 0 1-6-6z" fill="#fff" fill-opacity="0"/><path d="M1548 98h-22a6 6 0 0 0-6 6v88a6 6 0 0 0 6 6h22" stroke="#dfe3e8" stroke-width="3" fill="none"/><g><use xlink:href="#p" transform="matrix(1,0,0,1,1542.5,102.99999999999955) translate(0 51.650390625)"/><use xlink:href="#q" transform="matrix(1,0,0,1,1542.5,102.99999999999955) translate(19.999999999999996 51.650390625)"/></g><path d="M1700 210h240v60h-240z" fill="none"/><g><use xlink:href="#t" transform="matrix(1,0,0,1,1700,210) translate(80 38.4)"/><use xlink:href="#u" transform="matrix(1,0,0,1,1700,210) translate(100 38.4)"/><use xlink:href="#v" transform="matrix(1,0,0,1,1700,210) translate(120 38.4)"/><use xlink:href="#w" transform="matrix(1,0,0,1,1700,210) translate(140 38.4)"/></g><g fill="none"><path d="M1820 120c66.27 0 120 53.73 120 120 0 66.27-53.73 120-120 120-66.27 0-120-53.73-120-120" stroke="#01579b" stroke-width="5"/><path d="M1690.4 264l9.6-24 12 24" stroke="#01579b" stroke-width="5"/><path d="M1820 120c66.27 0 120 53.73 120 120 0 66.27-53.73 120-120 120-66.27 0-120-53.73-120-120z"/></g><path d="M2320 240h120v60h-120z" fill="none"/><g><use xlink:href="#x" transform="matrix(1,0,0,1,2320,240) translate(20.000000000000007 38.4)"/><use xlink:href="#y" transform="matrix(1,0,0,1,2320,240) translate(40 38.4)"/><use xlink:href="#z" transform="matrix(1,0,0,1,2320,240) translate(60 38.4)"/><use xlink:href="#A" transform="matrix(1,0,0,1,2320,240) translate(80 38.4)"/></g><path d="M2400 320h160v60h-160z" fill="none"/><g><use xlink:href="#B" transform="matrix(1,0,0,1,2400,320) translate(0 38.4)"/><use xlink:href="#C" transform="matrix(1,0,0,1,2400,320) translate(19.999999999999996 38.4)"/><use xlink:href="#D" transform="matrix(1,0,0,1,2400,320) translate(39.99999999999999 38.4)"/><use xlink:href="#E" transform="matrix(1,0,0,1,2400,320) translate(59.999999999999986 38.4)"/><use xlink:href="#F" transform="matrix(1,0,0,1,2400,320) translate(79.99999999999999 38.4)"/><use xlink:href="#G" transform="matrix(1,0,0,1,2400,320) translate(99.99999999999999 38.4)"/><use xlink:href="#H" transform="matrix(1,0,0,1,2400,320) translate(119.99999999999999 38.4)"/></g><path d="M2380 397.5v-72.64M2380 397.44V400" stroke="#6f7681" stroke-width="5" fill="none"/><path d="M2380 308.1l4.64 14.26h-9.28z" stroke="#6f7681" stroke-width="5" fill="#6f7681"/><defs><path fill="#01579b" d="M749-708l51 39c-6 8-19 30-25 44-34 86-97 203-168 293 105 90 227 220 292 298l-70 61c-67-88-173-206-275-297C447-155 312-45 164 22l-64-67c262-111 480-315 578-575-161 2-340-5-491 5v-91c148 14 328 4 487 7 33 0 59-4 75-9" id="I"/><use transform="matrix(0.019999999999999997,0,0,0.019999999999999997,0,0)" xlink:href="#I" id="a"/><path fill="#01579b" d="M547-338c151-26 231-35 334-62l17 84c-110 14-192 31-336 52 35 166 34 184 65 292l-91 17c-17-119-23-127-54-296-167 29-246 39-357 64l-18-87c125-10 190-26 361-51l-40-201c-147 24-203 30-301 53l-17-90c108-6 158-17 303-39-20-96-18-108-40-173l90-16c9 75 10 78 30 177 143-25 211-31 302-56l17 84c-99 13-166 26-305 47" id="J"/><use transform="matrix(0.019999999999999997,0,0,0.019999999999999997,0,0)" xlink:href="#J" id="b"/><path fill="#01579b" d="M141 24L66-26c84-60 144-149 174-246 29-92 30-291 30-402 0-30-3-52-7-73h92c-10 135-2 368-36 497-30 107-94 205-178 274zm436-1l-53-44c4-16 7-36 7-56v-599c0-38-5-66-6-74h92c-9 207-2 437-4 651 92-42 215-133 291-246l48 68C866-160 727-58 611 0c-15 8-24 15-34 23" id="K"/><use transform="matrix(0.019999999999999997,0,0,0.019999999999999997,0,0)" xlink:href="#K" id="c"/><path fill="#01579b" d="M429-632h271c27 0 49-3 65-9l66 40c-8 14-18 37-23 53-27 101-88 236-177 345C540-92 420-1 233 69L160 3c184-54 309-144 400-251 78-91 139-221 159-312H382c-61 85-144 174-254 246l-69-51c172-103 270-249 314-338 10-18 25-54 31-80l92 31c-28 46-43 79-67 120zm283-145l53-23c25 36 61 96 82 137l-54 24c-20-40-54-101-81-138zm110-40l53-23c26 37 65 99 83 136l-53 24c-22-43-55-100-83-137" id="L"/><use transform="matrix(0.019999999999999997,0,0,0.019999999999999997,0,0)" xlink:href="#L" id="d"/><use transform="matrix(0.019999999999999997,0,0,0.019999999999999997,0,0)" xlink:href="#K" id="e"/><path fill="#01579b" d="M102-335v-98c214 10 463 3 687 5 50 0 86-3 108-5v98c-206-10-441-3-656-5-55 0-108 2-139 5" id="M"/><use transform="matrix(0.019999999999999997,0,0,0.019999999999999997,0,0)" xlink:href="#M" id="f"/><path fill="#01579b" d="M871-652c36 0 66-30 66-66s-30-67-66-67c-37 0-66 31-66 67s29 66 66 66zm-741-39c200 12 425 4 634 5-22-76 35-145 107-145 62 0 112 51 112 113 0 74-71 131-150 106-22 112-70 272-151 380C590-115 471-22 288 35l-68-75c194-48 306-133 390-240 71-91 117-230 131-326-202 1-414-3-611 3v-88" id="N"/><use transform="matrix(0.019999999999999997,0,0,0.019999999999999997,0,0)" xlink:href="#N" id="g"/><path fill="#01579b" d="M160-660v-74h634v74c-48 117-122 229-221 334 99 91 200 192 305 301l-55 54C723-76 622-177 520-272 405-161 267-65 106 16L71-49c273-140 515-346 637-611H160" id="O"/><use transform="matrix(0.019531249999999997,0,0,0.019531249999999997,0,0)" xlink:href="#O" id="h"/><path fill="#01579b" d="M414-800l82-6 13 175 354-12 3 72-350 12 20 265 368-11 3 72-366 11 23 284-82 7-23-288-385 12-3-72 383-12-21-265-318 11-3-71 316-12" id="P"/><use transform="matrix(0.019531249999999997,0,0,0.019531249999999997,0,0)" xlink:href="#P" id="i"/><path fill="#01579b" d="M71-34c185-79 191-240 194-519v-202h82c-2 266 16 552-93 687-32 39-79 73-141 102zm914-389C966-160 807 35 531 29v-784h82v704c182-30 280-177 297-381" id="Q"/><path fill="#01579b" d="M468-748L116 41H36l352-789h80" id="R"/><g id="j"><use transform="matrix(0.019531249999999997,0,0,0.019531249999999997,0,0)" xlink:href="#Q"/><use transform="matrix(0.019531249999999997,0,0,0.019531249999999997,20.605468749999996,0)" xlink:href="#R"/></g><path fill="#01579b" d="M101-714h732v72H508v547h355v71H71v-71h355v-547H101v-72" id="S"/><use transform="matrix(0.019531249999999997,0,0,0.019531249999999997,0,0)" xlink:href="#S" id="k"/><path fill="#01579b" d="M148-46c308-20 480-164 570-414l73 29C677-119 437 35 65 31v-792h83v715" id="T"/><use transform="matrix(0.019531249999999997,0,0,0.019531249999999997,0,0)" xlink:href="#T" id="l"/><path fill="#01579b" d="M187-566l50-61c102 72 198 145 289 219 73-107 128-230 167-368l80 16c-42 155-102 291-181 407 105 87 197 170 278 248l-56 57c-95-91-185-171-270-242C437-157 295-44 117 47L71-19c171-89 307-197 408-324-113-92-211-166-292-223" id="U"/><use transform="matrix(0.019531249999999997,0,0,0.019531249999999997,0,0)" xlink:href="#U" id="m"/><path fill="#01579b" d="M70-677l36-69c109 55 214 113 314 174l-40 69c-94-59-197-117-310-174zM92-67c397-38 624-223 694-586l75 16C792-244 540-28 104 10" id="V"/><use transform="matrix(0.019531249999999997,0,0,0.019531249999999997,0,0)" xlink:href="#V" id="n"/><path fill="#01579b" d="M147-785v299c189 45 379 104 572 176l-24 74c-194-73-377-130-548-171V48H65v-833h82" id="W"/><use transform="matrix(0.019531249999999997,0,0,0.019531249999999997,0,0)" xlink:href="#W" id="o"/><path fill="#6f7681" d="M889-348H707v136h182v-136zm0-60v-122H707v122h182zm-440 60v136h181v-136H449zm0-60h181v-122H449v122zM858 17c41-2 31-10 31-60v-109H707V61h-77v-213H449V85h-77v-479c-21 37-44 72-69 104 23 27 41 51 55 71l-52 47c-21-29-47-61-78-98V89h-76v-362c-32 37-69 72-112 103l-24-81c113-87 198-201 253-343H36v-72h116v-160h76v160h120v72c-31 83-69 157-116 220 13 15 23 26 29 33 27-35 51-76 74-121l37 19v-151h258v-92H355v-67h275v-85h77v85h151c-34-29-59-49-76-61l54-40c46 34 86 68 121 101h36v67H707v92h259v550c-6 98 8 122-77 126-22 0-63-2-123-5l-4-65c48 3 80 5 96 5" id="X"/><use transform="matrix(0.019531249999999997,0,0,0.019531249999999997,0,0)" xlink:href="#X" id="p"/><path fill="#6f7681" d="M236-520h552v-214H236v214zM894 67c-353-5-523-32-665-224C198-70 160 9 117 82L49 52c79-132 135-277 166-436l74 15c-7 36-17 79-32 130 55 96 116 153 226 191v-408H157v-345h710v345H565v146h336v66H565v217C656-8 817-1 965-3l-4 70h-67" id="Y"/><use transform="matrix(0.019531249999999997,0,0,0.019531249999999997,0,0)" xlink:href="#Y" id="q"/><path fill="#fff" d="M688-532c19 249 141 438 312 546l-46 64C816-10 700-172 648-348 593-171 475-12 333 78l-49-64C456-93 584-283 603-532H319v-72h287v-212h80v212h300v72H688zm61-264l51-50c59 54 116 111 171 171l-52 49c-56-61-113-117-170-170zM29-658l66-37c39 68 75 134 107 198v-329h77V89h-77v-304c-46 27-99 54-158 83l-29-71c69-32 131-64 187-95v-155l-48 26c-37-77-79-154-125-231" id="Z"/><use transform="matrix(0.019531249999999997,0,0,0.019531249999999997,0,0)" xlink:href="#Z" id="r"/><path fill="#fff" d="M167-437v54h237v-54H167zm0-51h237v-56H167v56zm303-121c-4-7-21-32-27-38-150 12-284 19-402 22l-4-61c17 0 41-1 74-2 39-50 73-100 102-149l78 16c-26 41-56 85-90 130 66-3 132-7 198-12-31-39-52-65-65-80l66-29c51 56 97 114 138 173zm-96 340c30-2 30 3 30-26v-36H167v124H90v-394h389v314c16 113-96 71-192 75l-1-61c26 1 63 4 88 4zm262-337c38 26 131 12 198 12 48 0 55-43 59-90l73 11c-5 47-11 74-26 107-33 43-121 35-196 36-91-2-133 3-177-22-8-8-12-21-12-42v-225h80v93c98-19 199-46 303-81l20 63c-109 36-217 63-323 82 1 18-2 41 1 56zm-1 309c-4 50 93 29 157 29 43 0 91 0 94-42 8-24 6-27 10-58l74 11c-4 50-7 79-26 113-27 50-124 39-200 39-91 0-134 4-177-21-8-8-12-22-12-42v-237h80v81c98-19 199-46 303-81l20 63c-109 36-217 64-323 83v62zM35 24C93-33 137-99 166-173l65 29C202-62 155 9 92 70zm341-191c1 46-4 140 6 169 41 28 186 20 256 14 98-8 80-21 96-129l75 13c-4 64-7 107-31 146-49 46-154 41-248 41-60 0-194 3-218-31-23-27-16-158-17-223h81zm59 6l44-52c69 35 130 73 184 114l-45 52c-53-41-114-79-183-114zm343 8l64-34c56 67 106 140 149 220l-67 29c-42-77-91-149-146-215" id="aa"/><use transform="matrix(0.019531249999999997,0,0,0.019531249999999997,0,0)" xlink:href="#aa" id="s"/><path fill="#6f7681" d="M720-571c56 0 162 2 201-5v84c-37-4-148-3-201-3 4 288-47 435-286 541l-67-63c193-68 282-179 273-478H355c1 76-2 188 4 253h-88c6-63 4-178 4-253-57 0-168 0-208 4v-87c36 8 151 8 208 7 0-60 2-152-4-201h89c-7 45-5 143-5 201h285c-1-59 2-163-5-207h90c-7 44-5 148-5 207" id="ab"/><use transform="matrix(0.019999999999999997,0,0,0.019999999999999997,0,0)" xlink:href="#ab" id="t"/><path fill="#6f7681" d="M102-335v-98c214 10 463 3 687 5 50 0 86-3 108-5v98c-206-10-441-3-656-5-55 0-108 2-139 5" id="ac"/><use transform="matrix(0.019999999999999997,0,0,0.019999999999999997,0,0)" xlink:href="#ac" id="u"/><path fill="#6f7681" d="M805-665l67 40c-8 14-18 37-24 53-27 100-88 236-177 344C580-117 461-25 273 44l-72-65c183-54 308-145 399-251 78-92 139-221 159-312H421c-60 84-144 173-253 246l-69-52c173-103 271-248 314-338 11-17 25-53 31-79l93 31c-30 46-43 79-69 120h272c27 0 49-3 65-9" id="ad"/><use transform="matrix(0.019999999999999997,0,0,0.019999999999999997,0,0)" xlink:href="#ad" id="v"/><path fill="#6f7681" d="M141 24L66-26c84-60 144-149 174-246 29-92 30-291 30-402 0-30-3-52-7-73h92c-10 135-2 368-36 497-30 107-94 205-178 274zm436-1l-53-44c4-16 7-36 7-56v-599c0-38-5-66-6-74h92c-9 207-2 437-4 651 92-42 215-133 291-246l48 68C866-160 727-58 611 0c-15 8-24 15-34 23" id="ae"/><use transform="matrix(0.019999999999999997,0,0,0.019999999999999997,0,0)" xlink:href="#ae" id="w"/><path fill="#6f7681" d="M384-737H165v81h219v-81zM165-517h219v-86H165v86zm289 57H165V77H92v-871h362v334zm-28 232h140v-108H426v108zm342 63H632V58h-66v-223H424C418-98 386 6 290 71c-11-13-33-34-49-44 84-51 112-134 118-192H234v-63h127v-108H253v-61h493v61H632v108h136v63zM613-516h227v-87H613v87zm227-221H613v81h227v-81zm73-57v774c-3 108-71 90-194 94-2-19-13-54-24-74 55 2 109 2 124 1 16 0 21-6 21-22v-438H542v-335h371" id="af"/><use transform="matrix(0.019999999999999997,0,0,0.019999999999999997,0,0)" xlink:href="#af" id="x"/><path fill="#6f7681" d="M430-420l-8-72 79-4c42-97 89-238 115-341l81 17c-35 102-81 227-123 320 82-5 175-11 268-17-27-47-59-95-91-136l60-30c65 83 134 193 160 266l-64 36c-7-21-17-45-30-71-162 12-329 25-447 32zm-89-142H211c-21 89-43 177-63 255 38 22 79 47 117 74 37-89 63-199 76-329zm-115-69c66 3 140-7 191 7-13 181-44 324-93 435 48 37 89 75 116 108l-45 59c-25-31-61-66-103-101C241-34 177 32 99 79 88 61 69 34 53 19c73-38 134-101 181-188-33-25-69-50-103-71l-12 43-62-33c25-85 55-208 84-332H47v-69h109c16-73 30-144 42-206l71 8c-12 61-27 129-43 198zm614 373H561v223h279v-223zM490 77v-403h424V73h-74V32H561v45h-71" id="ag"/><use transform="matrix(0.019999999999999997,0,0,0.019999999999999997,0,0)" xlink:href="#ag" id="y"/><path fill="#6f7681" d="M329-641h259v-184h75v184h273v70H329v-70zm230 538l-73 16c-7-100-38-273-74-405l66-12c38 132 72 302 81 401zM279-834l69 22c-28 70-63 140-102 206V73h-70v-572c-35 48-72 93-110 130-8-17-30-55-43-73 101-94 198-241 256-392zM722-40h239v70H305v-70h345c46-126 98-328 124-473l80 14c-34 148-86 335-132 459" id="ah"/><use transform="matrix(0.019999999999999997,0,0,0.019999999999999997,0,0)" xlink:href="#ah" id="z"/><path fill="#6f7681" d="M416-741v89h163v-89H416zm-69 89v-89H188v89h159zm301-89v89h168v-89H648zm128 415v-54H371v54h405zm0 99v-55H371v55h405zm0 101v-56H371v56h405zM302-426h149c3-18 7-38 10-58H72v-59h398c2-18 4-37 6-54H118v-198h771v198H551c-3 17-5 36-8 54h387v59H533c-3 21-7 40-10 58h324v345H302v-345zM955-25v60H201v42h-74v-488h74v386h754" id="ai"/><use transform="matrix(0.019999999999999997,0,0,0.019999999999999997,0,0)" xlink:href="#ai" id="A"/><path fill="#6f7681" d="M776-604H229v475h547v-475zm84-81c-4 226-3 464 0 691h-86c0-7 1-30 1-57H229c1 26 1 50 2 57h-86c5-220 4-468 1-691 236 4 478 3 714 0" id="aj"/><use transform="matrix(0.019999999999999997,0,0,0.019999999999999997,0,0)" xlink:href="#aj" id="B"/><path fill="#6f7681" d="M227-733c71 47 199 151 255 207l-63 63c-50-52-175-159-249-209zM141-63c175-26 305-87 400-146 154-97 276-245 334-368l48 85C783-252 545-47 194 19" id="ak"/><use transform="matrix(0.019999999999999997,0,0,0.019999999999999997,0,0)" xlink:href="#ak" id="C"/><path fill="#6f7681" d="M429-632h271c27 0 49-3 65-9l66 40c-8 14-18 37-23 53-27 101-88 236-177 345C540-92 420-1 233 69L160 3c184-54 309-144 400-251 78-91 139-221 159-312H382c-61 85-144 174-254 246l-69-51c172-103 270-249 314-338 10-18 25-54 31-80l92 31c-28 46-43 79-67 120zm283-145l53-23c25 36 61 96 82 137l-54 24c-20-40-54-101-81-138zm110-40l53-23c26 37 65 99 83 136l-53 24c-22-43-55-100-83-137" id="al"/><use transform="matrix(0.019999999999999997,0,0,0.019999999999999997,0,0)" xlink:href="#al" id="D"/><path fill="#6f7681" d="M442-544h90c0 271-24 454-279 581l-73-60c27-9 61-25 89-44 174-110 184-270 173-477zm440-179l49 47c-7 10-20 25-27 36-40 68-135 197-249 276l-66-53c92-54 186-162 218-224-227 3-465-7-683 6v-90c215 17 460 4 688 8 19 0 55-3 70-6" id="am"/><use transform="matrix(0.019999999999999997,0,0,0.019999999999999997,0,0)" xlink:href="#am" id="E"/><use transform="matrix(0.019999999999999997,0,0,0.019999999999999997,0,0)" xlink:href="#ad" id="F"/><path fill="#6f7681" d="M301-768c59 33 174 109 217 141l-47 68c-48-36-156-108-215-142zM151-54c314-48 589-259 714-482l48 82C826-319 688-190 529-96 428-38 290 9 197 28zm-1-489c60 32 176 103 220 135l-46 70c-49-36-158-106-218-137" id="an"/><use transform="matrix(0.019999999999999997,0,0,0.019999999999999997,0,0)" xlink:href="#an" id="G"/><path fill="#6f7681" d="M749-708l51 39c-6 8-19 30-25 44-34 86-97 203-168 293 105 90 227 220 292 298l-70 61c-67-88-173-206-275-297C447-155 312-45 164 22l-64-67c262-111 480-315 578-575-161 2-340-5-491 5v-91c148 14 328 4 487 7 33 0 59-4 75-9" id="ao"/><use transform="matrix(0.019999999999999997,0,0,0.019999999999999997,0,0)" xlink:href="#ao" id="H"/></defs></g></svg>