<svg xmlns="http://www.w3.org/2000/svg" xmlns:xlink="http://www.w3.org/1999/xlink" xmlns:lucid="lucid" width="1322.83" height="1870.87"><g transform="translate(0 1806.8661417322833)" lucid:page-tab-id="A8qZP.BcB5vR"><path d="M822.83-234a6 6 0 0 1 6-6h188a6 6 0 0 1 6 6v88a6 6 0 0 1-6 6h-188a6 6 0 0 1-6-6z" stroke="#0d47a1" stroke-width="3" fill="#1565c0"/><use xlink:href="#a" transform="matrix(1,0,0,1,834.8346456692911,-228) translate(23.595703125000014 45.25390625)"/><use xlink:href="#b" transform="matrix(1,0,0,1,834.8346456692911,-228) translate(41.134765625000014 45.25390625)"/><use xlink:href="#c" transform="matrix(1,0,0,1,834.8346456692911,-228) translate(56.97460937500001 45.25390625)"/><use xlink:href="#c" transform="matrix(1,0,0,1,834.8346456692911,-228) translate(75.490234375 45.25390625)"/><use xlink:href="#d" transform="matrix(1,0,0,1,834.8346456692911,-228) translate(94.005859375 45.25390625)"/><use xlink:href="#e" transform="matrix(1,0,0,1,834.8346456692911,-228) translate(111.583984375 45.25390625)"/><use xlink:href="#f" transform="matrix(1,0,0,1,834.8346456692911,-228) translate(132.404296875 45.25390625)"/><path d="M1080-400c22.1 0 40 22.4 40 50s-17.9 50-40 50H960c-22.1 0-40-22.4-40-50s17.9-50 40-50z" stroke="#0d47a1" stroke-width="3" fill="#fff"/><use xlink:href="#g" transform="matrix(1,0,0,1,925,-395) translate(61.46484375000001 52.44140625)"/><use xlink:href="#h" transform="matrix(1,0,0,1,925,-395) translate(73.84765625 52.44140625)"/><use xlink:href="#i" transform="matrix(1,0,0,1,925,-395) translate(91.30859375 52.44140625)"/><use xlink:href="#j" transform="matrix(1,0,0,1,925,-395) translate(110.3515625 52.44140625)"/><path d="M1080-560c22.1 0 40 22.4 40 50s-17.9 50-40 50H960c-22.1 0-40-22.4-40-50s17.9-50 40-50z" stroke="#0d47a1" stroke-width="3" fill="#fff"/><use xlink:href="#k" transform="matrix(1,0,0,1,925,-555) translate(33.08593750000001 52.44140625)"/><use xlink:href="#l" transform="matrix(1,0,0,1,925,-555) translate(52.98828125 52.44140625)"/><use xlink:href="#m" transform="matrix(1,0,0,1,925,-555) translate(68.45703125 52.44140625)"/><use xlink:href="#m" transform="matrix(1,0,0,1,925,-555) translate(85.72265625 52.44140625)"/><use xlink:href="#n" transform="matrix(1,0,0,1,925,-555) translate(102.98828125 52.44140625)"/><use xlink:href="#o" transform="matrix(1,0,0,1,925,-555) translate(120.60546875 52.44140625)"/><use xlink:href="#p" transform="matrix(1,0,0,1,925,-555) translate(144.53125 52.44140625)"/><path d="M822.83-714a6 6 0 0 1 6-6h188a6 6 0 0 1 6 6v88a6 6 0 0 1-6 6h-188a6 6 0 0 1-6-6z" stroke="#0d47a1" stroke-width="3" fill="#1565c0"/><use xlink:href="#q" transform="matrix(1,0,0,1,834.8346456692911,-708) translate(30.500000000000007 45.25390625)"/><use xlink:href="#r" transform="matrix(1,0,0,1,834.8346456692911,-708) translate(50.40234375 45.25390625)"/><use xlink:href="#s" transform="matrix(1,0,0,1,834.8346456692911,-708) translate(65.87109375 45.25390625)"/><use xlink:href="#t" transform="matrix(1,0,0,1,834.8346456692911,-708) translate(83.13671875 45.25390625)"/><use xlink:href="#u" transform="matrix(1,0,0,1,834.8346456692911,-708) translate(101.92578125 45.25390625)"/><use xlink:href="#f" transform="matrix(1,0,0,1,834.8346456692911,-708) translate(125.5 45.25390625)"/><path d="M1042.83-714a6 6 0 0 1 6-6h268a6 6 0 0 1 6 6v88a6 6 0 0 1-6 6h-268a6 6 0 0 1-6-6z" fill="#fff" fill-opacity="0"/><path d="M1070.83-720h-22a6 6 0 0 0-6 6v88a6 6 0 0 0 6 6h22" stroke="#dfe3e8" stroke-width="3" fill="none"/><use xlink:href="#v" transform="matrix(1,0,0,1,1065.3346456692911,-715) translate(0 51.650390625)"/><use xlink:href="#w" transform="matrix(1,0,0,1,1065.3346456692911,-715) translate(19.999999999999996 51.650390625)"/><use xlink:href="#x" transform="matrix(1,0,0,1,1065.3346456692911,-715) translate(38.06640624999999 51.650390625)"/><use xlink:href="#y" transform="matrix(1,0,0,1,1065.3346456692911,-715) translate(58.066406249999986 51.650390625)"/><use xlink:href="#z" transform="matrix(1,0,0,1,1065.3346456692911,-715) translate(76.75781249999999 51.650390625)"/><use xlink:href="#A" transform="matrix(1,0,0,1,1065.3346456692911,-715) translate(96.34765624999999 51.650390625)"/><use xlink:href="#B" transform="matrix(1,0,0,1,1065.3346456692911,-715) translate(114.31640624999999 51.650390625)"/><path d="M721.42-820c22.1 0 40 22.4 40 50s-17.9 50-40 50h-120c-22.1 0-40-22.4-40-50s17.9-50 40-50z" stroke="#0d47a1" stroke-width="3" fill="#fff"/><g><use xlink:href="#C" transform="matrix(1,0,0,1,566.4173228346456,-814.9999999999999) translate(35.85937500000001 52.44140625)"/><use xlink:href="#D" transform="matrix(1,0,0,1,566.4173228346456,-814.9999999999999) translate(54.6484375 52.44140625)"/><use xlink:href="#E" transform="matrix(1,0,0,1,566.4173228346456,-814.9999999999999) translate(78.22265625 52.44140625)"/><use xlink:href="#F" transform="matrix(1,0,0,1,566.4173228346456,-814.9999999999999) translate(97.7734375 52.44140625)"/><use xlink:href="#i" transform="matrix(1,0,0,1,566.4173228346456,-814.9999999999999) translate(117.83203125 52.44140625)"/><use xlink:href="#G" transform="matrix(1,0,0,1,566.4173228346456,-814.9999999999999) translate(136.875 52.44140625)"/></g><path d="M300-914a6 6 0 0 1 6-6h188a6 6 0 0 1 6 6v88a6 6 0 0 1-6 6H306a6 6 0 0 1-6-6z" stroke="#0d47a1" stroke-width="3" fill="#1565c0"/><g><use xlink:href="#a" transform="matrix(1,0,0,1,312,-908) translate(23.595703125000014 45.25390625)"/><use xlink:href="#b" transform="matrix(1,0,0,1,312,-908) translate(41.134765625000014 45.25390625)"/><use xlink:href="#c" transform="matrix(1,0,0,1,312,-908) translate(56.97460937500001 45.25390625)"/><use xlink:href="#c" transform="matrix(1,0,0,1,312,-908) translate(75.490234375 45.25390625)"/><use xlink:href="#d" transform="matrix(1,0,0,1,312,-908) translate(94.005859375 45.25390625)"/><use xlink:href="#e" transform="matrix(1,0,0,1,312,-908) translate(111.583984375 45.25390625)"/><use xlink:href="#H" transform="matrix(1,0,0,1,312,-908) translate(132.404296875 45.25390625)"/></g><path d="M360-1080c22.1 0 40 22.4 40 50s-17.9 50-40 50H240c-22.1 0-40-22.4-40-50s17.9-50 40-50z" stroke="#0d47a1" stroke-width="3" fill="#fff"/><g><use xlink:href="#g" transform="matrix(1,0,0,1,205,-1075) translate(61.46484375000001 52.44140625)"/><use xlink:href="#h" transform="matrix(1,0,0,1,205,-1075) translate(73.84765625 52.44140625)"/><use xlink:href="#i" transform="matrix(1,0,0,1,205,-1075) translate(91.30859375 52.44140625)"/><use xlink:href="#j" transform="matrix(1,0,0,1,205,-1075) translate(110.3515625 52.44140625)"/></g><path d="M360-1240c22.1 0 40 22.4 40 50s-17.9 50-40 50H240c-22.1 0-40-22.4-40-50s17.9-50 40-50z" stroke="#0d47a1" stroke-width="3" fill="#fff"/><g><use xlink:href="#k" transform="matrix(1,0,0,1,205,-1235) translate(33.08593750000001 52.44140625)"/><use xlink:href="#l" transform="matrix(1,0,0,1,205,-1235) translate(52.98828125 52.44140625)"/><use xlink:href="#m" transform="matrix(1,0,0,1,205,-1235) translate(68.45703125 52.44140625)"/><use xlink:href="#m" transform="matrix(1,0,0,1,205,-1235) translate(85.72265625 52.44140625)"/><use xlink:href="#n" transform="matrix(1,0,0,1,205,-1235) translate(102.98828125 52.44140625)"/><use xlink:href="#o" transform="matrix(1,0,0,1,205,-1235) translate(120.60546875 52.44140625)"/><use xlink:href="#p" transform="matrix(1,0,0,1,205,-1235) translate(144.53125 52.44140625)"/></g><path d="M300-1394a6 6 0 0 1 6-6h188a6 6 0 0 1 6 6v88a6 6 0 0 1-6 6H306a6 6 0 0 1-6-6z" stroke="#0d47a1" stroke-width="3" fill="#1565c0"/><g><use xlink:href="#q" transform="matrix(1,0,0,1,312,-1388) translate(30.500000000000007 45.25390625)"/><use xlink:href="#r" transform="matrix(1,0,0,1,312,-1388) translate(50.40234375 45.25390625)"/><use xlink:href="#s" transform="matrix(1,0,0,1,312,-1388) translate(65.87109375 45.25390625)"/><use xlink:href="#t" transform="matrix(1,0,0,1,312,-1388) translate(83.13671875 45.25390625)"/><use xlink:href="#u" transform="matrix(1,0,0,1,312,-1388) translate(101.92578125 45.25390625)"/><use xlink:href="#H" transform="matrix(1,0,0,1,312,-1388) translate(125.5 45.25390625)"/></g><path d="M520-1394a6 6 0 0 1 6-6h268a6 6 0 0 1 6 6v88a6 6 0 0 1-6 6H526a6 6 0 0 1-6-6z" fill="#fff" fill-opacity="0"/><path d="M548-1400h-22a6 6 0 0 0-6 6v88a6 6 0 0 0 6 6h22" stroke="#dfe3e8" stroke-width="3" fill="none"/><g><use xlink:href="#v" transform="matrix(1,0,0,1,542.5,-1395) translate(0 51.650390625)"/><use xlink:href="#w" transform="matrix(1,0,0,1,542.5,-1395) translate(19.999999999999996 51.650390625)"/><use xlink:href="#x" transform="matrix(1,0,0,1,542.5,-1395) translate(38.06640624999999 51.650390625)"/><use xlink:href="#y" transform="matrix(1,0,0,1,542.5,-1395) translate(58.066406249999986 51.650390625)"/><use xlink:href="#z" transform="matrix(1,0,0,1,542.5,-1395) translate(76.75781249999999 51.650390625)"/><use xlink:href="#A" transform="matrix(1,0,0,1,542.5,-1395) translate(96.34765624999999 51.650390625)"/><use xlink:href="#B" transform="matrix(1,0,0,1,542.5,-1395) translate(114.31640624999999 51.650390625)"/></g><path d="M721.42-1500c22.1 0 40 22.4 40 50s-17.9 50-40 50h-120c-22.1 0-40-22.4-40-50s17.9-50 40-50z" stroke="#0d47a1" stroke-width="3" fill="#fff"/><g><use xlink:href="#C" transform="matrix(1,0,0,1,566.4173228346456,-1495) translate(35.85937500000001 52.44140625)"/><use xlink:href="#D" transform="matrix(1,0,0,1,566.4173228346456,-1495) translate(54.6484375 52.44140625)"/><use xlink:href="#E" transform="matrix(1,0,0,1,566.4173228346456,-1495) translate(78.22265625 52.44140625)"/><use xlink:href="#F" transform="matrix(1,0,0,1,566.4173228346456,-1495) translate(97.7734375 52.44140625)"/><use xlink:href="#i" transform="matrix(1,0,0,1,566.4173228346456,-1495) translate(117.83203125 52.44140625)"/><use xlink:href="#G" transform="matrix(1,0,0,1,566.4173228346456,-1495) translate(136.875 52.44140625)"/></g><path d="M463-1697.45h393.84M463.03-1697.45H462M856.82-1697.45h1.02" stroke="#b2b2b2" stroke-width="2" fill="none"/><path d="M420-1760h480v80H420z" fill="none"/><g><use xlink:href="#I" transform="matrix(1,0,0,1,425,-1755) translate(84.33463541666677 45.34505208333333)"/><use xlink:href="#J" transform="matrix(1,0,0,1,425,-1755) translate(103.59678819444454 45.34505208333333)"/><use xlink:href="#K" transform="matrix(1,0,0,1,425,-1755) translate(132.42925347222229 45.34505208333333)"/><use xlink:href="#L" transform="matrix(1,0,0,1,425,-1755) translate(162.84157986111117 45.34505208333333)"/><use xlink:href="#M" transform="matrix(1,0,0,1,425,-1755) translate(186.90407986111114 45.34505208333333)"/><use xlink:href="#N" transform="matrix(1,0,0,1,425,-1755) translate(225.79296875000003 45.34505208333333)"/><use xlink:href="#O" transform="matrix(1,0,0,1,425,-1755) translate(253.07595486111111 45.34505208333333)"/><use xlink:href="#P" transform="matrix(1,0,0,1,425,-1755) translate(277.71571180555554 45.34505208333333)"/><use xlink:href="#P" transform="matrix(1,0,0,1,425,-1755) translate(306.51779513888886 45.34505208333333)"/><use xlink:href="#Q" transform="matrix(1,0,0,1,425,-1755) translate(335.3198784722222 45.34505208333333)"/><use xlink:href="#R" transform="matrix(1,0,0,1,425,-1755) translate(362.6636284722222 45.34505208333333)"/></g><path d="M822.83-1594a6 6 0 0 1 6-6h188a6 6 0 0 1 6 6v88a6 6 0 0 1-6 6h-188a6 6 0 0 1-6-6z" stroke="#0d47a1" stroke-width="3" fill="#1565c0"/><g><use xlink:href="#a" transform="matrix(1,0,0,1,834.8346456692911,-1588) translate(23.595703125000014 45.25390625)"/><use xlink:href="#b" transform="matrix(1,0,0,1,834.8346456692911,-1588) translate(41.134765625000014 45.25390625)"/><use xlink:href="#c" transform="matrix(1,0,0,1,834.8346456692911,-1588) translate(56.97460937500001 45.25390625)"/><use xlink:href="#c" transform="matrix(1,0,0,1,834.8346456692911,-1588) translate(75.490234375 45.25390625)"/><use xlink:href="#d" transform="matrix(1,0,0,1,834.8346456692911,-1588) translate(94.005859375 45.25390625)"/><use xlink:href="#e" transform="matrix(1,0,0,1,834.8346456692911,-1588) translate(111.583984375 45.25390625)"/><use xlink:href="#f" transform="matrix(1,0,0,1,834.8346456692911,-1588) translate(132.404296875 45.25390625)"/></g><defs><path fill="#fff" d="M69-720h761c3 479-214 695-654 744l-14-73c377-45 564-206 585-596H69v-75" id="S"/><use transform="matrix(0.019531249999999997,0,0,0.019531249999999997,0,0)" xlink:href="#S" id="a"/><path fill="#fff" d="M441-43c42-2 45-3 45-45v-284C368-251 241-152 105-74l-34-59c144-81 276-187 397-317H70v-65h416v-129h73v129h181v65H559v363C555 14 548 20 447 24c-43 0-89-3-138-9l5-66c53 5 96 8 127 8" id="T"/><use transform="matrix(0.019531249999999997,0,0,0.019531249999999997,0,0)" xlink:href="#T" id="b"/><path fill="#fff" d="M69-660v-70h809v70c-43 151-150 273-285 336l-41-63c125-62 205-153 242-273H69zm58 628c197-89 241-232 244-531h78c-3 336-61 494-285 597" id="U"/><use transform="matrix(0.019531249999999997,0,0,0.019531249999999997,0,0)" xlink:href="#U" id="c"/><path fill="#fff" d="M243-34c309-18 506-153 511-458v-97H145v251H68v-320h334v-164h79v164h351v166C829-147 599 21 252 38" id="V"/><use transform="matrix(0.019531249999999997,0,0,0.019531249999999997,0,0)" xlink:href="#V" id="d"/><path fill="#fff" d="M147-785v299c189 45 379 104 572 176l-24 74c-194-73-377-130-548-171V48H65v-833h82" id="W"/><use transform="matrix(0.019531249999999997,0,0,0.019531249999999997,0,0)" xlink:href="#W" id="e"/><path fill="#fff" d="M914-433v67H653v343h299v71H212v-71h359v-343H309C256-233 186-111 99-1L39-48c135-173 226-372 271-597H82v-70h241c7-43 12-87 15-130l81 4c-2 30-7 72-16 126h539v70H391c-15 75-34 146-56 212h579" id="X"/><use transform="matrix(0.019531249999999997,0,0,0.019531249999999997,0,0)" xlink:href="#X" id="f"/><path fill="#0d47a1" d="M464-232c2-138-128-149-279-144v-63c81-80 165-158 245-240H87v-69h449v69c-81 81-165 160-245 243 158-8 255 56 255 204C546-72 444 11 280 10 211 10 149-3 94-29v-79c57 33 119 49 186 50 118 0 184-58 184-174" id="Y"/><use transform="matrix(0.019531249999999997,0,0,0.019531249999999997,0,0)" xlink:href="#Y" id="g"/><path fill="#0d47a1" d="M71-367c110-102 191-257 213-439l74 4c-2 23-7 55-15 95h483C831-208 617-4 150 38l-11-72c240-23 407-82 509-232-113-59-227-113-342-163l36-69c111 49 226 103 344 163 35-79 54-179 57-300H325c-39 123-106 229-201 318" id="Z"/><use transform="matrix(0.019531249999999997,0,0,0.019531249999999997,0,0)" xlink:href="#Z" id="h"/><path fill="#0d47a1" d="M71-330v-78h834v78H71" id="aa"/><use transform="matrix(0.019531249999999997,0,0,0.019531249999999997,0,0)" xlink:href="#aa" id="i"/><path fill="#0d47a1" d="M70-677l36-69c109 55 214 113 314 174l-40 69c-94-59-197-117-310-174zM92-67c397-38 624-223 694-586l75 16C792-244 540-28 104 10" id="ab"/><use transform="matrix(0.019531249999999997,0,0,0.019531249999999997,0,0)" xlink:href="#ab" id="j"/><path fill="#0d47a1" d="M613-755l61-32c33 55 65 111 96 167l-62 30c-27-51-58-106-95-165zm143-39l63-33c40 66 73 123 98 172l-63 30c-32-58-65-114-98-169zm-53 290l77-24C841-370 897-191 948 8l-83 18c-50-201-104-378-162-530zM382-713C353-451 275-207 147 20L71-15c123-219 199-454 229-703" id="ac"/><use transform="matrix(0.019531249999999997,0,0,0.019531249999999997,0,0)" xlink:href="#ac" id="k"/><path fill="#0d47a1" d="M190-34c341-58 440-171 457-552l75 4C716-188 563-8 206 35zM70-543l72-16c21 72 46 163 74 272l-73 17c-23-95-48-186-73-273zm225-29l73-17c27 95 52 189 74 284l-74 16c-23-98-47-192-73-283" id="ad"/><use transform="matrix(0.019531249999999997,0,0,0.019531249999999997,0,0)" xlink:href="#ad" id="l"/><path fill="#0d47a1" d="M733-625H330c-40 118-108 222-204 311l-55-50c127-119 200-266 220-439l77 5c-3 31-9 65-18 102h466c1 488-214 682-675 724l-12-72c398-43 584-176 604-581" id="ae"/><use transform="matrix(0.019531249999999997,0,0,0.019531249999999997,0,0)" xlink:href="#ae" id="m"/><path fill="#0d47a1" d="M837-7H65v-723h772V-7zM147-80h608v-577H147v577" id="af"/><use transform="matrix(0.019531249999999997,0,0,0.019531249999999997,0,0)" xlink:href="#af" id="n"/><path fill="#0d47a1" d="M160-660v-74h634v74c-48 117-122 229-221 334 99 91 200 192 305 301l-55 54C723-76 622-177 520-272 405-161 267-65 106 16L71-49c273-140 515-346 637-611H160" id="ag"/><use transform="matrix(0.019531249999999997,0,0,0.019531249999999997,0,0)" xlink:href="#ag" id="o"/><path fill="#0d47a1" d="M459-540c0-99-57-148-157-148-65 0-133 20-202 59v-80c63-33 134-49 212-49 141-2 231 75 231 212 0 67-24 135-73 203-48 69-142 158-272 274h348V0H85v-69c145-120 244-214 296-281s78-131 78-190" id="ah"/><use transform="matrix(0.019531249999999997,0,0,0.019531249999999997,0,0)" xlink:href="#ah" id="p"/><path fill="#fff" d="M613-755l61-32c33 55 65 111 96 167l-62 30c-27-51-58-106-95-165zm143-39l63-33c40 66 73 123 98 172l-63 30c-32-58-65-114-98-169zm-53 290l77-24C841-370 897-191 948 8l-83 18c-50-201-104-378-162-530zM382-713C353-451 275-207 147 20L71-15c123-219 199-454 229-703" id="ai"/><use transform="matrix(0.019531249999999997,0,0,0.019531249999999997,0,0)" xlink:href="#ai" id="q"/><path fill="#fff" d="M190-34c341-58 440-171 457-552l75 4C716-188 563-8 206 35zM70-543l72-16c21 72 46 163 74 272l-73 17c-23-95-48-186-73-273zm225-29l73-17c27 95 52 189 74 284l-74 16c-23-98-47-192-73-283" id="aj"/><use transform="matrix(0.019531249999999997,0,0,0.019531249999999997,0,0)" xlink:href="#aj" id="r"/><path fill="#fff" d="M733-625H330c-40 118-108 222-204 311l-55-50c127-119 200-266 220-439l77 5c-3 31-9 65-18 102h466c1 488-214 682-675 724l-12-72c398-43 584-176 604-581" id="ak"/><use transform="matrix(0.019531249999999997,0,0,0.019531249999999997,0,0)" xlink:href="#ak" id="s"/><path fill="#fff" d="M71-384c295-40 609-200 769-380l51 55c-79 87-182 164-307 231V46h-83v-482C365-373 226-331 84-310" id="al"/><use transform="matrix(0.019531249999999997,0,0,0.019531249999999997,0,0)" xlink:href="#al" id="t"/><path fill="#fff" d="M70-677l36-69c109 55 214 113 314 174l-40 69c-94-59-197-117-310-174zM92-67c397-38 624-223 694-586l75 16C792-244 540-28 104 10" id="am"/><use transform="matrix(0.019531249999999997,0,0,0.019531249999999997,0,0)" xlink:href="#am" id="u"/><path fill="#6f7681" d="M224-422V89h-77v-443c-33 38-66 70-100 95l-24-79c101-74 180-163 238-267l62 37c-27 50-60 99-99 146zm441 311c64-36 117-80 159-133H503c43 49 97 94 162 133zM65-556l-32-66c96-59 173-131 230-215l62 36c-66 98-153 180-260 245zm421-61c14 14 69 67 83 81 104-81 195-160 274-237l57 48C787-616 669-518 548-431l323-13c-33-57-58-98-74-123l68-33c55 89 102 171 141 246l-68 29c-8-16-18-35-31-56l-322 12c-13 22-28 43-46 64h373c-1 20 3 45-2 61-44 63-104 119-181 169 78 39 163 69 255 92l-22 65C851 53 750 14 660-36 555 18 433 57 296 82l-25-64C394-2 502-33 595-75c-61-40-113-84-156-132-40 34-80 62-121 85l-38-59c76-39 166-116 215-184l-194 9-2-66 122-4c28-20 57-41 88-63-76-76-138-136-185-181l52-53c12 11 32 30 59 56 74-60 139-118 194-174l59 43c-56 57-123 117-202 181" id="an"/><use transform="matrix(0.019531249999999997,0,0,0.019531249999999997,0,0)" xlink:href="#an" id="v"/><path fill="#6f7681" d="M529-399c-160 0-311 64-429 132l-29-57c181-120 366-237 545-359H158v-67h593l5 70-402 247 1 2c70-22 136-33 199-33 202 0 303 72 303 216C857-61 720 33 446 33c-59 0-126-4-201-13l1-71c67 8 132 12 195 12 221 0 331-67 331-202 0-126-98-158-243-158" id="ao"/><use transform="matrix(0.019531249999999997,0,0,0.019531249999999997,0,0)" xlink:href="#ao" id="w"/><path fill="#6f7681" d="M377-162v82h-77v-435h424v353H377zm0-63h270v-228H377v228zM797-3c60-3 60 0 60-60v-574H167V74H87v-779h298c30-56 54-106 72-149l80 13c-19 45-41 91-66 136h466v642c-5 119-4 126-121 130-18 0-73-2-165-6l-2-69c68 3 117 5 148 5" id="ap"/><use transform="matrix(0.019531249999999997,0,0,0.019531249999999997,0,0)" xlink:href="#ap" id="x"/><path fill="#6f7681" d="M512-698c-6-39-10-79-12-121l74-4c3 39 8 80 15 123 87-3 177-7 270-13l3 66c-119 5-207 9-262 11 9 43 21 86 37 129 111-4 193-7 247-10l2 64c-49 3-124 6-224 11 25 56 59 117 103 182l-69 48c-95-45-184-67-268-67-139 0-208 38-208 115 0 49 23 86 69 110C389-5 606-13 751-39l10 67c-84 13-167 20-248 20-250 0-375-71-375-212 0-52 24-94 70-128 98-67 313-66 442-7-18-42-45-88-67-141-184 5-355 8-512 8v-65c171 0 334-2 488-7-13-39-25-82-36-130-165 5-304 7-415 7v-65c132 0 267-2 404-6" id="aq"/><use transform="matrix(0.019531249999999997,0,0,0.019531249999999997,0,0)" xlink:href="#aq" id="y"/><path fill="#6f7681" d="M543-744c218 0 392 160 392 375C935-150 814 8 616 24l-16-72c164-16 260-138 260-321 0-173-135-303-306-304-24 215-52 406-125 543C389-54 357-3 266-3 150-3 69-170 69-310c0-260 207-434 474-434zm-67 75c-189 18-333 157-332 359 0 64 14 119 41 164 40 59 64 86 119 54 119-122 141-351 172-577" id="ar"/><use transform="matrix(0.019531249999999997,0,0,0.019531249999999997,0,0)" xlink:href="#ar" id="z"/><path fill="#6f7681" d="M129-126c3-111 84-167 218-163 45 0 94 11 147 32v-173H105v-69h389v-136H71v-68h423v-116h76v116h279v68H570v136h245v69H570v208c73 39 159 101 257 186l-49 54c-79-69-148-122-209-160C559-2 496 50 347 51c-123 2-221-61-218-177zM347-17c119-1 147-44 147-166-51-25-98-37-139-37-98 0-147 31-148 94 1 72 62 110 140 109" id="as"/><use transform="matrix(0.019531249999999997,0,0,0.019531249999999997,0,0)" xlink:href="#as" id="A"/><use transform="matrix(0.019531249999999997,0,0,0.019531249999999997,0,0)" xlink:href="#as" id="B"/><path fill="#0d47a1" d="M71-384c295-40 609-200 769-380l51 55c-79 87-182 164-307 231V46h-83v-482C365-373 226-331 84-310" id="at"/><use transform="matrix(0.019531249999999997,0,0,0.019531249999999997,0,0)" xlink:href="#at" id="C"/><use transform="matrix(0.019531249999999997,0,0,0.019531249999999997,0,0)" xlink:href="#ab" id="D"/><path fill="#0d47a1" d="M156-737h690v73H457v234h474v72H457c11 120-39 289 81 304 96 12 223 3 322-5l3 72c-116 8-265 22-371 2C389-5 371-88 371-222v-136H71v-72h300v-234H156v-73" id="au"/><use transform="matrix(0.019531249999999997,0,0,0.019531249999999997,0,0)" xlink:href="#au" id="E"/><path fill="#0d47a1" d="M433-39c52-2 49-4 49-59v-499H96v-72h386v-147h82v147h366v72H564v508C560 18 553 30 448 34c-50 0-103-5-161-14l8-70c45 7 91 11 138 11zM243-457l73 27C263-309 204-192 141-77l-70-33c64-116 121-232 172-347zm468 27l70-31c63 119 121 239 175 361l-73 29c-59-132-116-252-172-359" id="av"/><use transform="matrix(0.019531249999999997,0,0,0.019531249999999997,0,0)" xlink:href="#av" id="F"/><use transform="matrix(0.019531249999999997,0,0,0.019531249999999997,0,0)" xlink:href="#ae" id="G"/><path fill="#fff" d="M345-43h472v-302H345v302zm553-370V79h-81V24H345v55h-82v-372c-57 78-118 142-184 193l-45-61c154-119 263-278 327-477H69v-71h312c11-47 20-92 27-137l80 5c-5 38-14 82-25 132h492v71H443c-26 83-57 158-94 225h549" id="aw"/><use transform="matrix(0.019531249999999997,0,0,0.019531249999999997,0,0)" xlink:href="#aw" id="H"/><path fill="#6f7681" d="M464-232c2-138-128-149-279-144v-63c81-80 165-158 245-240H87v-69h449v69c-81 81-165 160-245 243 158-8 255 56 255 204C546-72 444 11 280 10 211 10 149-3 94-29v-79c57 33 119 49 186 50 118 0 184-58 184-174" id="ax"/><use transform="matrix(0.03038194444444443,0,0,0.03038194444444443,0,0)" xlink:href="#ax" id="I"/><path fill="#6f7681" d="M160-660v-74h634v74c-48 117-122 229-221 334 99 91 200 192 305 301l-55 54C723-76 622-177 520-272 405-161 267-65 106 16L71-49c273-140 515-346 637-611H160" id="ay"/><use transform="matrix(0.03038194444444443,0,0,0.03038194444444443,0,0)" xlink:href="#ay" id="J"/><path fill="#6f7681" d="M187-673v-71h628v71H187zM71-468h860v72H580C575-127 464-19 240 44l-23-71c193-59 275-136 281-369H71v-72" id="az"/><use transform="matrix(0.03038194444444443,0,0,0.03038194444444443,0,0)" xlink:href="#az" id="K"/><path fill="#6f7681" d="M190-34c341-58 440-171 457-552l75 4C716-188 563-8 206 35zM70-543l72-16c21 72 46 163 74 272l-73 17c-23-95-48-186-73-273zm225-29l73-17c27 95 52 189 74 284l-74 16c-23-98-47-192-73-283" id="aA"/><use transform="matrix(0.03038194444444443,0,0,0.03038194444444443,0,0)" xlink:href="#aA" id="L"/><path fill="#6f7681" d="M978-738c0 76-67 144-152 131C797-196 580-11 175 34l-13-73c377-45 563-204 584-596H68v-75h650c-16-87 50-158 128-158 70 0 132 60 132 130zm-132 74c39 1 75-35 74-74 1-39-35-74-74-73-39-1-74 34-73 73-1 39 34 75 73 74" id="aB"/><use transform="matrix(0.03038194444444443,0,0,0.03038194444444443,0,0)" xlink:href="#aB" id="M"/><path fill="#6f7681" d="M69-720h761c3 479-214 695-654 744l-14-73c377-45 564-206 585-596H69v-75" id="aC"/><use transform="matrix(0.03038194444444443,0,0,0.03038194444444443,0,0)" xlink:href="#aC" id="N"/><path fill="#6f7681" d="M441-43c42-2 45-3 45-45v-284C368-251 241-152 105-74l-34-59c144-81 276-187 397-317H70v-65h416v-129h73v129h181v65H559v363C555 14 548 20 447 24c-43 0-89-3-138-9l5-66c53 5 96 8 127 8" id="aD"/><use transform="matrix(0.03038194444444443,0,0,0.03038194444444443,0,0)" xlink:href="#aD" id="O"/><path fill="#6f7681" d="M69-660v-70h809v70c-43 151-150 273-285 336l-41-63c125-62 205-153 242-273H69zm58 628c197-89 241-232 244-531h78c-3 336-61 494-285 597" id="aE"/><use transform="matrix(0.03038194444444443,0,0,0.03038194444444443,0,0)" xlink:href="#aE" id="P"/><path fill="#6f7681" d="M243-34c309-18 506-153 511-458v-97H145v251H68v-320h334v-164h79v164h351v166C829-147 599 21 252 38" id="aF"/><use transform="matrix(0.03038194444444443,0,0,0.03038194444444443,0,0)" xlink:href="#aF" id="Q"/><path fill="#6f7681" d="M147-785v299c189 45 379 104 572 176l-24 74c-194-73-377-130-548-171V48H65v-833h82" id="aG"/><use transform="matrix(0.03038194444444443,0,0,0.03038194444444443,0,0)" xlink:href="#aG" id="R"/></defs></g></svg>