<svg xmlns="http://www.w3.org/2000/svg" xmlns:xlink="http://www.w3.org/1999/xlink" xmlns:lucid="lucid" width="1323" height="1616"><g transform="translate(0 0)" lucid:page-tab-id="0_0"><path d="M300 1405a6 6 0 0 1 6-6h188a6 6 0 0 1 6 6v88a6 6 0 0 1-6 6H306a6 6 0 0 1-6-6z" stroke="#0d47a1" stroke-width="3" fill="#1565c0"/><use xlink:href="#a" transform="matrix(1,0,0,1,312,1410.9999999999998) translate(30.871093750000007 45.25390625)"/><use xlink:href="#b" transform="matrix(1,0,0,1,312,1410.9999999999998) translate(48.41015625 45.25390625)"/><use xlink:href="#c" transform="matrix(1,0,0,1,312,1410.9999999999998) translate(64.25 45.25390625)"/><use xlink:href="#d" transform="matrix(1,0,0,1,312,1410.9999999999998) translate(82.765625 45.25390625)"/><use xlink:href="#e" transform="matrix(1,0,0,1,312,1410.9999999999998) translate(101.5546875 45.25390625)"/><use xlink:href="#f" transform="matrix(1,0,0,1,312,1410.9999999999998) translate(125.12890625 45.25390625)"/><path d="M520 1405a6 6 0 0 1 6-6h268a6 6 0 0 1 6 6v88a6 6 0 0 1-6 6H526a6 6 0 0 1-6-6z" fill="#fff" fill-opacity="0"/><path d="M548 1399h-22a6 6 0 0 0-6 6v88a6 6 0 0 0 6 6h22" stroke="#dfe3e8" stroke-width="3" fill="none"/><use xlink:href="#g" transform="matrix(1,0,0,1,542.5,1403.9999999999998) translate(0 36.796875)"/><use xlink:href="#h" transform="matrix(1,0,0,1,542.5,1403.9999999999998) translate(19.999999999999996 36.796875)"/><use xlink:href="#i" transform="matrix(1,0,0,1,542.5,1403.9999999999998) translate(39.31640624999999 36.796875)"/><use xlink:href="#j" transform="matrix(1,0,0,1,542.5,1403.9999999999998) translate(59.316406249999986 36.796875)"/><use xlink:href="#k" transform="matrix(1,0,0,1,542.5,1403.9999999999998) translate(87.01171874999997 36.796875)"/><use xlink:href="#l" transform="matrix(1,0,0,1,542.5,1403.9999999999998) translate(0 66.50390625)"/><use xlink:href="#m" transform="matrix(1,0,0,1,542.5,1403.9999999999998) translate(19.999999999999996 66.50390625)"/><use xlink:href="#n" transform="matrix(1,0,0,1,542.5,1403.9999999999998) translate(47.695312499999986 66.50390625)"/><use xlink:href="#o" transform="matrix(1,0,0,1,542.5,1403.9999999999998) translate(65.23437499999999 66.50390625)"/><use xlink:href="#p" transform="matrix(1,0,0,1,542.5,1403.9999999999998) translate(79.90234374999999 66.50390625)"/><use xlink:href="#q" transform="matrix(1,0,0,1,542.5,1403.9999999999998) translate(98.94531249999999 66.50390625)"/><use xlink:href="#r" transform="matrix(1,0,0,1,542.5,1403.9999999999998) translate(115.78124999999999 66.50390625)"/><use xlink:href="#s" transform="matrix(1,0,0,1,542.5,1403.9999999999998) translate(131.24999999999997 66.50390625)"/><use xlink:href="#t" transform="matrix(1,0,0,1,542.5,1403.9999999999998) translate(151.03515624999997 66.50390625)"/><use xlink:href="#u" transform="matrix(1,0,0,1,542.5,1403.9999999999998) translate(178.73046874999997 66.50390625)"/><use xlink:href="#v" transform="matrix(1,0,0,1,542.5,1403.9999999999998) translate(196.54296874999997 66.50390625)"/><use xlink:href="#w" transform="matrix(1,0,0,1,542.5,1403.9999999999998) translate(216.54296874999997 66.50390625)"/><path d="M600 1005a6 6 0 0 1 6-6h188a6 6 0 0 1 6 6v88a6 6 0 0 1-6 6H606a6 6 0 0 1-6-6z" stroke="#0d47a1" stroke-width="3" fill="#1565c0"/><use xlink:href="#a" transform="matrix(1,0,0,1,612,1010.9999999999998) translate(30.871093750000007 45.25390625)"/><use xlink:href="#b" transform="matrix(1,0,0,1,612,1010.9999999999998) translate(48.41015625 45.25390625)"/><use xlink:href="#c" transform="matrix(1,0,0,1,612,1010.9999999999998) translate(64.25 45.25390625)"/><use xlink:href="#d" transform="matrix(1,0,0,1,612,1010.9999999999998) translate(82.765625 45.25390625)"/><use xlink:href="#e" transform="matrix(1,0,0,1,612,1010.9999999999998) translate(101.5546875 45.25390625)"/><use xlink:href="#x" transform="matrix(1,0,0,1,612,1010.9999999999998) translate(125.12890625 45.25390625)"/><path d="M820 1005a6 6 0 0 1 6-6h268a6 6 0 0 1 6 6v88a6 6 0 0 1-6 6H826a6 6 0 0 1-6-6z" fill="#fff" fill-opacity="0"/><path d="M848 999h-22a6 6 0 0 0-6 6v88a6 6 0 0 0 6 6h22" stroke="#dfe3e8" stroke-width="3" fill="none"/><use xlink:href="#g" transform="matrix(1,0,0,1,842.5,1003.9999999999998) translate(0 36.796875)"/><use xlink:href="#h" transform="matrix(1,0,0,1,842.5,1003.9999999999998) translate(19.999999999999996 36.796875)"/><use xlink:href="#i" transform="matrix(1,0,0,1,842.5,1003.9999999999998) translate(39.31640624999999 36.796875)"/><use xlink:href="#j" transform="matrix(1,0,0,1,842.5,1003.9999999999998) translate(59.316406249999986 36.796875)"/><use xlink:href="#y" transform="matrix(1,0,0,1,842.5,1003.9999999999998) translate(87.01171874999997 36.796875)"/><use xlink:href="#z" transform="matrix(1,0,0,1,842.5,1003.9999999999998) translate(0 66.50390625)"/><use xlink:href="#A" transform="matrix(1,0,0,1,842.5,1003.9999999999998) translate(19.999999999999996 66.50390625)"/><use xlink:href="#u" transform="matrix(1,0,0,1,842.5,1003.9999999999998) translate(39.99999999999999 66.50390625)"/><use xlink:href="#v" transform="matrix(1,0,0,1,842.5,1003.9999999999998) translate(57.812499999999986 66.50390625)"/><use xlink:href="#w" transform="matrix(1,0,0,1,842.5,1003.9999999999998) translate(77.81249999999999 66.50390625)"/><path d="M300 601a6 6 0 0 1 6-6h188a6 6 0 0 1 6 6v88a6 6 0 0 1-6 6H306a6 6 0 0 1-6-6z" stroke="#0d47a1" stroke-width="3" fill="#1565c0"/><g><use xlink:href="#a" transform="matrix(1,0,0,1,312,606.9999999999998) translate(30.871093750000007 45.25390625)"/><use xlink:href="#b" transform="matrix(1,0,0,1,312,606.9999999999998) translate(48.41015625 45.25390625)"/><use xlink:href="#c" transform="matrix(1,0,0,1,312,606.9999999999998) translate(64.25 45.25390625)"/><use xlink:href="#d" transform="matrix(1,0,0,1,312,606.9999999999998) translate(82.765625 45.25390625)"/><use xlink:href="#e" transform="matrix(1,0,0,1,312,606.9999999999998) translate(101.5546875 45.25390625)"/><use xlink:href="#f" transform="matrix(1,0,0,1,312,606.9999999999998) translate(125.12890625 45.25390625)"/></g><path d="M520 601a6 6 0 0 1 6-6h268a6 6 0 0 1 6 6v88a6 6 0 0 1-6 6H526a6 6 0 0 1-6-6z" fill="#fff" fill-opacity="0"/><path d="M548 595h-22a6 6 0 0 0-6 6v88a6 6 0 0 0 6 6h22" stroke="#dfe3e8" stroke-width="3" fill="none"/><g><use xlink:href="#g" transform="matrix(1,0,0,1,542.5,599.9999999999998) translate(0 36.796875)"/><use xlink:href="#h" transform="matrix(1,0,0,1,542.5,599.9999999999998) translate(19.999999999999996 36.796875)"/><use xlink:href="#i" transform="matrix(1,0,0,1,542.5,599.9999999999998) translate(39.31640624999999 36.796875)"/><use xlink:href="#j" transform="matrix(1,0,0,1,542.5,599.9999999999998) translate(59.316406249999986 36.796875)"/><use xlink:href="#k" transform="matrix(1,0,0,1,542.5,599.9999999999998) translate(87.01171874999997 36.796875)"/><use xlink:href="#l" transform="matrix(1,0,0,1,542.5,599.9999999999998) translate(0 66.50390625)"/><use xlink:href="#A" transform="matrix(1,0,0,1,542.5,599.9999999999998) translate(19.999999999999996 66.50390625)"/><use xlink:href="#u" transform="matrix(1,0,0,1,542.5,599.9999999999998) translate(39.99999999999999 66.50390625)"/><use xlink:href="#v" transform="matrix(1,0,0,1,542.5,599.9999999999998) translate(57.812499999999986 66.50390625)"/><use xlink:href="#w" transform="matrix(1,0,0,1,542.5,599.9999999999998) translate(77.81249999999999 66.50390625)"/></g><path d="M600 203a6 6 0 0 1 6-6h188a6 6 0 0 1 6 6v88a6 6 0 0 1-6 6H606a6 6 0 0 1-6-6z" stroke="#0d47a1" stroke-width="3" fill="#1565c0"/><g><use xlink:href="#a" transform="matrix(1,0,0,1,612,208.99999999999977) translate(30.871093750000007 45.25390625)"/><use xlink:href="#b" transform="matrix(1,0,0,1,612,208.99999999999977) translate(48.41015625 45.25390625)"/><use xlink:href="#c" transform="matrix(1,0,0,1,612,208.99999999999977) translate(64.25 45.25390625)"/><use xlink:href="#d" transform="matrix(1,0,0,1,612,208.99999999999977) translate(82.765625 45.25390625)"/><use xlink:href="#e" transform="matrix(1,0,0,1,612,208.99999999999977) translate(101.5546875 45.25390625)"/><use xlink:href="#x" transform="matrix(1,0,0,1,612,208.99999999999977) translate(125.12890625 45.25390625)"/></g><path d="M820 203a6 6 0 0 1 6-6h268a6 6 0 0 1 6 6v88a6 6 0 0 1-6 6H826a6 6 0 0 1-6-6z" fill="#fff" fill-opacity="0"/><path d="M848 197h-22a6 6 0 0 0-6 6v88a6 6 0 0 0 6 6h22" stroke="#dfe3e8" stroke-width="3" fill="none"/><g><use xlink:href="#z" transform="matrix(1,0,0,1,842.5,201.99999999999977) translate(0 51.650390625)"/><use xlink:href="#A" transform="matrix(1,0,0,1,842.5,201.99999999999977) translate(19.999999999999996 51.650390625)"/><use xlink:href="#u" transform="matrix(1,0,0,1,842.5,201.99999999999977) translate(39.99999999999999 51.650390625)"/><use xlink:href="#v" transform="matrix(1,0,0,1,842.5,201.99999999999977) translate(57.812499999999986 51.650390625)"/><use xlink:href="#w" transform="matrix(1,0,0,1,842.5,201.99999999999977) translate(77.81249999999999 51.650390625)"/></g><path d="M463 102.55h393.84M463.03 102.55H462M856.82 102.55h1.02" stroke="#b2b2b2" stroke-width="2" fill="none"/><path d="M420 40h480v80H420z" fill="none"/><g><use xlink:href="#B" transform="matrix(1,0,0,1,424.99999999999994,45) translate(95.65190972222231 45.34505208333333)"/><use xlink:href="#C" transform="matrix(1,0,0,1,424.99999999999994,45) translate(114.91406250000009 45.34505208333333)"/><use xlink:href="#D" transform="matrix(1,0,0,1,424.99999999999994,45) translate(143.74652777777783 45.34505208333333)"/><use xlink:href="#E" transform="matrix(1,0,0,1,424.99999999999994,45) translate(174.1588541666667 45.34505208333333)"/><use xlink:href="#F" transform="matrix(1,0,0,1,424.99999999999994,45) translate(198.22135416666669 45.34505208333333)"/><use xlink:href="#G" transform="matrix(1,0,0,1,424.99999999999994,45) translate(237.11024305555557 45.34505208333333)"/><use xlink:href="#H" transform="matrix(1,0,0,1,424.99999999999994,45) translate(264.39322916666663 45.34505208333333)"/><use xlink:href="#I" transform="matrix(1,0,0,1,424.99999999999994,45) translate(289.0329861111111 45.34505208333333)"/><use xlink:href="#J" transform="matrix(1,0,0,1,424.99999999999994,45) translate(317.8350694444444 45.34505208333333)"/><use xlink:href="#K" transform="matrix(1,0,0,1,424.99999999999994,45) translate(347.06249999999994 45.34505208333333)"/></g><path d="M660 1200c22.1 0 40 22.4 40 50s-17.9 50-40 50H540c-22.1 0-40-22.4-40-50s17.9-50 40-50z" stroke="#0d47a1" stroke-width="3" fill="#fff"/><g><use xlink:href="#L" transform="matrix(1,0,0,1,505,1205) translate(50.380859375000014 52.44140625)"/><use xlink:href="#M" transform="matrix(1,0,0,1,505,1205) translate(67.64648437500001 52.44140625)"/><use xlink:href="#N" transform="matrix(1,0,0,1,505,1205) translate(85.263671875 52.44140625)"/><use xlink:href="#O" transform="matrix(1,0,0,1,505,1205) translate(109.189453125 52.44140625)"/></g><path d="M720 1204a6 6 0 0 1 6-6h268a6 6 0 0 1 6 6v88a6 6 0 0 1-6 6H726a6 6 0 0 1-6-6z" fill="#fff" fill-opacity="0"/><path d="M748 1198h-22a6 6 0 0 0-6 6v88a6 6 0 0 0 6 6h22" stroke="#dfe3e8" stroke-width="3" fill="none"/><g><use xlink:href="#g" transform="matrix(1,0,0,1,742.5,1202.9999999999995) translate(0 51.650390625)"/><use xlink:href="#u" transform="matrix(1,0,0,1,742.5,1202.9999999999995) translate(19.999999999999996 51.650390625)"/><use xlink:href="#P" transform="matrix(1,0,0,1,742.5,1202.9999999999995) translate(37.81249999999999 51.650390625)"/><use xlink:href="#j" transform="matrix(1,0,0,1,742.5,1202.9999999999995) translate(57.812499999999986 51.650390625)"/><use xlink:href="#Q" transform="matrix(1,0,0,1,742.5,1202.9999999999995) translate(85.50781249999997 51.650390625)"/><use xlink:href="#R" transform="matrix(1,0,0,1,742.5,1202.9999999999995) translate(113.20312499999997 51.650390625)"/><use xlink:href="#S" transform="matrix(1,0,0,1,742.5,1202.9999999999995) translate(131.34765624999997 51.650390625)"/><use xlink:href="#T" transform="matrix(1,0,0,1,742.5,1202.9999999999995) translate(151.34765624999997 51.650390625)"/><use xlink:href="#U" transform="matrix(1,0,0,1,742.5,1202.9999999999995) translate(170.29296874999997 51.650390625)"/></g><path d="M660 798c22.1 0 40 22.4 40 50s-17.9 50-40 50H540c-22.1 0-40-22.4-40-50s17.9-50 40-50z" stroke="#0d47a1" stroke-width="3" fill="#fff"/><g><use xlink:href="#L" transform="matrix(1,0,0,1,505,802.9999999999998) translate(50.380859375000014 52.44140625)"/><use xlink:href="#M" transform="matrix(1,0,0,1,505,802.9999999999998) translate(67.64648437500001 52.44140625)"/><use xlink:href="#N" transform="matrix(1,0,0,1,505,802.9999999999998) translate(85.263671875 52.44140625)"/><use xlink:href="#O" transform="matrix(1,0,0,1,505,802.9999999999998) translate(109.189453125 52.44140625)"/></g><path d="M720 802a6 6 0 0 1 6-6h268a6 6 0 0 1 6 6v88a6 6 0 0 1-6 6H726a6 6 0 0 1-6-6z" fill="#fff" fill-opacity="0"/><path d="M748 796h-22a6 6 0 0 0-6 6v88a6 6 0 0 0 6 6h22" stroke="#dfe3e8" stroke-width="3" fill="none"/><g><use xlink:href="#g" transform="matrix(1,0,0,1,742.5,800.9999999999998) translate(0 51.650390625)"/><use xlink:href="#u" transform="matrix(1,0,0,1,742.5,800.9999999999998) translate(19.999999999999996 51.650390625)"/><use xlink:href="#P" transform="matrix(1,0,0,1,742.5,800.9999999999998) translate(37.81249999999999 51.650390625)"/><use xlink:href="#j" transform="matrix(1,0,0,1,742.5,800.9999999999998) translate(57.812499999999986 51.650390625)"/><use xlink:href="#V" transform="matrix(1,0,0,1,742.5,800.9999999999998) translate(85.50781249999997 51.650390625)"/><use xlink:href="#R" transform="matrix(1,0,0,1,742.5,800.9999999999998) translate(113.20312499999997 51.650390625)"/><use xlink:href="#S" transform="matrix(1,0,0,1,742.5,800.9999999999998) translate(131.34765624999997 51.650390625)"/><use xlink:href="#T" transform="matrix(1,0,0,1,742.5,800.9999999999998) translate(151.34765624999997 51.650390625)"/><use xlink:href="#U" transform="matrix(1,0,0,1,742.5,800.9999999999998) translate(170.29296874999997 51.650390625)"/></g><path d="M660 401c22.1 0 40 22.4 40 50s-17.9 50-40 50H540c-22.1 0-40-22.4-40-50s17.9-50 40-50z" stroke="#0d47a1" stroke-width="3" fill="#fff"/><g><use xlink:href="#L" transform="matrix(1,0,0,1,505,405.9999999999998) translate(50.380859375000014 52.44140625)"/><use xlink:href="#M" transform="matrix(1,0,0,1,505,405.9999999999998) translate(67.64648437500001 52.44140625)"/><use xlink:href="#N" transform="matrix(1,0,0,1,505,405.9999999999998) translate(85.263671875 52.44140625)"/><use xlink:href="#O" transform="matrix(1,0,0,1,505,405.9999999999998) translate(109.189453125 52.44140625)"/></g><path d="M720 405a6 6 0 0 1 6-6h268a6 6 0 0 1 6 6v88a6 6 0 0 1-6 6H726a6 6 0 0 1-6-6z" fill="#fff" fill-opacity="0"/><path d="M748 399h-22a6 6 0 0 0-6 6v88a6 6 0 0 0 6 6h22" stroke="#dfe3e8" stroke-width="3" fill="none"/><g><use xlink:href="#g" transform="matrix(1,0,0,1,742.5,403.9999999999998) translate(0 51.650390625)"/><use xlink:href="#u" transform="matrix(1,0,0,1,742.5,403.9999999999998) translate(19.999999999999996 51.650390625)"/><use xlink:href="#P" transform="matrix(1,0,0,1,742.5,403.9999999999998) translate(37.81249999999999 51.650390625)"/><use xlink:href="#j" transform="matrix(1,0,0,1,742.5,403.9999999999998) translate(57.812499999999986 51.650390625)"/><use xlink:href="#Q" transform="matrix(1,0,0,1,742.5,403.9999999999998) translate(85.50781249999997 51.650390625)"/><use xlink:href="#R" transform="matrix(1,0,0,1,742.5,403.9999999999998) translate(113.20312499999997 51.650390625)"/><use xlink:href="#S" transform="matrix(1,0,0,1,742.5,403.9999999999998) translate(131.34765624999997 51.650390625)"/><use xlink:href="#T" transform="matrix(1,0,0,1,742.5,403.9999999999998) translate(151.34765624999997 51.650390625)"/><use xlink:href="#U" transform="matrix(1,0,0,1,742.5,403.9999999999998) translate(170.29296874999997 51.650390625)"/></g><defs><path fill="#fff" d="M69-720h761c3 479-214 695-654 744l-14-73c377-45 564-206 585-596H69v-75" id="W"/><use transform="matrix(0.019531249999999997,0,0,0.019531249999999997,0,0)" xlink:href="#W" id="a"/><path fill="#fff" d="M441-43c42-2 45-3 45-45v-284C368-251 241-152 105-74l-34-59c144-81 276-187 397-317H70v-65h416v-129h73v129h181v65H559v363C555 14 548 20 447 24c-43 0-89-3-138-9l5-66c53 5 96 8 127 8" id="X"/><use transform="matrix(0.019531249999999997,0,0,0.019531249999999997,0,0)" xlink:href="#X" id="b"/><path fill="#fff" d="M69-660v-70h809v70c-43 151-150 273-285 336l-41-63c125-62 205-153 242-273H69zm58 628c197-89 241-232 244-531h78c-3 336-61 494-285 597" id="Y"/><use transform="matrix(0.019531249999999997,0,0,0.019531249999999997,0,0)" xlink:href="#Y" id="c"/><path fill="#fff" d="M71-384c295-40 609-200 769-380l51 55c-79 87-182 164-307 231V46h-83v-482C365-373 226-331 84-310" id="Z"/><use transform="matrix(0.019531249999999997,0,0,0.019531249999999997,0,0)" xlink:href="#Z" id="d"/><path fill="#fff" d="M70-677l36-69c109 55 214 113 314 174l-40 69c-94-59-197-117-310-174zM92-67c397-38 624-223 694-586l75 16C792-244 540-28 104 10" id="aa"/><use transform="matrix(0.019531249999999997,0,0,0.019531249999999997,0,0)" xlink:href="#aa" id="e"/><path fill="#fff" d="M914-433v67H653v343h299v71H212v-71h359v-343H309C256-233 186-111 99-1L39-48c135-173 226-372 271-597H82v-70h241c7-43 12-87 15-130l81 4c-2 30-7 72-16 126h539v70H391c-15 75-34 146-56 212h579" id="ab"/><use transform="matrix(0.019531249999999997,0,0,0.019531249999999997,0,0)" xlink:href="#ab" id="f"/><path fill="#6f7681" d="M225-453c8 225-31 402-133 518L33 12c79-95 118-233 118-414v-269h747v218H225zm0-61h596v-95H225v95zm133 389h480v-73H358v73zM786 13c45-4 52 9 52-30v-51H358V85h-79v-474h640v372c-4 102-16 94-123 99-31 0-81-2-150-5l-1-69c82 3 129 5 141 5zM72-737v-65h880v65H72zm766 482v-73H358v73h480" id="ac"/><use transform="matrix(0.019531249999999997,0,0,0.019531249999999997,0,0)" xlink:href="#ac" id="g"/><path fill="#6f7681" d="M314-133c-5-163 211-201 348-139v-291H341v-69h321v-170h75v170h181v69H737v335c50 34 111 87 182 158l-52 52c-49-50-93-90-130-121-5 125-72 187-202 187-129 2-217-59-221-181zM192-776c-67 248-67 566 0 815l-73 10c-68-254-70-582 0-835zM532-20c108 2 136-60 130-173-80-61-273-52-273 60 0 75 48 113 143 113" id="ad"/><use transform="matrix(0.019531249999999997,0,0,0.019531249999999997,0,0)" xlink:href="#ad" id="h"/><path fill="#6f7681" d="M391-305c-69-53-130-97-183-133l43-60c35 25 92 65 169 122 31-88 48-181 51-279H263C218-525 159-411 87-313l-50-57c94-137 161-293 201-468l72 11c-7 37-16 71-25 102h261c0 33-1 65-3 97 50 58 104 113 162 166v-364h80v433c73 59 148 110 227 155l-32 66c-71-41-136-85-195-130V89h-80v-456c-57-49-115-105-173-167C490-240 337-18 100 75L71 9c143-58 255-172 320-314" id="ae"/><use transform="matrix(0.019531249999999997,0,0,0.019531249999999997,0,0)" xlink:href="#ae" id="i"/><path fill="#6f7681" d="M184-540V89h-76v-480c-21 44-42 82-63 113l-34-82c82-131 139-288 170-469l72 5c-15 102-38 197-69 284zm449 361H279v-618h354v618zM353-369v121h208v-121H353zm0-181v120h208v-120H353zm0-61h208v-118H353v118zm354 485v-642h73v642h-73zM842 3c44-2 36-8 36-59v-753h76v755c-6 106 6 125-91 129-23 0-64-2-123-5l-3-72c53 3 88 5 105 5zM234 42c61-60 109-125 142-196l62 32C400-39 351 31 291 86zm243-155l57-38C590-90 638-25 678 44l-60 35c-40-69-87-133-141-192" id="af"/><path fill="#6f7681" d="M270 143C155 37 72-117 72-322s83-361 198-466h78C216-664 150-508 150-322s67 341 198 465h-78" id="ag"/><g id="j"><use transform="matrix(0.019531249999999997,0,0,0.019531249999999997,0,0)" xlink:href="#af"/><use transform="matrix(0.019531249999999997,0,0,0.019531249999999997,19.999999999999996,0)" xlink:href="#ag"/></g><path fill="#6f7681" d="M914-433v67H653v343h299v71H212v-71h359v-343H309C256-233 186-111 99-1L39-48c135-173 226-372 271-597H82v-70h241c7-43 12-87 15-130l81 4c-2 30-7 72-16 126h539v70H391c-15 75-34 146-56 212h579" id="ah"/><path fill="#6f7681" d="M124-788c115 106 197 261 199 466-2 205-84 360-199 465H46C178 19 244-136 244-322S178-664 46-788h78" id="ai"/><g id="k"><use transform="matrix(0.019531249999999997,0,0,0.019531249999999997,0,0)" xlink:href="#ah"/><use transform="matrix(0.019531249999999997,0,0,0.019531249999999997,19.999999999999996,0)" xlink:href="#ai"/></g><path fill="#6f7681" d="M345-43h472v-302H345v302zm553-370V79h-81V24H345v55h-82v-372c-57 78-118 142-184 193l-45-61c154-119 263-278 327-477H69v-71h312c11-47 20-92 27-137l80 5c-5 38-14 82-25 132h492v71H443c-26 83-57 158-94 225h549" id="aj"/><use transform="matrix(0.019531249999999997,0,0,0.019531249999999997,0,0)" xlink:href="#aj" id="l"/><path fill="#6f7681" d="M430 5c55-2 56-3 56-59v-169H51v-71h435v-160H102v-68h384v-151c-111 10-226 15-346 16l-4-70c281 0 530-28 747-85l16 70c-103 26-213 46-331 60v160h354v68H568v160h405v71H568v169c-5 116-7 125-121 129-38 0-96-2-173-5l-3-70c73 3 126 5 159 5" id="ak"/><g id="m"><use transform="matrix(0.019531249999999997,0,0,0.019531249999999997,0,0)" xlink:href="#ak"/><use transform="matrix(0.019531249999999997,0,0,0.019531249999999997,19.999999999999996,0)" xlink:href="#ag"/></g><path fill="#6f7681" d="M69-720h761c3 479-214 695-654 744l-14-73c377-45 564-206 585-596H69v-75" id="al"/><use transform="matrix(0.019531249999999997,0,0,0.019531249999999997,0,0)" xlink:href="#al" id="n"/><path fill="#6f7681" d="M169-24c304-52 424-140 431-473v-264h84v262C679-131 523 2 187 51zM66-310v-451h82v451H66" id="am"/><use transform="matrix(0.019531249999999997,0,0,0.019531249999999997,0,0)" xlink:href="#am" id="o"/><path fill="#6f7681" d="M71-330v-78h834v78H71" id="an"/><use transform="matrix(0.019531249999999997,0,0,0.019531249999999997,0,0)" xlink:href="#an" id="p"/><path fill="#6f7681" d="M148-46c308-20 480-164 570-414l73 29C677-119 437 35 65 31v-792h83v715" id="ao"/><use transform="matrix(0.019531249999999997,0,0,0.019531249999999997,0,0)" xlink:href="#ao" id="q"/><path fill="#6f7681" d="M190-34c341-58 440-171 457-552l75 4C716-188 563-8 206 35zM70-543l72-16c21 72 46 163 74 272l-73 17c-23-95-48-186-73-273zm225-29l73-17c27 95 52 189 74 284l-74 16c-23-98-47-192-73-283" id="ap"/><use transform="matrix(0.019531249999999997,0,0,0.019531249999999997,0,0)" xlink:href="#ap" id="r"/><path fill="#6f7681" d="M703-803l56-30c28 46 57 97 86 153l-35 17C804-189 585-4 134 38l-11-72c396-41 578-173 603-570H326c-39 112-105 212-200 300l-55-49c126-119 199-265 219-440l77 6c-4 40-10 77-19 111h428c-25-46-49-88-73-127zm138-17l58-30c31 51 60 103 88 156l-58 28c-30-56-59-107-88-154" id="aq"/><use transform="matrix(0.019531249999999997,0,0,0.019531249999999997,0,0)" xlink:href="#aq" id="s"/><g id="t"><use transform="matrix(0.019531249999999997,0,0,0.019531249999999997,0,0)" xlink:href="#af"/><use transform="matrix(0.019531249999999997,0,0,0.019531249999999997,19.999999999999996,0)" xlink:href="#ai"/></g><path fill="#6f7681" d="M528-390c-17-54-39-81-100-84-41 0-87 20-139 60s-104 96-156 170l-63-40c84-117 153-235 206-354H76v-65h228c16-38 31-80 46-125l73 17-40 108h444v65H355c-22 52-50 106-74 160 123-94 275-88 321 69 69-16 147-29 234-40l7 67c-93 12-168 25-227 39 9 51 13 118 13 200h-79c0-74-3-134-9-181-163 47-247 107-243 178C304-25 440-32 574-26c76 0 159-7 250-22l7 68C681 48 405 55 304-2c-56-29-84-75-84-138 0-109 103-192 308-250" id="ar"/><use transform="matrix(0.019531249999999997,0,0,0.019531249999999997,0,0)" xlink:href="#ar" id="u"/><path fill="#6f7681" d="M171 28v56H92v-881h840V84h-79V28H171zm213-276h256v-281H384v281zm331 67H309v-415h406v415zM853-41v-688H171v688h682" id="as"/><use transform="matrix(0.019531249999999997,0,0,0.019531249999999997,0,0)" xlink:href="#as" id="v"/><path fill="#6f7681" d="M255-376c0-166 210-254 335-148v-111H71v-64h519v-134h75v134h280v64H665v229c40 128 15 286-63 358C546 4 459 41 338 58l-11-71c169-23 275-71 284-237h-2c-31 46-83 69-155 69-109 3-199-86-199-195zm210-126c-71 0-135 56-133 126-2 70 62 127 133 127 72 0 135-57 133-127 2-70-61-126-133-126" id="at"/><path fill="#6f7681" d="M220 19c52 2 97-44 95-96 2-52-43-97-95-95-52-2-98 43-96 95-2 52 44 98 96 96zm0 62C136 81 62 9 62-76s74-157 158-157c85 0 157 72 157 157S305 81 220 81" id="au"/><g id="w"><use transform="matrix(0.019531249999999997,0,0,0.019531249999999997,0,0)" xlink:href="#at"/><use transform="matrix(0.019531249999999997,0,0,0.019531249999999997,19.843749999999996,0)" xlink:href="#au"/></g><path fill="#fff" d="M345-43h472v-302H345v302zm553-370V79h-81V24H345v55h-82v-372c-57 78-118 142-184 193l-45-61c154-119 263-278 327-477H69v-71h312c11-47 20-92 27-137l80 5c-5 38-14 82-25 132h492v71H443c-26 83-57 158-94 225h549" id="av"/><use transform="matrix(0.019531249999999997,0,0,0.019531249999999997,0,0)" xlink:href="#av" id="x"/><g id="y"><use transform="matrix(0.019531249999999997,0,0,0.019531249999999997,0,0)" xlink:href="#aj"/><use transform="matrix(0.019531249999999997,0,0,0.019531249999999997,19.999999999999996,0)" xlink:href="#ai"/></g><use transform="matrix(0.019531249999999997,0,0,0.019531249999999997,0,0)" xlink:href="#ah" id="z"/><use transform="matrix(0.019531249999999997,0,0,0.019531249999999997,0,0)" xlink:href="#ak" id="A"/><path fill="#6f7681" d="M464-232c2-138-128-149-279-144v-63c81-80 165-158 245-240H87v-69h449v69c-81 81-165 160-245 243 158-8 255 56 255 204C546-72 444 11 280 10 211 10 149-3 94-29v-79c57 33 119 49 186 50 118 0 184-58 184-174" id="aw"/><use transform="matrix(0.03038194444444443,0,0,0.03038194444444443,0,0)" xlink:href="#aw" id="B"/><path fill="#6f7681" d="M160-660v-74h634v74c-48 117-122 229-221 334 99 91 200 192 305 301l-55 54C723-76 622-177 520-272 405-161 267-65 106 16L71-49c273-140 515-346 637-611H160" id="ax"/><use transform="matrix(0.03038194444444443,0,0,0.03038194444444443,0,0)" xlink:href="#ax" id="C"/><path fill="#6f7681" d="M187-673v-71h628v71H187zM71-468h860v72H580C575-127 464-19 240 44l-23-71c193-59 275-136 281-369H71v-72" id="ay"/><use transform="matrix(0.03038194444444443,0,0,0.03038194444444443,0,0)" xlink:href="#ay" id="D"/><use transform="matrix(0.03038194444444443,0,0,0.03038194444444443,0,0)" xlink:href="#ap" id="E"/><path fill="#6f7681" d="M978-738c0 76-67 144-152 131C797-196 580-11 175 34l-13-73c377-45 563-204 584-596H68v-75h650c-16-87 50-158 128-158 70 0 132 60 132 130zm-132 74c39 1 75-35 74-74 1-39-35-74-74-73-39-1-74 34-73 73-1 39 34 75 73 74" id="az"/><use transform="matrix(0.03038194444444443,0,0,0.03038194444444443,0,0)" xlink:href="#az" id="F"/><use transform="matrix(0.03038194444444443,0,0,0.03038194444444443,0,0)" xlink:href="#al" id="G"/><path fill="#6f7681" d="M441-43c42-2 45-3 45-45v-284C368-251 241-152 105-74l-34-59c144-81 276-187 397-317H70v-65h416v-129h73v129h181v65H559v363C555 14 548 20 447 24c-43 0-89-3-138-9l5-66c53 5 96 8 127 8" id="aA"/><use transform="matrix(0.03038194444444443,0,0,0.03038194444444443,0,0)" xlink:href="#aA" id="H"/><path fill="#6f7681" d="M69-660v-70h809v70c-43 151-150 273-285 336l-41-63c125-62 205-153 242-273H69zm58 628c197-89 241-232 244-531h78c-3 336-61 494-285 597" id="aB"/><use transform="matrix(0.03038194444444443,0,0,0.03038194444444443,0,0)" xlink:href="#aB" id="I"/><path fill="#6f7681" d="M71-384c295-40 609-200 769-380l51 55c-79 87-182 164-307 231V46h-83v-482C365-373 226-331 84-310" id="aC"/><use transform="matrix(0.03038194444444443,0,0,0.03038194444444443,0,0)" xlink:href="#aC" id="J"/><path fill="#6f7681" d="M70-677l36-69c109 55 214 113 314 174l-40 69c-94-59-197-117-310-174zM92-67c397-38 624-223 694-586l75 16C792-244 540-28 104 10" id="aD"/><use transform="matrix(0.03038194444444443,0,0,0.03038194444444443,0,0)" xlink:href="#aD" id="K"/><path fill="#0d47a1" d="M733-625H330c-40 118-108 222-204 311l-55-50c127-119 200-266 220-439l77 5c-3 31-9 65-18 102h466c1 488-214 682-675 724l-12-72c398-43 584-176 604-581" id="aE"/><use transform="matrix(0.019531249999999997,0,0,0.019531249999999997,0,0)" xlink:href="#aE" id="L"/><path fill="#0d47a1" d="M837-7H65v-723h772V-7zM147-80h608v-577H147v577" id="aF"/><use transform="matrix(0.019531249999999997,0,0,0.019531249999999997,0,0)" xlink:href="#aF" id="M"/><path fill="#0d47a1" d="M160-660v-74h634v74c-48 117-122 229-221 334 99 91 200 192 305 301l-55 54C723-76 622-177 520-272 405-161 267-65 106 16L71-49c273-140 515-346 637-611H160" id="aG"/><use transform="matrix(0.019531249999999997,0,0,0.019531249999999997,0,0)" xlink:href="#aG" id="N"/><path fill="#0d47a1" d="M325 0c-1-218 3-441-2-656L113-486v-91l212-171h82V0h-82" id="aH"/><path fill="#0d47a1" d="M97 0v-140h97V0H97" id="aI"/><path fill="#0d47a1" d="M473-246c1-105-58-162-163-162-54 0-99 16-134 48h-72l23-388h397v69H201l-15 242c42-23 87-37 139-36 145-1 231 83 230 227C555-75 455 11 280 10 215 10 154-3 97-29v-77c62 32 123 48 183 48 125 1 193-64 193-188" id="aJ"/><g id="O"><use transform="matrix(0.019531249999999997,0,0,0.019531249999999997,0,0)" xlink:href="#aH"/><use transform="matrix(0.019531249999999997,0,0,0.019531249999999997,12.382812499999998,0)" xlink:href="#aI"/><use transform="matrix(0.019531249999999997,0,0,0.019531249999999997,18.046874999999996,0)" xlink:href="#aJ"/></g><path fill="#6f7681" d="M791-10c63-3 61 2 61-60v-588H549c-4 45-13 88-27 130 119 74 222 165 309 274l-63 45c-87-109-178-193-274-252-51 100-137 183-257 250l-44-69c157-84 252-178 275-378H172V63H92v-792h379v-114h80v114h381v659c-5 121-8 124-128 129-11 0-65-2-161-5l-3-69c91 3 141 5 151 5" id="aK"/><use transform="matrix(0.019531249999999997,0,0,0.019531249999999997,0,0)" xlink:href="#aK" id="P"/><g id="Q"><use transform="matrix(0.019531249999999997,0,0,0.019531249999999997,0,0)" xlink:href="#aj"/><use transform="matrix(0.019531249999999997,0,0,0.019531249999999997,19.999999999999996,0)" xlink:href="#ai"/></g><path fill="#6f7681" d="M398-625v-69h435v69H398zM195-776c-65 241-65 575 0 815l-77 10c-68-254-68-582 0-835zm311 428c-71 52-172 187-50 248 99 49 265 34 391 2l11 68C652 29 320 26 320-187c0-86 70-159 131-208" id="aL"/><use transform="matrix(0.019531249999999997,0,0,0.019531249999999997,0,0)" xlink:href="#aL" id="R"/><path fill="#6f7681" d="M671-499c-4 94-3 107-92 110-17 0-57-2-120-5l-4-67c52 3 85 5 100 5 41-2 39 2 39-40v-195H465c-10 175-67 254-179 337l-58-49c102-73 152-135 162-288H74v-67h397v-90h82v90h397v67H671v192zM118-371l-61-46c76-62 134-137 175-226l71 28c-40 95-102 176-185 244zm588-234l61-40c79 73 146 150 201 229l-64 40c-52-77-118-154-198-229zM295-194l54-53c52 48 113 90 183 125 75-37 139-82 192-136H332c-73 52-152 95-237 129l-35-59c141-55 253-126 335-215l62 33c-13 15-29 31-48 49h412v63c-52 65-122 123-210 172C716-43 831-13 956 3l-17 71C796 55 660 15 530-45 400 12 252 52 85 74L68 3c148-17 276-47 383-88-59-33-111-69-156-109" id="aM"/><use transform="matrix(0.019531249999999997,0,0,0.019531249999999997,0,0)" xlink:href="#aM" id="S"/><path fill="#6f7681" d="M139-566h636v76L521-282c30-4 56 3 73 27 26 19 51 177 82 198 46 31 148 17 208 0l14 67c-82 23-213 36-272-8-25-19-44-55-57-106-21-70-23-109-82-120-41 2-35 5-77 34C302-116 254-70 118 39L72-18l593-479c-171-5-351-1-526-2v-67zm108-158l9-68c153 25 304 37 452 37v71c-134 0-288-13-461-40" id="aN"/><use transform="matrix(0.019531249999999997,0,0,0.019531249999999997,0,0)" xlink:href="#aN" id="T"/><path fill="#6f7681" d="M177-120c0-96 107-143 225-143 181 0 251 89 197 227 117-27 175-96 175-207-4-130-95-169-241-169-139 0-283 42-433 127l-29-55c184-117 371-232 553-351H144v-67h618l4 68-402 243c67-15 133-28 193-27 201 0 301 74 301 223C854-42 694 46 467 44c-193 0-290-55-290-164zm221-78c-73-1-136 22-143 78 0 30 18 54 53 71 42 23 132 30 213 24 56-98 25-177-123-173" id="aO"/><g id="U"><use transform="matrix(0.019531249999999997,0,0,0.019531249999999997,0,0)" xlink:href="#aO"/><use transform="matrix(0.019531249999999997,0,0,0.019531249999999997,18.085937499999996,0)" xlink:href="#au"/></g><g id="V"><use transform="matrix(0.019531249999999997,0,0,0.019531249999999997,0,0)" xlink:href="#ah"/><use transform="matrix(0.019531249999999997,0,0,0.019531249999999997,19.999999999999996,0)" xlink:href="#ai"/></g></defs></g></svg>