<svg xmlns="http://www.w3.org/2000/svg" xmlns:xlink="http://www.w3.org/1999/xlink" xmlns:lucid="lucid" width="1322.83" height="1870.87"><g transform="translate(-1258.8346456692911 0)" lucid:page-tab-id="rHrZNjqTL2ry"><path d="M1703 102.55h393.84M1703.03 102.55H1702M2096.82 102.55h1.02" stroke="#b2b2b2" stroke-width="2" fill="none"/><path d="M1660 40h480v80h-480z" fill="none"/><use xlink:href="#a" transform="matrix(1,0,0,1,1665,45) translate(124.69704861111117 45.34505208333333)"/><use xlink:href="#b" transform="matrix(1,0,0,1,1665,45) translate(143.95920138888894 45.34505208333333)"/><use xlink:href="#c" transform="matrix(1,0,0,1,1665,45) translate(172.79166666666669 45.34505208333333)"/><use xlink:href="#d" transform="matrix(1,0,0,1,1665,45) translate(203.20399305555557 45.34505208333333)"/><use xlink:href="#e" transform="matrix(1,0,0,1,1665,45) translate(227.26649305555554 45.34505208333333)"/><use xlink:href="#f" transform="matrix(1,0,0,1,1665,45) translate(266.15538194444446 45.34505208333333)"/><use xlink:href="#g" transform="matrix(1,0,0,1,1665,45) translate(294.9574652777777 45.34505208333333)"/><use xlink:href="#h" transform="matrix(1,0,0,1,1665,45) translate(322.3012152777777 45.34505208333333)"/><path d="M1800 206a6 6 0 0 1 6-6h188a6 6 0 0 1 6 6v88a6 6 0 0 1-6 6h-188a6 6 0 0 1-6-6z" stroke="#0d47a1" stroke-width="3" fill="#1565c0"/><use xlink:href="#i" transform="matrix(1,0,0,1,1812,212) translate(23.595703125000014 45.25390625)"/><use xlink:href="#j" transform="matrix(1,0,0,1,1812,212) translate(41.134765625000014 45.25390625)"/><use xlink:href="#k" transform="matrix(1,0,0,1,1812,212) translate(56.97460937500001 45.25390625)"/><use xlink:href="#k" transform="matrix(1,0,0,1,1812,212) translate(75.490234375 45.25390625)"/><use xlink:href="#l" transform="matrix(1,0,0,1,1812,212) translate(94.005859375 45.25390625)"/><use xlink:href="#m" transform="matrix(1,0,0,1,1812,212) translate(111.583984375 45.25390625)"/><use xlink:href="#n" transform="matrix(1,0,0,1,1812,212) translate(132.404296875 45.25390625)"/><path d="M2220 400c22.1 0 40 22.4 40 50s-17.9 50-40 50h-120c-22.1 0-40-22.4-40-50s17.9-50 40-50z" stroke="#0d47a1" stroke-width="3" fill="#fff"/><use xlink:href="#o" transform="matrix(1,0,0,1,2065,405) translate(17.373046875000014 52.44140625)"/><use xlink:href="#p" transform="matrix(1,0,0,1,2065,405) translate(34.638671875000014 52.44140625)"/><use xlink:href="#q" transform="matrix(1,0,0,1,2065,405) translate(52.25585937500001 52.44140625)"/><use xlink:href="#r" transform="matrix(1,0,0,1,2065,405) translate(71.298828125 52.44140625)"/><use xlink:href="#s" transform="matrix(1,0,0,1,2065,405) translate(96.708984375 52.44140625)"/><use xlink:href="#t" transform="matrix(1,0,0,1,2065,405) translate(116.259765625 52.44140625)"/><use xlink:href="#q" transform="matrix(1,0,0,1,2065,405) translate(136.318359375 52.44140625)"/><use xlink:href="#u" transform="matrix(1,0,0,1,2065,405) translate(155.361328125 52.44140625)"/><path d="M2280 404a6 6 0 0 1 6-6h268a6 6 0 0 1 6 6v88a6 6 0 0 1-6 6h-268a6 6 0 0 1-6-6z" fill="#fff" fill-opacity="0"/><path d="M2308 398h-22a6 6 0 0 0-6 6v88a6 6 0 0 0 6 6h22" stroke="#dfe3e8" stroke-width="3" fill="none"/><use xlink:href="#v" transform="matrix(1,0,0,1,2302.5,403) translate(0 36.796875)"/><use xlink:href="#w" transform="matrix(1,0,0,1,2302.5,403) translate(17.539062499999996 36.796875)"/><use xlink:href="#x" transform="matrix(1,0,0,1,2302.5,403) translate(32.20703124999999 36.796875)"/><use xlink:href="#y" transform="matrix(1,0,0,1,2302.5,403) translate(51.249999999999986 36.796875)"/><use xlink:href="#z" transform="matrix(1,0,0,1,2302.5,403) translate(68.08593749999999 36.796875)"/><use xlink:href="#A" transform="matrix(1,0,0,1,2302.5,403) translate(83.55468749999999 36.796875)"/><use xlink:href="#B" transform="matrix(1,0,0,1,2302.5,403) translate(103.33984374999999 36.796875)"/><use xlink:href="#C" transform="matrix(1,0,0,1,2302.5,403) translate(122.65624999999999 36.796875)"/><use xlink:href="#D" transform="matrix(1,0,0,1,2302.5,403) translate(142.65624999999997 36.796875)"/><use xlink:href="#E" transform="matrix(1,0,0,1,2302.5,403) translate(0 66.50390625)"/><use xlink:href="#x" transform="matrix(1,0,0,1,2302.5,403) translate(17.460937499999996 66.50390625)"/><use xlink:href="#F" transform="matrix(1,0,0,1,2302.5,403) translate(36.50390624999999 66.50390625)"/><use xlink:href="#C" transform="matrix(1,0,0,1,2302.5,403) translate(54.687499999999986 66.50390625)"/><use xlink:href="#B" transform="matrix(1,0,0,1,2302.5,403) translate(74.68749999999999 66.50390625)"/><use xlink:href="#G" transform="matrix(1,0,0,1,2302.5,403) translate(94.00390624999999 66.50390625)"/><use xlink:href="#H" transform="matrix(1,0,0,1,2302.5,403) translate(114.00390624999999 66.50390625)"/><use xlink:href="#I" transform="matrix(1,0,0,1,2302.5,403) translate(132.14843749999997 66.50390625)"/><use xlink:href="#J" transform="matrix(1,0,0,1,2302.5,403) translate(152.67578124999997 66.50390625)"/><path d="M2060 646a6 6 0 0 1 6-6h188a6 6 0 0 1 6 6v88a6 6 0 0 1-6 6h-188a6 6 0 0 1-6-6z" stroke="#0d47a1" stroke-width="3" fill="#1565c0"/><g><use xlink:href="#K" transform="matrix(1,0,0,1,2072,652) translate(20.529296875000014 45.25390625)"/><use xlink:href="#L" transform="matrix(1,0,0,1,2072,652) translate(40.431640625000014 45.25390625)"/><use xlink:href="#M" transform="matrix(1,0,0,1,2072,652) translate(55.90039062500001 45.25390625)"/><use xlink:href="#k" transform="matrix(1,0,0,1,2072,652) translate(73.166015625 45.25390625)"/><use xlink:href="#l" transform="matrix(1,0,0,1,2072,652) translate(91.681640625 45.25390625)"/><use xlink:href="#N" transform="matrix(1,0,0,1,2072,652) translate(109.259765625 45.25390625)"/><use xlink:href="#O" transform="matrix(1,0,0,1,2072,652) translate(135.470703125 45.25390625)"/></g><path d="M1960 840c22.1 0 40 22.4 40 50s-17.9 50-40 50h-120c-22.1 0-40-22.4-40-50s17.9-50 40-50z" stroke="#0d47a1" stroke-width="3" fill="#fff"/><g><use xlink:href="#P" transform="matrix(1,0,0,1,1805,845) translate(30.390625000000014 52.44140625)"/><use xlink:href="#Q" transform="matrix(1,0,0,1,1805,845) translate(50.292968750000014 52.44140625)"/><use xlink:href="#R" transform="matrix(1,0,0,1,1805,845) translate(65.76171875 52.44140625)"/><use xlink:href="#R" transform="matrix(1,0,0,1,1805,845) translate(83.02734375 52.44140625)"/><use xlink:href="#p" transform="matrix(1,0,0,1,1805,845) translate(100.29296875 52.44140625)"/><use xlink:href="#S" transform="matrix(1,0,0,1,1805,845) translate(117.91015625 52.44140625)"/><use xlink:href="#T" transform="matrix(1,0,0,1,1805,845) translate(147.2265625 52.44140625)"/></g><path d="M1540 646a6 6 0 0 1 6-6h188a6 6 0 0 1 6 6v88a6 6 0 0 1-6 6h-188a6 6 0 0 1-6-6z" stroke="#0d47a1" stroke-width="3" fill="#1565c0"/><g><use xlink:href="#K" transform="matrix(1,0,0,1,1552,652) translate(27.804687500000007 45.25390625)"/><use xlink:href="#L" transform="matrix(1,0,0,1,1552,652) translate(47.70703125 45.25390625)"/><use xlink:href="#M" transform="matrix(1,0,0,1,1552,652) translate(63.17578125 45.25390625)"/><use xlink:href="#U" transform="matrix(1,0,0,1,1552,652) translate(80.44140625 45.25390625)"/><use xlink:href="#V" transform="matrix(1,0,0,1,1552,652) translate(99.23046875 45.25390625)"/><use xlink:href="#n" transform="matrix(1,0,0,1,1552,652) translate(128.1953125 45.25390625)"/></g><path d="M1700 400c22.1 0 40 22.4 40 50s-17.9 50-40 50h-120c-22.1 0-40-22.4-40-50s17.9-50 40-50z" stroke="#0d47a1" stroke-width="3" fill="#fff"/><g><use xlink:href="#W" transform="matrix(1,0,0,1,1545,405) translate(35.85937500000001 52.44140625)"/><use xlink:href="#X" transform="matrix(1,0,0,1,1545,405) translate(54.6484375 52.44140625)"/><use xlink:href="#s" transform="matrix(1,0,0,1,1545,405) translate(78.22265625 52.44140625)"/><use xlink:href="#t" transform="matrix(1,0,0,1,1545,405) translate(97.7734375 52.44140625)"/><use xlink:href="#q" transform="matrix(1,0,0,1,1545,405) translate(117.83203125 52.44140625)"/><use xlink:href="#u" transform="matrix(1,0,0,1,1545,405) translate(136.875 52.44140625)"/></g><g fill="none"><path d="M1900 460c66.27 0 120 53.73 120 120 0 66.27-53.73 120-120 120-66.27 0-120-53.73-120-120" stroke="#1565c0" stroke-width="5"/><path d="M1770.4 604l9.6-24 12 24" stroke="#1565c0" stroke-width="5"/><path d="M1900 460c66.27 0 120 53.73 120 120 0 66.27-53.73 120-120 120-66.27 0-120-53.73-120-120z"/></g><path d="M2220 1260c22.1 0 40 22.4 40 50s-17.9 50-40 50h-120c-22.1 0-40-22.4-40-50s17.9-50 40-50z" stroke="#0d47a1" stroke-width="3" fill="#fff"/><g><use xlink:href="#W" transform="matrix(1,0,0,1,2065,1265) translate(35.85937500000001 52.44140625)"/><use xlink:href="#X" transform="matrix(1,0,0,1,2065,1265) translate(54.6484375 52.44140625)"/><use xlink:href="#s" transform="matrix(1,0,0,1,2065,1265) translate(78.22265625 52.44140625)"/><use xlink:href="#t" transform="matrix(1,0,0,1,2065,1265) translate(97.7734375 52.44140625)"/><use xlink:href="#q" transform="matrix(1,0,0,1,2065,1265) translate(117.83203125 52.44140625)"/><use xlink:href="#u" transform="matrix(1,0,0,1,2065,1265) translate(136.875 52.44140625)"/></g><path d="M1800 1066a6 6 0 0 1 6-6h188a6 6 0 0 1 6 6v88a6 6 0 0 1-6 6h-188a6 6 0 0 1-6-6z" stroke="#0d47a1" stroke-width="3" fill="#1565c0"/><g><use xlink:href="#i" transform="matrix(1,0,0,1,1812,1072) translate(23.595703125000014 45.25390625)"/><use xlink:href="#j" transform="matrix(1,0,0,1,1812,1072) translate(41.134765625000014 45.25390625)"/><use xlink:href="#k" transform="matrix(1,0,0,1,1812,1072) translate(56.97460937500001 45.25390625)"/><use xlink:href="#k" transform="matrix(1,0,0,1,1812,1072) translate(75.490234375 45.25390625)"/><use xlink:href="#l" transform="matrix(1,0,0,1,1812,1072) translate(94.005859375 45.25390625)"/><use xlink:href="#m" transform="matrix(1,0,0,1,1812,1072) translate(111.583984375 45.25390625)"/><use xlink:href="#O" transform="matrix(1,0,0,1,1812,1072) translate(132.404296875 45.25390625)"/></g><path d="M2060 1506a6 6 0 0 1 6-6h188a6 6 0 0 1 6 6v88a6 6 0 0 1-6 6h-188a6 6 0 0 1-6-6z" stroke="#0d47a1" stroke-width="3" fill="#1565c0"/><g><use xlink:href="#K" transform="matrix(1,0,0,1,2072,1512) translate(20.529296875000014 45.25390625)"/><use xlink:href="#L" transform="matrix(1,0,0,1,2072,1512) translate(40.431640625000014 45.25390625)"/><use xlink:href="#M" transform="matrix(1,0,0,1,2072,1512) translate(55.90039062500001 45.25390625)"/><use xlink:href="#k" transform="matrix(1,0,0,1,2072,1512) translate(73.166015625 45.25390625)"/><use xlink:href="#l" transform="matrix(1,0,0,1,2072,1512) translate(91.681640625 45.25390625)"/><use xlink:href="#N" transform="matrix(1,0,0,1,2072,1512) translate(109.259765625 45.25390625)"/><use xlink:href="#n" transform="matrix(1,0,0,1,2072,1512) translate(135.470703125 45.25390625)"/></g><path d="M1960 1700c22.1 0 40 22.4 40 50s-17.9 50-40 50h-120c-22.1 0-40-22.4-40-50s17.9-50 40-50z" stroke="#0d47a1" stroke-width="3" fill="#fff"/><g><use xlink:href="#P" transform="matrix(1,0,0,1,1805,1705) translate(30.390625000000014 52.44140625)"/><use xlink:href="#Q" transform="matrix(1,0,0,1,1805,1705) translate(50.292968750000014 52.44140625)"/><use xlink:href="#R" transform="matrix(1,0,0,1,1805,1705) translate(65.76171875 52.44140625)"/><use xlink:href="#R" transform="matrix(1,0,0,1,1805,1705) translate(83.02734375 52.44140625)"/><use xlink:href="#p" transform="matrix(1,0,0,1,1805,1705) translate(100.29296875 52.44140625)"/><use xlink:href="#S" transform="matrix(1,0,0,1,1805,1705) translate(117.91015625 52.44140625)"/><use xlink:href="#T" transform="matrix(1,0,0,1,1805,1705) translate(147.2265625 52.44140625)"/></g><path d="M1540 1506a6 6 0 0 1 6-6h188a6 6 0 0 1 6 6v88a6 6 0 0 1-6 6h-188a6 6 0 0 1-6-6z" stroke="#0d47a1" stroke-width="3" fill="#1565c0"/><g><use xlink:href="#K" transform="matrix(1,0,0,1,1552,1512) translate(27.804687500000007 45.25390625)"/><use xlink:href="#L" transform="matrix(1,0,0,1,1552,1512) translate(47.70703125 45.25390625)"/><use xlink:href="#M" transform="matrix(1,0,0,1,1552,1512) translate(63.17578125 45.25390625)"/><use xlink:href="#U" transform="matrix(1,0,0,1,1552,1512) translate(80.44140625 45.25390625)"/><use xlink:href="#V" transform="matrix(1,0,0,1,1552,1512) translate(99.23046875 45.25390625)"/><use xlink:href="#O" transform="matrix(1,0,0,1,1552,1512) translate(128.1953125 45.25390625)"/></g><g fill="none"><path d="M1900 1320c-66.27 0-120 53.73-120 120 0 66.27 53.73 120 120 120 66.27 0 120-53.73 120-120" stroke="#1565c0" stroke-width="5"/><path d="M2029.6 1464l-9.6-24-12 24" stroke="#1565c0" stroke-width="5"/><path d="M1900 1320c-66.27 0-120 53.73-120 120 0 66.27 53.73 120 120 120 66.27 0 120-53.73 120-120z"/></g><path d="M1700 1260c22.1 0 40 22.4 40 50s-17.9 50-40 50h-120c-22.1 0-40-22.4-40-50s17.9-50 40-50z" stroke="#0d47a1" stroke-width="3" fill="#fff"/><g><use xlink:href="#o" transform="matrix(1,0,0,1,1545,1265) translate(17.373046875000014 52.44140625)"/><use xlink:href="#p" transform="matrix(1,0,0,1,1545,1265) translate(34.638671875000014 52.44140625)"/><use xlink:href="#q" transform="matrix(1,0,0,1,1545,1265) translate(52.25585937500001 52.44140625)"/><use xlink:href="#r" transform="matrix(1,0,0,1,1545,1265) translate(71.298828125 52.44140625)"/><use xlink:href="#s" transform="matrix(1,0,0,1,1545,1265) translate(96.708984375 52.44140625)"/><use xlink:href="#t" transform="matrix(1,0,0,1,1545,1265) translate(116.259765625 52.44140625)"/><use xlink:href="#q" transform="matrix(1,0,0,1,1545,1265) translate(136.318359375 52.44140625)"/><use xlink:href="#u" transform="matrix(1,0,0,1,1545,1265) translate(155.361328125 52.44140625)"/></g><path d="M1760 1264a6 6 0 0 1 6-6h268a6 6 0 0 1 6 6v88a6 6 0 0 1-6 6h-268a6 6 0 0 1-6-6z" fill="#fff" fill-opacity="0"/><path d="M1788 1258h-22a6 6 0 0 0-6 6v88a6 6 0 0 0 6 6h22" stroke="#dfe3e8" stroke-width="3" fill="none"/><g><use xlink:href="#v" transform="matrix(1,0,0,1,1782.5,1263) translate(0 36.796875)"/><use xlink:href="#w" transform="matrix(1,0,0,1,1782.5,1263) translate(17.539062499999996 36.796875)"/><use xlink:href="#x" transform="matrix(1,0,0,1,1782.5,1263) translate(32.20703124999999 36.796875)"/><use xlink:href="#y" transform="matrix(1,0,0,1,1782.5,1263) translate(51.249999999999986 36.796875)"/><use xlink:href="#z" transform="matrix(1,0,0,1,1782.5,1263) translate(68.08593749999999 36.796875)"/><use xlink:href="#A" transform="matrix(1,0,0,1,1782.5,1263) translate(83.55468749999999 36.796875)"/><use xlink:href="#B" transform="matrix(1,0,0,1,1782.5,1263) translate(103.33984374999999 36.796875)"/><use xlink:href="#C" transform="matrix(1,0,0,1,1782.5,1263) translate(122.65624999999999 36.796875)"/><use xlink:href="#D" transform="matrix(1,0,0,1,1782.5,1263) translate(142.65624999999997 36.796875)"/><use xlink:href="#E" transform="matrix(1,0,0,1,1782.5,1263) translate(0 66.50390625)"/><use xlink:href="#x" transform="matrix(1,0,0,1,1782.5,1263) translate(17.460937499999996 66.50390625)"/><use xlink:href="#F" transform="matrix(1,0,0,1,1782.5,1263) translate(36.50390624999999 66.50390625)"/><use xlink:href="#C" transform="matrix(1,0,0,1,1782.5,1263) translate(54.687499999999986 66.50390625)"/><use xlink:href="#B" transform="matrix(1,0,0,1,1782.5,1263) translate(74.68749999999999 66.50390625)"/><use xlink:href="#G" transform="matrix(1,0,0,1,1782.5,1263) translate(94.00390624999999 66.50390625)"/><use xlink:href="#H" transform="matrix(1,0,0,1,1782.5,1263) translate(114.00390624999999 66.50390625)"/><use xlink:href="#I" transform="matrix(1,0,0,1,1782.5,1263) translate(132.14843749999997 66.50390625)"/><use xlink:href="#J" transform="matrix(1,0,0,1,1782.5,1263) translate(152.67578124999997 66.50390625)"/></g><defs><path fill="#6f7681" d="M374-241c-1-128 3-262-2-387-91 129-184 256-273 387h275zm81 0h127v67H455V0h-81v-174H15v-67l359-507h81v507" id="Y"/><use transform="matrix(0.03038194444444443,0,0,0.03038194444444443,0,0)" xlink:href="#Y" id="a"/><path fill="#6f7681" d="M160-660v-74h634v74c-48 117-122 229-221 334 99 91 200 192 305 301l-55 54C723-76 622-177 520-272 405-161 267-65 106 16L71-49c273-140 515-346 637-611H160" id="Z"/><use transform="matrix(0.03038194444444443,0,0,0.03038194444444443,0,0)" xlink:href="#Z" id="b"/><path fill="#6f7681" d="M187-673v-71h628v71H187zM71-468h860v72H580C575-127 464-19 240 44l-23-71c193-59 275-136 281-369H71v-72" id="aa"/><use transform="matrix(0.03038194444444443,0,0,0.03038194444444443,0,0)" xlink:href="#aa" id="c"/><path fill="#6f7681" d="M190-34c341-58 440-171 457-552l75 4C716-188 563-8 206 35zM70-543l72-16c21 72 46 163 74 272l-73 17c-23-95-48-186-73-273zm225-29l73-17c27 95 52 189 74 284l-74 16c-23-98-47-192-73-283" id="ab"/><use transform="matrix(0.03038194444444443,0,0,0.03038194444444443,0,0)" xlink:href="#ab" id="d"/><path fill="#6f7681" d="M978-738c0 76-67 144-152 131C797-196 580-11 175 34l-13-73c377-45 563-204 584-596H68v-75h650c-16-87 50-158 128-158 70 0 132 60 132 130zm-132 74c39 1 75-35 74-74 1-39-35-74-74-73-39-1-74 34-73 73-1 39 34 75 73 74" id="ac"/><use transform="matrix(0.03038194444444443,0,0,0.03038194444444443,0,0)" xlink:href="#ac" id="e"/><path fill="#6f7681" d="M69-660v-70h809v70c-43 151-150 273-285 336l-41-63c125-62 205-153 242-273H69zm58 628c197-89 241-232 244-531h78c-3 336-61 494-285 597" id="ad"/><use transform="matrix(0.03038194444444443,0,0,0.03038194444444443,0,0)" xlink:href="#ad" id="f"/><path fill="#6f7681" d="M243-34c309-18 506-153 511-458v-97H145v251H68v-320h334v-164h79v164h351v166C829-147 599 21 252 38" id="ae"/><use transform="matrix(0.03038194444444443,0,0,0.03038194444444443,0,0)" xlink:href="#ae" id="g"/><path fill="#6f7681" d="M147-785v299c189 45 379 104 572 176l-24 74c-194-73-377-130-548-171V48H65v-833h82" id="af"/><use transform="matrix(0.03038194444444443,0,0,0.03038194444444443,0,0)" xlink:href="#af" id="h"/><path fill="#fff" d="M69-720h761c3 479-214 695-654 744l-14-73c377-45 564-206 585-596H69v-75" id="ag"/><use transform="matrix(0.019531249999999997,0,0,0.019531249999999997,0,0)" xlink:href="#ag" id="i"/><path fill="#fff" d="M441-43c42-2 45-3 45-45v-284C368-251 241-152 105-74l-34-59c144-81 276-187 397-317H70v-65h416v-129h73v129h181v65H559v363C555 14 548 20 447 24c-43 0-89-3-138-9l5-66c53 5 96 8 127 8" id="ah"/><use transform="matrix(0.019531249999999997,0,0,0.019531249999999997,0,0)" xlink:href="#ah" id="j"/><path fill="#fff" d="M69-660v-70h809v70c-43 151-150 273-285 336l-41-63c125-62 205-153 242-273H69zm58 628c197-89 241-232 244-531h78c-3 336-61 494-285 597" id="ai"/><use transform="matrix(0.019531249999999997,0,0,0.019531249999999997,0,0)" xlink:href="#ai" id="k"/><path fill="#fff" d="M243-34c309-18 506-153 511-458v-97H145v251H68v-320h334v-164h79v164h351v166C829-147 599 21 252 38" id="aj"/><use transform="matrix(0.019531249999999997,0,0,0.019531249999999997,0,0)" xlink:href="#aj" id="l"/><path fill="#fff" d="M147-785v299c189 45 379 104 572 176l-24 74c-194-73-377-130-548-171V48H65v-833h82" id="ak"/><use transform="matrix(0.019531249999999997,0,0,0.019531249999999997,0,0)" xlink:href="#ak" id="m"/><path fill="#fff" d="M345-43h472v-302H345v302zm553-370V79h-81V24H345v55h-82v-372c-57 78-118 142-184 193l-45-61c154-119 263-278 327-477H69v-71h312c11-47 20-92 27-137l80 5c-5 38-14 82-25 132h492v71H443c-26 83-57 158-94 225h549" id="al"/><use transform="matrix(0.019531249999999997,0,0,0.019531249999999997,0,0)" xlink:href="#al" id="n"/><path fill="#0d47a1" d="M733-625H330c-40 118-108 222-204 311l-55-50c127-119 200-266 220-439l77 5c-3 31-9 65-18 102h466c1 488-214 682-675 724l-12-72c398-43 584-176 604-581" id="am"/><use transform="matrix(0.019531249999999997,0,0,0.019531249999999997,0,0)" xlink:href="#am" id="o"/><path fill="#0d47a1" d="M837-7H65v-723h772V-7zM147-80h608v-577H147v577" id="an"/><use transform="matrix(0.019531249999999997,0,0,0.019531249999999997,0,0)" xlink:href="#an" id="p"/><path fill="#0d47a1" d="M71-330v-78h834v78H71" id="ao"/><use transform="matrix(0.019531249999999997,0,0,0.019531249999999997,0,0)" xlink:href="#ao" id="q"/><path fill="#0d47a1" d="M159-650v-74h599c-11-20-30-53-57-98l56-30c28 46 57 97 86 153l-49 24v25c-48 117-122 229-221 335 99 91 200 192 305 301l-55 53C723-66 622-167 520-262 405-151 267-54 106 27L71-39c273-141 513-346 637-611H159zm680-189l57-30c27 46 57 98 88 156l-57 29c-30-57-59-108-88-155" id="ap"/><use transform="matrix(0.019531249999999997,0,0,0.019531249999999997,0,0)" xlink:href="#ap" id="r"/><path fill="#0d47a1" d="M156-737h690v73H457v234h474v72H457c11 120-39 289 81 304 96 12 223 3 322-5l3 72c-116 8-265 22-371 2C389-5 371-88 371-222v-136H71v-72h300v-234H156v-73" id="aq"/><use transform="matrix(0.019531249999999997,0,0,0.019531249999999997,0,0)" xlink:href="#aq" id="s"/><path fill="#0d47a1" d="M433-39c52-2 49-4 49-59v-499H96v-72h386v-147h82v147h366v72H564v508C560 18 553 30 448 34c-50 0-103-5-161-14l8-70c45 7 91 11 138 11zM243-457l73 27C263-309 204-192 141-77l-70-33c64-116 121-232 172-347zm468 27l70-31c63 119 121 239 175 361l-73 29c-59-132-116-252-172-359" id="ar"/><use transform="matrix(0.019531249999999997,0,0,0.019531249999999997,0,0)" xlink:href="#ar" id="t"/><use transform="matrix(0.019531249999999997,0,0,0.019531249999999997,0,0)" xlink:href="#am" id="u"/><path fill="#6f7681" d="M69-720h761c3 479-214 695-654 744l-14-73c377-45 564-206 585-596H69v-75" id="as"/><use transform="matrix(0.019531249999999997,0,0,0.019531249999999997,0,0)" xlink:href="#as" id="v"/><path fill="#6f7681" d="M169-24c304-52 424-140 431-473v-264h84v262C679-131 523 2 187 51zM66-310v-451h82v451H66" id="at"/><use transform="matrix(0.019531249999999997,0,0,0.019531249999999997,0,0)" xlink:href="#at" id="w"/><path fill="#6f7681" d="M71-330v-78h834v78H71" id="au"/><use transform="matrix(0.019531249999999997,0,0,0.019531249999999997,0,0)" xlink:href="#au" id="x"/><path fill="#6f7681" d="M148-46c308-20 480-164 570-414l73 29C677-119 437 35 65 31v-792h83v715" id="av"/><use transform="matrix(0.019531249999999997,0,0,0.019531249999999997,0,0)" xlink:href="#av" id="y"/><use transform="matrix(0.019531249999999997,0,0,0.019531249999999997,0,0)" xlink:href="#ab" id="z"/><path fill="#6f7681" d="M703-803l56-30c28 46 57 97 86 153l-35 17C804-189 585-4 134 38l-11-72c396-41 578-173 603-570H326c-39 112-105 212-200 300l-55-49c126-119 199-265 219-440l77 6c-4 40-10 77-19 111h428c-25-46-49-88-73-127zm138-17l58-30c31 51 60 103 88 156l-58 28c-30-56-59-107-88-154" id="aw"/><use transform="matrix(0.019531249999999997,0,0,0.019531249999999997,0,0)" xlink:href="#aw" id="A"/><path fill="#6f7681" d="M314-133c-5-163 211-201 348-139v-291H341v-69h321v-170h75v170h181v69H737v335c50 34 111 87 182 158l-52 52c-49-50-93-90-130-121-5 125-72 187-202 187-129 2-217-59-221-181zM192-776c-67 248-67 566 0 815l-73 10c-68-254-70-582 0-835zM532-20c108 2 136-60 130-173-80-61-273-52-273 60 0 75 48 113 143 113" id="ax"/><use transform="matrix(0.019531249999999997,0,0,0.019531249999999997,0,0)" xlink:href="#ax" id="B"/><path fill="#6f7681" d="M224-422V89h-77v-443c-33 38-66 70-100 95l-24-79c101-74 180-163 238-267l62 37c-27 50-60 99-99 146zm441 311c64-36 117-80 159-133H503c43 49 97 94 162 133zM65-556l-32-66c96-59 173-131 230-215l62 36c-66 98-153 180-260 245zm421-61c14 14 69 67 83 81 104-81 195-160 274-237l57 48C787-616 669-518 548-431l323-13c-33-57-58-98-74-123l68-33c55 89 102 171 141 246l-68 29c-8-16-18-35-31-56l-322 12c-13 22-28 43-46 64h373c-1 20 3 45-2 61-44 63-104 119-181 169 78 39 163 69 255 92l-22 65C851 53 750 14 660-36 555 18 433 57 296 82l-25-64C394-2 502-33 595-75c-61-40-113-84-156-132-40 34-80 62-121 85l-38-59c76-39 166-116 215-184l-194 9-2-66 122-4c28-20 57-41 88-63-76-76-138-136-185-181l52-53c12 11 32 30 59 56 74-60 139-118 194-174l59 43c-56 57-123 117-202 181" id="ay"/><use transform="matrix(0.019531249999999997,0,0,0.019531249999999997,0,0)" xlink:href="#ay" id="C"/><path fill="#6f7681" d="M529-399c-160 0-311 64-429 132l-29-57c181-120 366-237 545-359H158v-67h593l5 70-402 247 1 2c70-22 136-33 199-33 202 0 303 72 303 216C857-61 720 33 446 33c-59 0-126-4-201-13l1-71c67 8 132 12 195 12 221 0 331-67 331-202 0-126-98-158-243-158" id="az"/><use transform="matrix(0.019531249999999997,0,0,0.019531249999999997,0,0)" xlink:href="#az" id="D"/><path fill="#6f7681" d="M71-367c110-102 191-257 213-439l74 4c-2 23-7 55-15 95h483C831-208 617-4 150 38l-11-72c240-23 407-82 509-232-113-59-227-113-342-163l36-69c111 49 226 103 344 163 35-79 54-179 57-300H325c-39 123-106 229-201 318" id="aA"/><use transform="matrix(0.019531249999999997,0,0,0.019531249999999997,0,0)" xlink:href="#aA" id="E"/><path fill="#6f7681" d="M70-677l36-69c109 55 214 113 314 174l-40 69c-94-59-197-117-310-174zM92-67c397-38 624-223 694-586l75 16C792-244 540-28 104 10" id="aB"/><use transform="matrix(0.019531249999999997,0,0,0.019531249999999997,0,0)" xlink:href="#aB" id="F"/><path fill="#6f7681" d="M187-340v127h240v-127H187zm0-62h240v-122H187v122zM54-660v-67h274c-21-40-42-76-61-108l75-19c25 39 48 82 71 127h202c23-38 46-80 67-126l77 16c-19 39-38 75-58 110h269v67H54zM386 2c50-2 41-4 41-59v-94H187V75h-77v-666h393v538c-6 115 5 121-107 125-11 0-45-2-103-5l-1-70c44 3 75 5 94 5zm219-107v-468h77v468h-77zM796 2c50-2 48-6 48-60v-546h78v550c-5 114-5 125-116 129-30 0-74-2-132-5l-2-73c54 3 95 5 124 5" id="aC"/><use transform="matrix(0.019531249999999997,0,0,0.019531249999999997,0,0)" xlink:href="#aC" id="G"/><path fill="#6f7681" d="M398-625v-69h435v69H398zM195-776c-65 241-65 575 0 815l-77 10c-68-254-68-582 0-835zm311 428c-71 52-172 187-50 248 99 49 265 34 391 2l11 68C652 29 320 26 320-187c0-86 70-159 131-208" id="aD"/><use transform="matrix(0.019531249999999997,0,0,0.019531249999999997,0,0)" xlink:href="#aD" id="H"/><path fill="#6f7681" d="M320-130c-4-170 219-200 366-136v-413c111 0 210 7 295 21l-10 67c-67-11-138-17-211-18v377c65 35 139 85 220 151l-48 55c-69-55-126-97-172-126C753-8 690 43 538 44c-125 2-217-57-218-174zM93-611v-68h189c19-61 34-113 45-156l71 11c-11 47-25 96-40 145h192v68H337C286-450 221-277 140-91l-69-25c75-171 138-336 190-495H93zM538-20c125 1 150-46 148-174-92-55-297-57-291 64 1 75 62 111 143 110" id="aE"/><use transform="matrix(0.019531249999999997,0,0,0.019531249999999997,0,0)" xlink:href="#aE" id="I"/><path fill="#6f7681" d="M177-120c0-96 107-143 225-143 181 0 251 89 197 227 117-27 175-96 175-207-4-130-95-169-241-169-139 0-283 42-433 127l-29-55c184-117 371-232 553-351H144v-67h618l4 68-402 243c67-15 133-28 193-27 201 0 301 74 301 223C854-42 694 46 467 44c-193 0-290-55-290-164zm221-78c-73-1-136 22-143 78 0 30 18 54 53 71 42 23 132 30 213 24 56-98 25-177-123-173" id="aF"/><use transform="matrix(0.019531249999999997,0,0,0.019531249999999997,0,0)" xlink:href="#aF" id="J"/><path fill="#fff" d="M613-755l61-32c33 55 65 111 96 167l-62 30c-27-51-58-106-95-165zm143-39l63-33c40 66 73 123 98 172l-63 30c-32-58-65-114-98-169zm-53 290l77-24C841-370 897-191 948 8l-83 18c-50-201-104-378-162-530zM382-713C353-451 275-207 147 20L71-15c123-219 199-454 229-703" id="aG"/><use transform="matrix(0.019531249999999997,0,0,0.019531249999999997,0,0)" xlink:href="#aG" id="K"/><path fill="#fff" d="M190-34c341-58 440-171 457-552l75 4C716-188 563-8 206 35zM70-543l72-16c21 72 46 163 74 272l-73 17c-23-95-48-186-73-273zm225-29l73-17c27 95 52 189 74 284l-74 16c-23-98-47-192-73-283" id="aH"/><use transform="matrix(0.019531249999999997,0,0,0.019531249999999997,0,0)" xlink:href="#aH" id="L"/><path fill="#fff" d="M733-625H330c-40 118-108 222-204 311l-55-50c127-119 200-266 220-439l77 5c-3 31-9 65-18 102h466c1 488-214 682-675 724l-12-72c398-43 584-176 604-581" id="aI"/><use transform="matrix(0.019531249999999997,0,0,0.019531249999999997,0,0)" xlink:href="#aI" id="M"/><use transform="matrix(0.019531249999999997,0,0,0.019531249999999997,0,0)" xlink:href="#ak" id="N"/><path fill="#fff" d="M914-433v67H653v343h299v71H212v-71h359v-343H309C256-233 186-111 99-1L39-48c135-173 226-372 271-597H82v-70h241c7-43 12-87 15-130l81 4c-2 30-7 72-16 126h539v70H391c-15 75-34 146-56 212h579" id="aJ"/><use transform="matrix(0.019531249999999997,0,0,0.019531249999999997,0,0)" xlink:href="#aJ" id="O"/><path fill="#0d47a1" d="M613-755l61-32c33 55 65 111 96 167l-62 30c-27-51-58-106-95-165zm143-39l63-33c40 66 73 123 98 172l-63 30c-32-58-65-114-98-169zm-53 290l77-24C841-370 897-191 948 8l-83 18c-50-201-104-378-162-530zM382-713C353-451 275-207 147 20L71-15c123-219 199-454 229-703" id="aK"/><use transform="matrix(0.019531249999999997,0,0,0.019531249999999997,0,0)" xlink:href="#aK" id="P"/><path fill="#0d47a1" d="M190-34c341-58 440-171 457-552l75 4C716-188 563-8 206 35zM70-543l72-16c21 72 46 163 74 272l-73 17c-23-95-48-186-73-273zm225-29l73-17c27 95 52 189 74 284l-74 16c-23-98-47-192-73-283" id="aL"/><use transform="matrix(0.019531249999999997,0,0,0.019531249999999997,0,0)" xlink:href="#aL" id="Q"/><use transform="matrix(0.019531249999999997,0,0,0.019531249999999997,0,0)" xlink:href="#am" id="R"/><path fill="#0d47a1" d="M160-660v-74h634v74c-48 117-122 229-221 334 99 91 200 192 305 301l-55 54C723-76 622-177 520-272 405-161 267-65 106 16L71-49c273-140 515-346 637-611H160" id="aM"/><use transform="matrix(0.019531249999999997,0,0,0.019531249999999997,0,0)" xlink:href="#aM" id="S"/><path fill="#0d47a1" d="M325 0c-1-218 3-441-2-656L113-486v-91l212-171h82V0h-82" id="aN"/><use transform="matrix(0.019531249999999997,0,0,0.019531249999999997,0,0)" xlink:href="#aN" id="T"/><path fill="#fff" d="M71-384c295-40 609-200 769-380l51 55c-79 87-182 164-307 231V46h-83v-482C365-373 226-331 84-310" id="aO"/><use transform="matrix(0.019531249999999997,0,0,0.019531249999999997,0,0)" xlink:href="#aO" id="U"/><path fill="#fff" d="M70-677l36-69c109 55 214 113 314 174l-40 69c-94-59-197-117-310-174zM92-67c397-38 624-223 694-586l75 16C792-244 540-28 104 10" id="aP"/><use transform="matrix(0.019531249999999997,0,0,0.019531249999999997,0,0)" xlink:href="#aP" id="V"/><path fill="#0d47a1" d="M71-384c295-40 609-200 769-380l51 55c-79 87-182 164-307 231V46h-83v-482C365-373 226-331 84-310" id="aQ"/><use transform="matrix(0.019531249999999997,0,0,0.019531249999999997,0,0)" xlink:href="#aQ" id="W"/><path fill="#0d47a1" d="M70-677l36-69c109 55 214 113 314 174l-40 69c-94-59-197-117-310-174zM92-67c397-38 624-223 694-586l75 16C792-244 540-28 104 10" id="aR"/><use transform="matrix(0.019531249999999997,0,0,0.019531249999999997,0,0)" xlink:href="#aR" id="X"/></defs></g></svg>