<svg xmlns="http://www.w3.org/2000/svg" xmlns:xlink="http://www.w3.org/1999/xlink" xmlns:lucid="lucid" width="1360" height="2200"><g transform="translate(-1240 20)" lucid:page-tab-id="KZrZVttrMS_4"><path d="M1703 102.55h393.84M1703.03 102.55H1702M2096.82 102.55h1.02" stroke="#b2b2b2" stroke-width="2" fill="none"/><path d="M1660 40h480v80h-480z" fill="none"/><use xlink:href="#a" transform="matrix(1,0,0,1,1665,45) translate(124.69704861111117 45.34505208333333)"/><use xlink:href="#b" transform="matrix(1,0,0,1,1665,45) translate(143.95920138888894 45.34505208333333)"/><use xlink:href="#c" transform="matrix(1,0,0,1,1665,45) translate(172.79166666666669 45.34505208333333)"/><use xlink:href="#d" transform="matrix(1,0,0,1,1665,45) translate(203.20399305555557 45.34505208333333)"/><use xlink:href="#e" transform="matrix(1,0,0,1,1665,45) translate(227.26649305555554 45.34505208333333)"/><use xlink:href="#f" transform="matrix(1,0,0,1,1665,45) translate(266.15538194444446 45.34505208333333)"/><use xlink:href="#g" transform="matrix(1,0,0,1,1665,45) translate(294.9574652777777 45.34505208333333)"/><use xlink:href="#h" transform="matrix(1,0,0,1,1665,45) translate(322.3012152777777 45.34505208333333)"/><g class="lucid-layer" lucid:layer-id="wkm34Q-JYerl" display="block"><path d="M1800 206a6 6 0 0 1 6-6h188a6 6 0 0 1 6 6v88a6 6 0 0 1-6 6h-188a6 6 0 0 1-6-6z" stroke="#01579b" stroke-width="3" fill="#0277bd"/><use xlink:href="#i" transform="matrix(1,0,0,1,1812,212) translate(36.29101562500001 45.25390625)"/><use xlink:href="#j" transform="matrix(1,0,0,1,1812,212) translate(53.830078125 45.25390625)"/><use xlink:href="#k" transform="matrix(1,0,0,1,1812,212) translate(69.669921875 45.25390625)"/><use xlink:href="#k" transform="matrix(1,0,0,1,1812,212) translate(88.185546875 45.25390625)"/><use xlink:href="#l" transform="matrix(1,0,0,1,1812,212) translate(106.701171875 45.25390625)"/><use xlink:href="#m" transform="matrix(1,0,0,1,1812,212) translate(124.279296875 45.25390625)"/><path d="M2260 400c22.1 0 40 22.4 40 50s-17.9 50-40 50h-120c-22.1 0-40-22.4-40-50s17.9-50 40-50z" stroke="#01579b" stroke-width="3" fill="#fff"/><use xlink:href="#n" transform="matrix(1,0,0,1,2105,405) translate(16.416015625000014 52.44140625)"/><use xlink:href="#o" transform="matrix(1,0,0,1,2105,405) translate(35.439453125000014 52.44140625)"/><use xlink:href="#p" transform="matrix(1,0,0,1,2105,405) translate(54.48242187500001 52.44140625)"/><use xlink:href="#q" transform="matrix(1,0,0,1,2105,405) translate(74.091796875 52.44140625)"/><use xlink:href="#r" transform="matrix(1,0,0,1,2105,405) translate(97.666015625 52.44140625)"/><use xlink:href="#s" transform="matrix(1,0,0,1,2105,405) translate(117.216796875 52.44140625)"/><use xlink:href="#o" transform="matrix(1,0,0,1,2105,405) translate(137.275390625 52.44140625)"/><use xlink:href="#t" transform="matrix(1,0,0,1,2105,405) translate(156.318359375 52.44140625)"/><path d="M2320 404a6 6 0 0 1 6-6h208a6 6 0 0 1 6 6v88a6 6 0 0 1-6 6h-208a6 6 0 0 1-6-6z" fill="#fff" fill-opacity="0"/><path d="M2342 398h-16a6 6 0 0 0-6 6v88a6 6 0 0 0 6 6h16" stroke="#dfe3e8" stroke-width="3" fill="none"/><use xlink:href="#u" transform="matrix(1,0,0,1,2338.75,403) translate(0 36.796875)"/><use xlink:href="#v" transform="matrix(1,0,0,1,2338.75,403) translate(17.539062499999996 36.796875)"/><use xlink:href="#w" transform="matrix(1,0,0,1,2338.75,403) translate(32.20703124999999 36.796875)"/><use xlink:href="#x" transform="matrix(1,0,0,1,2338.75,403) translate(51.249999999999986 36.796875)"/><use xlink:href="#y" transform="matrix(1,0,0,1,2338.75,403) translate(68.08593749999999 36.796875)"/><use xlink:href="#z" transform="matrix(1,0,0,1,2338.75,403) translate(83.55468749999999 36.796875)"/><use xlink:href="#A" transform="matrix(1,0,0,1,2338.75,403) translate(103.33984374999999 36.796875)"/><use xlink:href="#B" transform="matrix(1,0,0,1,2338.75,403) translate(122.65624999999999 36.796875)"/><use xlink:href="#C" transform="matrix(1,0,0,1,2338.75,403) translate(0 66.50390625)"/><use xlink:href="#w" transform="matrix(1,0,0,1,2338.75,403) translate(17.460937499999996 66.50390625)"/><use xlink:href="#D" transform="matrix(1,0,0,1,2338.75,403) translate(36.50390624999999 66.50390625)"/><use xlink:href="#E" transform="matrix(1,0,0,1,2338.75,403) translate(54.687499999999986 66.50390625)"/><use xlink:href="#A" transform="matrix(1,0,0,1,2338.75,403) translate(74.68749999999999 66.50390625)"/><use xlink:href="#E" transform="matrix(1,0,0,1,2338.75,403) translate(94.00390624999999 66.50390625)"/><use xlink:href="#F" transform="matrix(1,0,0,1,2338.75,403) translate(114.00390624999999 66.50390625)"/><use xlink:href="#G" transform="matrix(1,0,0,1,2338.75,403) translate(132.07031249999997 66.50390625)"/><use xlink:href="#H" transform="matrix(1,0,0,1,2338.75,403) translate(150.21484374999997 66.50390625)"/><use xlink:href="#I" transform="matrix(1,0,0,1,2338.75,403) translate(170.74218749999997 66.50390625)"/><path d="M1660 398c22.1 0 40 22.4 40 50s-17.9 50-40 50h-120c-22.1 0-40-22.4-40-50s17.9-50 40-50z" stroke="#01579b" stroke-width="3" fill="#fff"/><g><use xlink:href="#J" transform="matrix(1,0,0,1,1505,403) translate(35.85937500000001 52.44140625)"/><use xlink:href="#q" transform="matrix(1,0,0,1,1505,403) translate(54.6484375 52.44140625)"/><use xlink:href="#r" transform="matrix(1,0,0,1,1505,403) translate(78.22265625 52.44140625)"/><use xlink:href="#s" transform="matrix(1,0,0,1,1505,403) translate(97.7734375 52.44140625)"/><use xlink:href="#o" transform="matrix(1,0,0,1,1505,403) translate(117.83203125 52.44140625)"/><use xlink:href="#t" transform="matrix(1,0,0,1,1505,403) translate(136.875 52.44140625)"/></g><path d="M2200 606a6 6 0 0 1 6-6h188a6 6 0 0 1 6 6v88a6 6 0 0 1-6 6h-188a6 6 0 0 1-6-6z" stroke="#01579b" stroke-width="3" fill="#0277bd"/><g><use xlink:href="#K" transform="matrix(1,0,0,1,2212,612) translate(28.224609375000014 45.25390625)"/><use xlink:href="#L" transform="matrix(1,0,0,1,2212,612) translate(35.919921875000014 45.25390625)"/><use xlink:href="#M" transform="matrix(1,0,0,1,2212,612) translate(55.82226562500001 45.25390625)"/><use xlink:href="#N" transform="matrix(1,0,0,1,2212,612) translate(71.291015625 45.25390625)"/><use xlink:href="#k" transform="matrix(1,0,0,1,2212,612) translate(88.556640625 45.25390625)"/><use xlink:href="#l" transform="matrix(1,0,0,1,2212,612) translate(107.072265625 45.25390625)"/><use xlink:href="#O" transform="matrix(1,0,0,1,2212,612) translate(124.650390625 45.25390625)"/></g><path d="M1400 606a6 6 0 0 1 6-6h188a6 6 0 0 1 6 6v88a6 6 0 0 1-6 6h-188a6 6 0 0 1-6-6z" stroke="#01579b" stroke-width="3" fill="#0277bd"/><g><use xlink:href="#P" transform="matrix(1,0,0,1,1412,612) translate(43.19531250000001 45.25390625)"/><use xlink:href="#M" transform="matrix(1,0,0,1,1412,612) translate(63.09765625 45.25390625)"/><use xlink:href="#N" transform="matrix(1,0,0,1,1412,612) translate(78.56640625 45.25390625)"/><use xlink:href="#Q" transform="matrix(1,0,0,1,1412,612) translate(95.83203125 45.25390625)"/><use xlink:href="#R" transform="matrix(1,0,0,1,1412,612) translate(114.62109375 45.25390625)"/></g><g fill="none"><path d="M1900 530c66.27 0 120 53.73 120 120 0 66.27-53.73 120-120 120-66.27 0-120-53.73-120-120" stroke="#01579b" stroke-width="5"/><path d="M1770.4 674l9.6-24 12 24" stroke="#01579b" stroke-width="5"/><path d="M1900 530c66.27 0 120 53.73 120 120 0 66.27-53.73 120-120 120-66.27 0-120-53.73-120-120z"/></g><path d="M2100 806a6 6 0 0 1 6-6h188a6 6 0 0 1 6 6v88a6 6 0 0 1-6 6h-188a6 6 0 0 1-6-6z" stroke="#01579b" stroke-width="3" fill="#0277bd"/><g><use xlink:href="#P" transform="matrix(1,0,0,1,2112,812) translate(43.19531250000001 45.25390625)"/><use xlink:href="#M" transform="matrix(1,0,0,1,2112,812) translate(63.09765625 45.25390625)"/><use xlink:href="#N" transform="matrix(1,0,0,1,2112,812) translate(78.56640625 45.25390625)"/><use xlink:href="#Q" transform="matrix(1,0,0,1,2112,812) translate(95.83203125 45.25390625)"/><use xlink:href="#R" transform="matrix(1,0,0,1,2112,812) translate(114.62109375 45.25390625)"/></g><path d="M2320 806a6 6 0 0 1 6-6h208a6 6 0 0 1 6 6v88a6 6 0 0 1-6 6h-208a6 6 0 0 1-6-6z" fill="#fff" fill-opacity="0"/><path d="M2342 800h-16a6 6 0 0 0-6 6v88a6 6 0 0 0 6 6h16" stroke="#dfe3e8" stroke-width="3" fill="none"/><g><use xlink:href="#u" transform="matrix(1,0,0,1,2338.75,805) translate(0 51.650390625)"/><use xlink:href="#v" transform="matrix(1,0,0,1,2338.75,805) translate(17.539062499999996 51.650390625)"/><use xlink:href="#w" transform="matrix(1,0,0,1,2338.75,805) translate(32.20703124999999 51.650390625)"/><use xlink:href="#x" transform="matrix(1,0,0,1,2338.75,805) translate(51.249999999999986 51.650390625)"/><use xlink:href="#y" transform="matrix(1,0,0,1,2338.75,805) translate(68.08593749999999 51.650390625)"/><use xlink:href="#z" transform="matrix(1,0,0,1,2338.75,805) translate(83.55468749999999 51.650390625)"/><use xlink:href="#A" transform="matrix(1,0,0,1,2338.75,805) translate(103.33984374999999 51.650390625)"/><use xlink:href="#S" transform="matrix(1,0,0,1,2338.75,805) translate(122.65624999999999 51.650390625)"/><use xlink:href="#T" transform="matrix(1,0,0,1,2338.75,805) translate(142.65624999999997 51.650390625)"/><use xlink:href="#U" transform="matrix(1,0,0,1,2338.75,805) translate(163.04687499999997 51.650390625)"/></g><path d="M1800 1006a6 6 0 0 1 6-6h188a6 6 0 0 1 6 6v88a6 6 0 0 1-6 6h-188a6 6 0 0 1-6-6z" stroke="#01579b" stroke-width="3" fill="#0277bd"/><g><use xlink:href="#P" transform="matrix(1,0,0,1,1812,1012) translate(35.91992187500001 45.25390625)"/><use xlink:href="#M" transform="matrix(1,0,0,1,1812,1012) translate(55.822265625 45.25390625)"/><use xlink:href="#N" transform="matrix(1,0,0,1,1812,1012) translate(71.291015625 45.25390625)"/><use xlink:href="#k" transform="matrix(1,0,0,1,1812,1012) translate(88.556640625 45.25390625)"/><use xlink:href="#l" transform="matrix(1,0,0,1,1812,1012) translate(107.072265625 45.25390625)"/><use xlink:href="#m" transform="matrix(1,0,0,1,1812,1012) translate(124.650390625 45.25390625)"/></g><path d="M2020 1006a6 6 0 0 1 6-6h268a6 6 0 0 1 6 6v88a6 6 0 0 1-6 6h-268a6 6 0 0 1-6-6z" fill="#fff" fill-opacity="0"/><path d="M2048 1000h-22a6 6 0 0 0-6 6v88a6 6 0 0 0 6 6h22" stroke="#dfe3e8" stroke-width="3" fill="none"/><g><use xlink:href="#V" transform="matrix(1,0,0,1,2042.5,1005) translate(0 36.796875)"/><use xlink:href="#y" transform="matrix(1,0,0,1,2042.5,1005) translate(19.902343749999996 36.796875)"/><use xlink:href="#W" transform="matrix(1,0,0,1,2042.5,1005) translate(35.37109374999999 36.796875)"/><use xlink:href="#X" transform="matrix(1,0,0,1,2042.5,1005) translate(52.636718749999986 36.796875)"/><use xlink:href="#D" transform="matrix(1,0,0,1,2042.5,1005) translate(71.42578124999999 36.796875)"/><use xlink:href="#Y" transform="matrix(1,0,0,1,2042.5,1005) translate(89.60937499999999 36.796875)"/><use xlink:href="#Z" transform="matrix(1,0,0,1,2042.5,1005) translate(109.90234374999999 36.796875)"/><use xlink:href="#aa" transform="matrix(1,0,0,1,2042.5,1005) translate(126.75781249999999 36.796875)"/><use xlink:href="#ab" transform="matrix(1,0,0,1,2042.5,1005) translate(146.75781249999997 36.796875)"/><use xlink:href="#ac" transform="matrix(1,0,0,1,2042.5,1005) translate(0 66.50390625)"/><use xlink:href="#ad" transform="matrix(1,0,0,1,2042.5,1005) translate(19.101562499999996 66.50390625)"/><use xlink:href="#v" transform="matrix(1,0,0,1,2042.5,1005) translate(35.70312499999999 66.50390625)"/><use xlink:href="#D" transform="matrix(1,0,0,1,2042.5,1005) translate(50.37109374999999 66.50390625)"/><use xlink:href="#z" transform="matrix(1,0,0,1,2042.5,1005) translate(68.55468749999999 66.50390625)"/><use xlink:href="#ae" transform="matrix(1,0,0,1,2042.5,1005) translate(88.33984374999999 66.50390625)"/><use xlink:href="#af" transform="matrix(1,0,0,1,2042.5,1005) translate(104.90234374999999 66.50390625)"/><use xlink:href="#ag" transform="matrix(1,0,0,1,2042.5,1005) translate(124.90234374999999 66.50390625)"/></g><path d="M1660 802c22.1 0 40 22.4 40 50s-17.9 50-40 50h-120c-22.1 0-40-22.4-40-50s17.9-50 40-50z" stroke="#01579b" stroke-width="3" fill="#fff"/><g><use xlink:href="#ah" transform="matrix(1,0,0,1,1505,807.0000000000005) translate(33.08593750000001 52.44140625)"/><use xlink:href="#ai" transform="matrix(1,0,0,1,1505,807.0000000000005) translate(52.98828125 52.44140625)"/><use xlink:href="#aj" transform="matrix(1,0,0,1,1505,807.0000000000005) translate(68.45703125 52.44140625)"/><use xlink:href="#aj" transform="matrix(1,0,0,1,1505,807.0000000000005) translate(85.72265625 52.44140625)"/><use xlink:href="#ak" transform="matrix(1,0,0,1,1505,807.0000000000005) translate(102.98828125 52.44140625)"/><use xlink:href="#al" transform="matrix(1,0,0,1,1505,807.0000000000005) translate(120.60546875 52.44140625)"/><use xlink:href="#am" transform="matrix(1,0,0,1,1505,807.0000000000005) translate(144.53125 52.44140625)"/></g><path d="M1720 806a6 6 0 0 1 6-6h268a6 6 0 0 1 6 6v88a6 6 0 0 1-6 6h-268a6 6 0 0 1-6-6z" fill="#fff" fill-opacity="0"/><path d="M1748 800h-22a6 6 0 0 0-6 6v88a6 6 0 0 0 6 6h22" stroke="#dfe3e8" stroke-width="3" fill="none"/><g><use xlink:href="#an" transform="matrix(1,0,0,1,1742.5,805) translate(0 51.650390625)"/><use xlink:href="#ao" transform="matrix(1,0,0,1,1742.5,805) translate(19.999999999999996 51.650390625)"/><use xlink:href="#ap" transform="matrix(1,0,0,1,1742.5,805) translate(37.81249999999999 51.650390625)"/><use xlink:href="#aq" transform="matrix(1,0,0,1,1742.5,805) translate(57.812499999999986 51.650390625)"/><use xlink:href="#ar" transform="matrix(1,0,0,1,1742.5,805) translate(76.75781249999999 51.650390625)"/><use xlink:href="#as" transform="matrix(1,0,0,1,1742.5,805) translate(94.84374999999999 51.650390625)"/><use xlink:href="#G" transform="matrix(1,0,0,1,1742.5,805) translate(114.84374999999999 51.650390625)"/><use xlink:href="#at" transform="matrix(1,0,0,1,1742.5,805) translate(132.98828124999997 51.650390625)"/><use xlink:href="#au" transform="matrix(1,0,0,1,1742.5,805) translate(152.98828124999997 51.650390625)"/><use xlink:href="#W" transform="matrix(1,0,0,1,1742.5,805) translate(171.71874999999997 51.650390625)"/><use xlink:href="#av" transform="matrix(1,0,0,1,1742.5,805) translate(188.98437499999997 51.650390625)"/><use xlink:href="#aw" transform="matrix(1,0,0,1,1742.5,805) translate(206.60156249999997 51.650390625)"/></g></g><g class="lucid-layer" lucid:layer-id="4km35s0~.hG9" display="block"><path d="M1660 1402c22.1 0 40 22.4 40 50s-17.9 50-40 50h-120c-22.1 0-40-22.4-40-50s17.9-50 40-50z" stroke="#01579b" stroke-width="3" fill="#fff"/><use xlink:href="#n" transform="matrix(1,0,0,1,1505,1407) translate(16.416015625000014 52.44140625)"/><use xlink:href="#o" transform="matrix(1,0,0,1,1505,1407) translate(35.439453125000014 52.44140625)"/><use xlink:href="#p" transform="matrix(1,0,0,1,1505,1407) translate(54.48242187500001 52.44140625)"/><use xlink:href="#q" transform="matrix(1,0,0,1,1505,1407) translate(74.091796875 52.44140625)"/><use xlink:href="#r" transform="matrix(1,0,0,1,1505,1407) translate(97.666015625 52.44140625)"/><use xlink:href="#s" transform="matrix(1,0,0,1,1505,1407) translate(117.216796875 52.44140625)"/><use xlink:href="#o" transform="matrix(1,0,0,1,1505,1407) translate(137.275390625 52.44140625)"/><use xlink:href="#t" transform="matrix(1,0,0,1,1505,1407) translate(156.318359375 52.44140625)"/><path d="M1720 1406a6 6 0 0 1 6-6h268a6 6 0 0 1 6 6v88a6 6 0 0 1-6 6h-268a6 6 0 0 1-6-6z" fill="#fff" fill-opacity="0"/><path d="M1748 1400h-22a6 6 0 0 0-6 6v88a6 6 0 0 0 6 6h22" stroke="#dfe3e8" stroke-width="3" fill="none"/><use xlink:href="#u" transform="matrix(1,0,0,1,1742.5,1405) translate(0 36.796875)"/><use xlink:href="#v" transform="matrix(1,0,0,1,1742.5,1405) translate(17.539062499999996 36.796875)"/><use xlink:href="#w" transform="matrix(1,0,0,1,1742.5,1405) translate(32.20703124999999 36.796875)"/><use xlink:href="#x" transform="matrix(1,0,0,1,1742.5,1405) translate(51.249999999999986 36.796875)"/><use xlink:href="#y" transform="matrix(1,0,0,1,1742.5,1405) translate(68.08593749999999 36.796875)"/><use xlink:href="#z" transform="matrix(1,0,0,1,1742.5,1405) translate(83.55468749999999 36.796875)"/><use xlink:href="#A" transform="matrix(1,0,0,1,1742.5,1405) translate(103.33984374999999 36.796875)"/><use xlink:href="#B" transform="matrix(1,0,0,1,1742.5,1405) translate(122.65624999999999 36.796875)"/><use xlink:href="#C" transform="matrix(1,0,0,1,1742.5,1405) translate(0 66.50390625)"/><use xlink:href="#w" transform="matrix(1,0,0,1,1742.5,1405) translate(17.460937499999996 66.50390625)"/><use xlink:href="#D" transform="matrix(1,0,0,1,1742.5,1405) translate(36.50390624999999 66.50390625)"/><use xlink:href="#E" transform="matrix(1,0,0,1,1742.5,1405) translate(54.687499999999986 66.50390625)"/><use xlink:href="#A" transform="matrix(1,0,0,1,1742.5,1405) translate(74.68749999999999 66.50390625)"/><use xlink:href="#E" transform="matrix(1,0,0,1,1742.5,1405) translate(94.00390624999999 66.50390625)"/><use xlink:href="#F" transform="matrix(1,0,0,1,1742.5,1405) translate(114.00390624999999 66.50390625)"/><use xlink:href="#G" transform="matrix(1,0,0,1,1742.5,1405) translate(132.07031249999997 66.50390625)"/><use xlink:href="#H" transform="matrix(1,0,0,1,1742.5,1405) translate(150.21484374999997 66.50390625)"/><use xlink:href="#I" transform="matrix(1,0,0,1,1742.5,1405) translate(170.74218749999997 66.50390625)"/><path d="M1800 1206a6 6 0 0 1 6-6h188a6 6 0 0 1 6 6v88a6 6 0 0 1-6 6h-188a6 6 0 0 1-6-6z" stroke="#01579b" stroke-width="3" fill="#0277bd"/><g><use xlink:href="#i" transform="matrix(1,0,0,1,1812,1212) translate(36.29101562500001 45.25390625)"/><use xlink:href="#j" transform="matrix(1,0,0,1,1812,1212) translate(53.830078125 45.25390625)"/><use xlink:href="#k" transform="matrix(1,0,0,1,1812,1212) translate(69.669921875 45.25390625)"/><use xlink:href="#k" transform="matrix(1,0,0,1,1812,1212) translate(88.185546875 45.25390625)"/><use xlink:href="#l" transform="matrix(1,0,0,1,1812,1212) translate(106.701171875 45.25390625)"/><use xlink:href="#m" transform="matrix(1,0,0,1,1812,1212) translate(124.279296875 45.25390625)"/></g><path d="M2260 1398c22.1 0 40 22.4 40 50s-17.9 50-40 50h-120c-22.1 0-40-22.4-40-50s17.9-50 40-50z" stroke="#01579b" stroke-width="3" fill="#fff"/><g><use xlink:href="#J" transform="matrix(1,0,0,1,2105,1403) translate(35.85937500000001 52.44140625)"/><use xlink:href="#q" transform="matrix(1,0,0,1,2105,1403) translate(54.6484375 52.44140625)"/><use xlink:href="#r" transform="matrix(1,0,0,1,2105,1403) translate(78.22265625 52.44140625)"/><use xlink:href="#s" transform="matrix(1,0,0,1,2105,1403) translate(97.7734375 52.44140625)"/><use xlink:href="#o" transform="matrix(1,0,0,1,2105,1403) translate(117.83203125 52.44140625)"/><use xlink:href="#t" transform="matrix(1,0,0,1,2105,1403) translate(136.875 52.44140625)"/></g><path d="M1400 1607a6 6 0 0 1 6-6h188a6 6 0 0 1 6 6v88a6 6 0 0 1-6 6h-188a6 6 0 0 1-6-6z" stroke="#01579b" stroke-width="3" fill="#0277bd"/><g><use xlink:href="#K" transform="matrix(1,0,0,1,1412,1613) translate(28.224609375000014 45.25390625)"/><use xlink:href="#L" transform="matrix(1,0,0,1,1412,1613) translate(35.919921875000014 45.25390625)"/><use xlink:href="#M" transform="matrix(1,0,0,1,1412,1613) translate(55.82226562500001 45.25390625)"/><use xlink:href="#N" transform="matrix(1,0,0,1,1412,1613) translate(71.291015625 45.25390625)"/><use xlink:href="#k" transform="matrix(1,0,0,1,1412,1613) translate(88.556640625 45.25390625)"/><use xlink:href="#l" transform="matrix(1,0,0,1,1412,1613) translate(107.072265625 45.25390625)"/><use xlink:href="#O" transform="matrix(1,0,0,1,1412,1613) translate(124.650390625 45.25390625)"/></g><path d="M2200 1606a6 6 0 0 1 6-6h188a6 6 0 0 1 6 6v88a6 6 0 0 1-6 6h-188a6 6 0 0 1-6-6z" stroke="#01579b" stroke-width="3" fill="#0277bd"/><g><use xlink:href="#P" transform="matrix(1,0,0,1,2212,1612) translate(43.19531250000001 45.25390625)"/><use xlink:href="#M" transform="matrix(1,0,0,1,2212,1612) translate(63.09765625 45.25390625)"/><use xlink:href="#N" transform="matrix(1,0,0,1,2212,1612) translate(78.56640625 45.25390625)"/><use xlink:href="#Q" transform="matrix(1,0,0,1,2212,1612) translate(95.83203125 45.25390625)"/><use xlink:href="#R" transform="matrix(1,0,0,1,2212,1612) translate(114.62109375 45.25390625)"/></g><g fill="none"><path d="M1900 1530c-66.27 0-120 53.73-120 120 0 66.27 53.73 120 120 120 66.27 0 120-53.73 120-120" stroke="#01579b" stroke-width="5"/><path d="M2029.6 1674l-9.6-24-12 24" stroke="#01579b" stroke-width="5"/><path d="M1900 1530c-66.27 0-120 53.73-120 120 0 66.27 53.73 120 120 120 66.27 0 120-53.73 120-120z"/></g><path d="M1500 1806a6 6 0 0 1 6-6h188a6 6 0 0 1 6 6v88a6 6 0 0 1-6 6h-188a6 6 0 0 1-6-6z" stroke="#01579b" stroke-width="3" fill="#0277bd"/><g><use xlink:href="#P" transform="matrix(1,0,0,1,1512,1812) translate(43.19531250000001 45.25390625)"/><use xlink:href="#M" transform="matrix(1,0,0,1,1512,1812) translate(63.09765625 45.25390625)"/><use xlink:href="#N" transform="matrix(1,0,0,1,1512,1812) translate(78.56640625 45.25390625)"/><use xlink:href="#Q" transform="matrix(1,0,0,1,1512,1812) translate(95.83203125 45.25390625)"/><use xlink:href="#R" transform="matrix(1,0,0,1,1512,1812) translate(114.62109375 45.25390625)"/></g><path d="M1720 1806a6 6 0 0 1 6-6h268a6 6 0 0 1 6 6v88a6 6 0 0 1-6 6h-268a6 6 0 0 1-6-6z" fill="#fff" fill-opacity="0"/><path d="M1748 1800h-22a6 6 0 0 0-6 6v88a6 6 0 0 0 6 6h22" stroke="#dfe3e8" stroke-width="3" fill="none"/><g><use xlink:href="#u" transform="matrix(1,0,0,1,1742.5,1805) translate(0 51.650390625)"/><use xlink:href="#v" transform="matrix(1,0,0,1,1742.5,1805) translate(17.539062499999996 51.650390625)"/><use xlink:href="#w" transform="matrix(1,0,0,1,1742.5,1805) translate(32.20703124999999 51.650390625)"/><use xlink:href="#x" transform="matrix(1,0,0,1,1742.5,1805) translate(51.249999999999986 51.650390625)"/><use xlink:href="#y" transform="matrix(1,0,0,1,1742.5,1805) translate(68.08593749999999 51.650390625)"/><use xlink:href="#z" transform="matrix(1,0,0,1,1742.5,1805) translate(83.55468749999999 51.650390625)"/><use xlink:href="#A" transform="matrix(1,0,0,1,1742.5,1805) translate(103.33984374999999 51.650390625)"/><use xlink:href="#S" transform="matrix(1,0,0,1,1742.5,1805) translate(122.65624999999999 51.650390625)"/><use xlink:href="#T" transform="matrix(1,0,0,1,1742.5,1805) translate(142.65624999999997 51.650390625)"/><use xlink:href="#U" transform="matrix(1,0,0,1,1742.5,1805) translate(163.04687499999997 51.650390625)"/></g><path d="M1800 2006a6 6 0 0 1 6-6h188a6 6 0 0 1 6 6v88a6 6 0 0 1-6 6h-188a6 6 0 0 1-6-6z" stroke="#01579b" stroke-width="3" fill="#0277bd"/><g><use xlink:href="#P" transform="matrix(1,0,0,1,1812,2012) translate(35.91992187500001 45.25390625)"/><use xlink:href="#M" transform="matrix(1,0,0,1,1812,2012) translate(55.822265625 45.25390625)"/><use xlink:href="#N" transform="matrix(1,0,0,1,1812,2012) translate(71.291015625 45.25390625)"/><use xlink:href="#k" transform="matrix(1,0,0,1,1812,2012) translate(88.556640625 45.25390625)"/><use xlink:href="#l" transform="matrix(1,0,0,1,1812,2012) translate(107.072265625 45.25390625)"/><use xlink:href="#m" transform="matrix(1,0,0,1,1812,2012) translate(124.650390625 45.25390625)"/></g><path d="M2020 2006a6 6 0 0 1 6-6h268a6 6 0 0 1 6 6v88a6 6 0 0 1-6 6h-268a6 6 0 0 1-6-6z" fill="#fff" fill-opacity="0"/><path d="M2048 2000h-22a6 6 0 0 0-6 6v88a6 6 0 0 0 6 6h22" stroke="#dfe3e8" stroke-width="3" fill="none"/><g><use xlink:href="#V" transform="matrix(1,0,0,1,2042.5,2005) translate(0 36.796875)"/><use xlink:href="#y" transform="matrix(1,0,0,1,2042.5,2005) translate(19.902343749999996 36.796875)"/><use xlink:href="#W" transform="matrix(1,0,0,1,2042.5,2005) translate(35.37109374999999 36.796875)"/><use xlink:href="#X" transform="matrix(1,0,0,1,2042.5,2005) translate(52.636718749999986 36.796875)"/><use xlink:href="#D" transform="matrix(1,0,0,1,2042.5,2005) translate(71.42578124999999 36.796875)"/><use xlink:href="#Y" transform="matrix(1,0,0,1,2042.5,2005) translate(89.60937499999999 36.796875)"/><use xlink:href="#Z" transform="matrix(1,0,0,1,2042.5,2005) translate(109.90234374999999 36.796875)"/><use xlink:href="#aa" transform="matrix(1,0,0,1,2042.5,2005) translate(126.75781249999999 36.796875)"/><use xlink:href="#ab" transform="matrix(1,0,0,1,2042.5,2005) translate(146.75781249999997 36.796875)"/><use xlink:href="#ac" transform="matrix(1,0,0,1,2042.5,2005) translate(0 66.50390625)"/><use xlink:href="#ad" transform="matrix(1,0,0,1,2042.5,2005) translate(19.101562499999996 66.50390625)"/><use xlink:href="#v" transform="matrix(1,0,0,1,2042.5,2005) translate(35.70312499999999 66.50390625)"/><use xlink:href="#D" transform="matrix(1,0,0,1,2042.5,2005) translate(50.37109374999999 66.50390625)"/><use xlink:href="#z" transform="matrix(1,0,0,1,2042.5,2005) translate(68.55468749999999 66.50390625)"/><use xlink:href="#ae" transform="matrix(1,0,0,1,2042.5,2005) translate(88.33984374999999 66.50390625)"/><use xlink:href="#af" transform="matrix(1,0,0,1,2042.5,2005) translate(104.90234374999999 66.50390625)"/><use xlink:href="#ag" transform="matrix(1,0,0,1,2042.5,2005) translate(124.90234374999999 66.50390625)"/></g><path d="M2260 1801c22.1 0 40 22.4 40 50s-17.9 50-40 50h-120c-22.1 0-40-22.4-40-50s17.9-50 40-50z" stroke="#01579b" stroke-width="3" fill="#fff"/><g><use xlink:href="#ax" transform="matrix(1,0,0,1,2105,1806) translate(33.08593750000001 52.44140625)"/><use xlink:href="#ay" transform="matrix(1,0,0,1,2105,1806) translate(52.98828125 52.44140625)"/><use xlink:href="#az" transform="matrix(1,0,0,1,2105,1806) translate(68.45703125 52.44140625)"/><use xlink:href="#az" transform="matrix(1,0,0,1,2105,1806) translate(85.72265625 52.44140625)"/><use xlink:href="#aA" transform="matrix(1,0,0,1,2105,1806) translate(102.98828125 52.44140625)"/><use xlink:href="#aB" transform="matrix(1,0,0,1,2105,1806) translate(120.60546875 52.44140625)"/><use xlink:href="#aC" transform="matrix(1,0,0,1,2105,1806) translate(144.53125 52.44140625)"/></g><path d="M2320 1805a6 6 0 0 1 6-6h208.5a6 6 0 0 1 6 6v88a6 6 0 0 1-6 6H2326a6 6 0 0 1-6-6z" fill="#fff" fill-opacity="0"/><path d="M2342.05 1799H2326a6 6 0 0 0-6 6v88a6 6 0 0 0 6 6h16.05" stroke="#dfe3e8" stroke-width="3" fill="none"/><g><use xlink:href="#an" transform="matrix(1,0,0,1,2338.781496062994,1804) translate(0 36.796875)"/><use xlink:href="#ao" transform="matrix(1,0,0,1,2338.781496062994,1804) translate(19.999999999999996 36.796875)"/><use xlink:href="#ap" transform="matrix(1,0,0,1,2338.781496062994,1804) translate(37.81249999999999 36.796875)"/><use xlink:href="#aq" transform="matrix(1,0,0,1,2338.781496062994,1804) translate(57.812499999999986 36.796875)"/><use xlink:href="#ar" transform="matrix(1,0,0,1,2338.781496062994,1804) translate(76.75781249999999 36.796875)"/><use xlink:href="#as" transform="matrix(1,0,0,1,2338.781496062994,1804) translate(94.84374999999999 36.796875)"/><use xlink:href="#aD" transform="matrix(1,0,0,1,2338.781496062994,1804) translate(114.84374999999999 36.796875)"/><use xlink:href="#aE" transform="matrix(1,0,0,1,2338.781496062994,1804) translate(0 66.50390625)"/><use xlink:href="#au" transform="matrix(1,0,0,1,2338.781496062994,1804) translate(19.999999999999996 66.50390625)"/><use xlink:href="#W" transform="matrix(1,0,0,1,2338.781496062994,1804) translate(38.73046874999999 66.50390625)"/><use xlink:href="#av" transform="matrix(1,0,0,1,2338.781496062994,1804) translate(55.996093749999986 66.50390625)"/><use xlink:href="#aw" transform="matrix(1,0,0,1,2338.781496062994,1804) translate(73.61328124999999 66.50390625)"/></g></g><g class="lucid-layer" lucid:layer-id="O.e4BlOXQFii" display="block"><path d="M1260 2060h100v100h-100zM2480 2060h100v100h-100zM1260 0h100v100h-100zM2480 0h100v100h-100z" stroke="#01579b" fill-opacity="0" opacity="0"/></g><defs><path fill="#6f7681" d="M58-328c-1-253 81-422 306-430 55 0 105 8 150 24v72c-107-41-239-43-303 44-39 47-62 116-67 206l2 1c42-59 108-88 199-88 146-2 242 99 242 246C587-93 483 12 325 10 148 10 59-103 58-328zm85 69c1 105 67 201 182 201 116 0 181-75 180-195 2-108-71-182-177-182-104 0-187 74-185 176" id="aF"/><use transform="matrix(0.03038194444444443,0,0,0.03038194444444443,0,0)" xlink:href="#aF" id="a"/><path fill="#6f7681" d="M160-660v-74h634v74c-48 117-122 229-221 334 99 91 200 192 305 301l-55 54C723-76 622-177 520-272 405-161 267-65 106 16L71-49c273-140 515-346 637-611H160" id="aG"/><use transform="matrix(0.03038194444444443,0,0,0.03038194444444443,0,0)" xlink:href="#aG" id="b"/><path fill="#6f7681" d="M187-673v-71h628v71H187zM71-468h860v72H580C575-127 464-19 240 44l-23-71c193-59 275-136 281-369H71v-72" id="aH"/><use transform="matrix(0.03038194444444443,0,0,0.03038194444444443,0,0)" xlink:href="#aH" id="c"/><path fill="#6f7681" d="M190-34c341-58 440-171 457-552l75 4C716-188 563-8 206 35zM70-543l72-16c21 72 46 163 74 272l-73 17c-23-95-48-186-73-273zm225-29l73-17c27 95 52 189 74 284l-74 16c-23-98-47-192-73-283" id="aI"/><use transform="matrix(0.03038194444444443,0,0,0.03038194444444443,0,0)" xlink:href="#aI" id="d"/><path fill="#6f7681" d="M978-738c0 76-67 144-152 131C797-196 580-11 175 34l-13-73c377-45 563-204 584-596H68v-75h650c-16-87 50-158 128-158 70 0 132 60 132 130zm-132 74c39 1 75-35 74-74 1-39-35-74-74-73-39-1-74 34-73 73-1 39 34 75 73 74" id="aJ"/><use transform="matrix(0.03038194444444443,0,0,0.03038194444444443,0,0)" xlink:href="#aJ" id="e"/><path fill="#6f7681" d="M69-660v-70h809v70c-43 151-150 273-285 336l-41-63c125-62 205-153 242-273H69zm58 628c197-89 241-232 244-531h78c-3 336-61 494-285 597" id="aK"/><use transform="matrix(0.03038194444444443,0,0,0.03038194444444443,0,0)" xlink:href="#aK" id="f"/><path fill="#6f7681" d="M243-34c309-18 506-153 511-458v-97H145v251H68v-320h334v-164h79v164h351v166C829-147 599 21 252 38" id="aL"/><use transform="matrix(0.03038194444444443,0,0,0.03038194444444443,0,0)" xlink:href="#aL" id="g"/><path fill="#6f7681" d="M147-785v299c189 45 379 104 572 176l-24 74c-194-73-377-130-548-171V48H65v-833h82" id="aM"/><use transform="matrix(0.03038194444444443,0,0,0.03038194444444443,0,0)" xlink:href="#aM" id="h"/><path fill="#fff" d="M69-720h761c3 479-214 695-654 744l-14-73c377-45 564-206 585-596H69v-75" id="aN"/><use transform="matrix(0.019531249999999997,0,0,0.019531249999999997,0,0)" xlink:href="#aN" id="i"/><path fill="#fff" d="M441-43c42-2 45-3 45-45v-284C368-251 241-152 105-74l-34-59c144-81 276-187 397-317H70v-65h416v-129h73v129h181v65H559v363C555 14 548 20 447 24c-43 0-89-3-138-9l5-66c53 5 96 8 127 8" id="aO"/><use transform="matrix(0.019531249999999997,0,0,0.019531249999999997,0,0)" xlink:href="#aO" id="j"/><path fill="#fff" d="M69-660v-70h809v70c-43 151-150 273-285 336l-41-63c125-62 205-153 242-273H69zm58 628c197-89 241-232 244-531h78c-3 336-61 494-285 597" id="aP"/><use transform="matrix(0.019531249999999997,0,0,0.019531249999999997,0,0)" xlink:href="#aP" id="k"/><path fill="#fff" d="M243-34c309-18 506-153 511-458v-97H145v251H68v-320h334v-164h79v164h351v166C829-147 599 21 252 38" id="aQ"/><use transform="matrix(0.019531249999999997,0,0,0.019531249999999997,0,0)" xlink:href="#aQ" id="l"/><path fill="#fff" d="M147-785v299c189 45 379 104 572 176l-24 74c-194-73-377-130-548-171V48H65v-833h82" id="aR"/><use transform="matrix(0.019531249999999997,0,0,0.019531249999999997,0,0)" xlink:href="#aR" id="m"/><path fill="#01579b" d="M535-56c54-2 60-6 60-60v-380C447-338 285-209 108-109l-35-62c180-103 369-257 503-410H70v-69h525v-164h77v164h232v69H672v466C668 0 656 11 542 15c-52 0-110-3-174-10l6-72c57 7 111 10 161 11" id="aS"/><use transform="matrix(0.019531249999999997,0,0,0.019531249999999997,0,0)" xlink:href="#aS" id="n"/><path fill="#01579b" d="M71-330v-78h834v78H71" id="aT"/><use transform="matrix(0.019531249999999997,0,0,0.019531249999999997,0,0)" xlink:href="#aT" id="o"/><path fill="#01579b" d="M978-738c0 76-67 144-152 131C797-196 580-11 175 34l-13-73c377-45 563-204 584-596H68v-75h650c-16-87 50-158 128-158 70 0 132 60 132 130zm-132 74c39 1 75-35 74-74 1-39-35-74-74-73-39-1-74 34-73 73-1 39 34 75 73 74" id="aU"/><use transform="matrix(0.019531249999999997,0,0,0.019531249999999997,0,0)" xlink:href="#aU" id="p"/><path fill="#01579b" d="M70-677l36-69c109 55 214 113 314 174l-40 69c-94-59-197-117-310-174zM92-67c397-38 624-223 694-586l75 16C792-244 540-28 104 10" id="aV"/><use transform="matrix(0.019531249999999997,0,0,0.019531249999999997,0,0)" xlink:href="#aV" id="q"/><path fill="#01579b" d="M156-737h690v73H457v234h474v72H457c11 120-39 289 81 304 96 12 223 3 322-5l3 72c-116 8-265 22-371 2C389-5 371-88 371-222v-136H71v-72h300v-234H156v-73" id="aW"/><use transform="matrix(0.019531249999999997,0,0,0.019531249999999997,0,0)" xlink:href="#aW" id="r"/><path fill="#01579b" d="M433-39c52-2 49-4 49-59v-499H96v-72h386v-147h82v147h366v72H564v508C560 18 553 30 448 34c-50 0-103-5-161-14l8-70c45 7 91 11 138 11zM243-457l73 27C263-309 204-192 141-77l-70-33c64-116 121-232 172-347zm468 27l70-31c63 119 121 239 175 361l-73 29c-59-132-116-252-172-359" id="aX"/><use transform="matrix(0.019531249999999997,0,0,0.019531249999999997,0,0)" xlink:href="#aX" id="s"/><path fill="#01579b" d="M733-625H330c-40 118-108 222-204 311l-55-50c127-119 200-266 220-439l77 5c-3 31-9 65-18 102h466c1 488-214 682-675 724l-12-72c398-43 584-176 604-581" id="aY"/><use transform="matrix(0.019531249999999997,0,0,0.019531249999999997,0,0)" xlink:href="#aY" id="t"/><path fill="#6f7681" d="M69-720h761c3 479-214 695-654 744l-14-73c377-45 564-206 585-596H69v-75" id="aZ"/><use transform="matrix(0.019531249999999997,0,0,0.019531249999999997,0,0)" xlink:href="#aZ" id="u"/><path fill="#6f7681" d="M169-24c304-52 424-140 431-473v-264h84v262C679-131 523 2 187 51zM66-310v-451h82v451H66" id="ba"/><use transform="matrix(0.019531249999999997,0,0,0.019531249999999997,0,0)" xlink:href="#ba" id="v"/><path fill="#6f7681" d="M71-330v-78h834v78H71" id="bb"/><use transform="matrix(0.019531249999999997,0,0,0.019531249999999997,0,0)" xlink:href="#bb" id="w"/><path fill="#6f7681" d="M148-46c308-20 480-164 570-414l73 29C677-119 437 35 65 31v-792h83v715" id="bc"/><use transform="matrix(0.019531249999999997,0,0,0.019531249999999997,0,0)" xlink:href="#bc" id="x"/><use transform="matrix(0.019531249999999997,0,0,0.019531249999999997,0,0)" xlink:href="#aI" id="y"/><path fill="#6f7681" d="M703-803l56-30c28 46 57 97 86 153l-35 17C804-189 585-4 134 38l-11-72c396-41 578-173 603-570H326c-39 112-105 212-200 300l-55-49c126-119 199-265 219-440l77 6c-4 40-10 77-19 111h428c-25-46-49-88-73-127zm138-17l58-30c31 51 60 103 88 156l-58 28c-30-56-59-107-88-154" id="bd"/><use transform="matrix(0.019531249999999997,0,0,0.019531249999999997,0,0)" xlink:href="#bd" id="z"/><path fill="#6f7681" d="M314-133c-5-163 211-201 348-139v-291H341v-69h321v-170h75v170h181v69H737v335c50 34 111 87 182 158l-52 52c-49-50-93-90-130-121-5 125-72 187-202 187-129 2-217-59-221-181zM192-776c-67 248-67 566 0 815l-73 10c-68-254-70-582 0-835zM532-20c108 2 136-60 130-173-80-61-273-52-273 60 0 75 48 113 143 113" id="be"/><use transform="matrix(0.019531249999999997,0,0,0.019531249999999997,0,0)" xlink:href="#be" id="A"/><path fill="#6f7681" d="M187-340v127h240v-127H187zm0-62h240v-122H187v122zM54-660v-67h274c-21-40-42-76-61-108l75-19c25 39 48 82 71 127h202c23-38 46-80 67-126l77 16c-19 39-38 75-58 110h269v67H54zM386 2c50-2 41-4 41-59v-94H187V75h-77v-666h393v538c-6 115 5 121-107 125-11 0-45-2-103-5l-1-70c44 3 75 5 94 5zm219-107v-468h77v468h-77zM796 2c50-2 48-6 48-60v-546h78v550c-5 114-5 125-116 129-30 0-74-2-132-5l-2-73c54 3 95 5 124 5" id="bf"/><use transform="matrix(0.019531249999999997,0,0,0.019531249999999997,0,0)" xlink:href="#bf" id="B"/><path fill="#6f7681" d="M71-367c110-102 191-257 213-439l74 4c-2 23-7 55-15 95h483C831-208 617-4 150 38l-11-72c240-23 407-82 509-232-113-59-227-113-342-163l36-69c111 49 226 103 344 163 35-79 54-179 57-300H325c-39 123-106 229-201 318" id="bg"/><use transform="matrix(0.019531249999999997,0,0,0.019531249999999997,0,0)" xlink:href="#bg" id="C"/><path fill="#6f7681" d="M70-677l36-69c109 55 214 113 314 174l-40 69c-94-59-197-117-310-174zM92-67c397-38 624-223 694-586l75 16C792-244 540-28 104 10" id="bh"/><use transform="matrix(0.019531249999999997,0,0,0.019531249999999997,0,0)" xlink:href="#bh" id="D"/><path fill="#6f7681" d="M224-422V89h-77v-443c-33 38-66 70-100 95l-24-79c101-74 180-163 238-267l62 37c-27 50-60 99-99 146zm441 311c64-36 117-80 159-133H503c43 49 97 94 162 133zM65-556l-32-66c96-59 173-131 230-215l62 36c-66 98-153 180-260 245zm421-61c14 14 69 67 83 81 104-81 195-160 274-237l57 48C787-616 669-518 548-431l323-13c-33-57-58-98-74-123l68-33c55 89 102 171 141 246l-68 29c-8-16-18-35-31-56l-322 12c-13 22-28 43-46 64h373c-1 20 3 45-2 61-44 63-104 119-181 169 78 39 163 69 255 92l-22 65C851 53 750 14 660-36 555 18 433 57 296 82l-25-64C394-2 502-33 595-75c-61-40-113-84-156-132-40 34-80 62-121 85l-38-59c76-39 166-116 215-184l-194 9-2-66 122-4c28-20 57-41 88-63-76-76-138-136-185-181l52-53c12 11 32 30 59 56 74-60 139-118 194-174l59 43c-56 57-123 117-202 181" id="bi"/><use transform="matrix(0.019531249999999997,0,0,0.019531249999999997,0,0)" xlink:href="#bi" id="E"/><path fill="#6f7681" d="M529-399c-160 0-311 64-429 132l-29-57c181-120 366-237 545-359H158v-67h593l5 70-402 247 1 2c70-22 136-33 199-33 202 0 303 72 303 216C857-61 720 33 446 33c-59 0-126-4-201-13l1-71c67 8 132 12 195 12 221 0 331-67 331-202 0-126-98-158-243-158" id="bj"/><use transform="matrix(0.019531249999999997,0,0,0.019531249999999997,0,0)" xlink:href="#bj" id="F"/><path fill="#6f7681" d="M398-625v-69h435v69H398zM195-776c-65 241-65 575 0 815l-77 10c-68-254-68-582 0-835zm311 428c-71 52-172 187-50 248 99 49 265 34 391 2l11 68C652 29 320 26 320-187c0-86 70-159 131-208" id="bk"/><use transform="matrix(0.019531249999999997,0,0,0.019531249999999997,0,0)" xlink:href="#bk" id="G"/><path fill="#6f7681" d="M320-130c-4-170 219-200 366-136v-413c111 0 210 7 295 21l-10 67c-67-11-138-17-211-18v377c65 35 139 85 220 151l-48 55c-69-55-126-97-172-126C753-8 690 43 538 44c-125 2-217-57-218-174zM93-611v-68h189c19-61 34-113 45-156l71 11c-11 47-25 96-40 145h192v68H337C286-450 221-277 140-91l-69-25c75-171 138-336 190-495H93zM538-20c125 1 150-46 148-174-92-55-297-57-291 64 1 75 62 111 143 110" id="bl"/><use transform="matrix(0.019531249999999997,0,0,0.019531249999999997,0,0)" xlink:href="#bl" id="H"/><path fill="#6f7681" d="M177-120c0-96 107-143 225-143 181 0 251 89 197 227 117-27 175-96 175-207-4-130-95-169-241-169-139 0-283 42-433 127l-29-55c184-117 371-232 553-351H144v-67h618l4 68-402 243c67-15 133-28 193-27 201 0 301 74 301 223C854-42 694 46 467 44c-193 0-290-55-290-164zm221-78c-73-1-136 22-143 78 0 30 18 54 53 71 42 23 132 30 213 24 56-98 25-177-123-173" id="bm"/><use transform="matrix(0.019531249999999997,0,0,0.019531249999999997,0,0)" xlink:href="#bm" id="I"/><path fill="#01579b" d="M71-384c295-40 609-200 769-380l51 55c-79 87-182 164-307 231V46h-83v-482C365-373 226-331 84-310" id="bn"/><use transform="matrix(0.019531249999999997,0,0,0.019531249999999997,0,0)" xlink:href="#bn" id="J"/><path fill="#fff" d="M270 143C155 37 72-117 72-322s83-361 198-466h78C216-664 150-508 150-322s67 341 198 465h-78" id="bo"/><use transform="matrix(0.019531249999999997,0,0,0.019531249999999997,0,0)" xlink:href="#bo" id="K"/><path fill="#fff" d="M613-755l61-32c33 55 65 111 96 167l-62 30c-27-51-58-106-95-165zm143-39l63-33c40 66 73 123 98 172l-63 30c-32-58-65-114-98-169zm-53 290l77-24C841-370 897-191 948 8l-83 18c-50-201-104-378-162-530zM382-713C353-451 275-207 147 20L71-15c123-219 199-454 229-703" id="bp"/><use transform="matrix(0.019531249999999997,0,0,0.019531249999999997,0,0)" xlink:href="#bp" id="L"/><path fill="#fff" d="M190-34c341-58 440-171 457-552l75 4C716-188 563-8 206 35zM70-543l72-16c21 72 46 163 74 272l-73 17c-23-95-48-186-73-273zm225-29l73-17c27 95 52 189 74 284l-74 16c-23-98-47-192-73-283" id="bq"/><use transform="matrix(0.019531249999999997,0,0,0.019531249999999997,0,0)" xlink:href="#bq" id="M"/><path fill="#fff" d="M733-625H330c-40 118-108 222-204 311l-55-50c127-119 200-266 220-439l77 5c-3 31-9 65-18 102h466c1 488-214 682-675 724l-12-72c398-43 584-176 604-581" id="br"/><use transform="matrix(0.019531249999999997,0,0,0.019531249999999997,0,0)" xlink:href="#br" id="N"/><path fill="#fff" d="M124-788c115 106 197 261 199 466-2 205-84 360-199 465H46C178 19 244-136 244-322S178-664 46-788h78" id="bs"/><g id="O"><use transform="matrix(0.019531249999999997,0,0,0.019531249999999997,0,0)" xlink:href="#aR"/><use transform="matrix(0.019531249999999997,0,0,0.019531249999999997,15.429687499999996,0)" xlink:href="#bs"/></g><use transform="matrix(0.019531249999999997,0,0,0.019531249999999997,0,0)" xlink:href="#bp" id="P"/><path fill="#fff" d="M71-384c295-40 609-200 769-380l51 55c-79 87-182 164-307 231V46h-83v-482C365-373 226-331 84-310" id="bt"/><use transform="matrix(0.019531249999999997,0,0,0.019531249999999997,0,0)" xlink:href="#bt" id="Q"/><path fill="#fff" d="M70-677l36-69c109 55 214 113 314 174l-40 69c-94-59-197-117-310-174zM92-67c397-38 624-223 694-586l75 16C792-244 540-28 104 10" id="bu"/><use transform="matrix(0.019531249999999997,0,0,0.019531249999999997,0,0)" xlink:href="#bu" id="R"/><path fill="#6f7681" d="M669-162V89h-80v-251H377v65h-77v-606h289v-123h80v123h290v606h-78v-65H669zm0-66h212v-174H669v174zM377-402v174h212v-174H377zm212-233H377v166h212v-166zm80 0v166h212v-166H669zm-454 91V89h-77v-495c-29 54-58 98-85 132l-35-83c97-130 164-287 202-472l75 14c-19 100-45 190-80 271" id="bv"/><use transform="matrix(0.019531249999999997,0,0,0.019531249999999997,0,0)" xlink:href="#bv" id="S"/><path fill="#6f7681" d="M746-835l59-20c25 55 48 108 68 160l-60 19c-13-36-36-89-67-159zm125-17l61-20c32 71 55 125 70 163l-62 20c-20-52-43-106-69-163zM296-123c-5-159 203-200 341-142v-281H324v-68h313v-178h76v178h205v68H713v323c50 33 113 88 188 164L849-8c-46-47-92-89-137-126C709-5 645 59 519 58 390 60 300-1 296-123zM192-766c-67 248-67 568 0 815l-74 10c-68-254-68-582 0-835zM514-10c103 2 129-66 123-176-80-57-266-46-266 63 0 75 48 113 143 113" id="bw"/><use transform="matrix(0.019531249999999997,0,0,0.019531249999999997,0,0)" xlink:href="#bw" id="T"/><path fill="#6f7681" d="M255-376c0-166 210-254 335-148v-111H71v-64h519v-134h75v134h280v64H665v229c40 128 15 286-63 358C546 4 459 41 338 58l-11-71c169-23 275-71 284-237h-2c-31 46-83 69-155 69-109 3-199-86-199-195zm210-126c-71 0-135 56-133 126-2 70 62 127 133 127 72 0 135-57 133-127 2-70-61-126-133-126" id="bx"/><use transform="matrix(0.019531249999999997,0,0,0.019531249999999997,0,0)" xlink:href="#bx" id="U"/><path fill="#6f7681" d="M613-755l61-32c33 55 65 111 96 167l-62 30c-27-51-58-106-95-165zm143-39l63-33c40 66 73 123 98 172l-63 30c-32-58-65-114-98-169zm-53 290l77-24C841-370 897-191 948 8l-83 18c-50-201-104-378-162-530zM382-713C353-451 275-207 147 20L71-15c123-219 199-454 229-703" id="by"/><use transform="matrix(0.019531249999999997,0,0,0.019531249999999997,0,0)" xlink:href="#by" id="V"/><path fill="#6f7681" d="M733-625H330c-40 118-108 222-204 311l-55-50c127-119 200-266 220-439l77 5c-3 31-9 65-18 102h466c1 488-214 682-675 724l-12-72c398-43 584-176 604-581" id="bz"/><use transform="matrix(0.019531249999999997,0,0,0.019531249999999997,0,0)" xlink:href="#bz" id="W"/><path fill="#6f7681" d="M71-384c295-40 609-200 769-380l51 55c-79 87-182 164-307 231V46h-83v-482C365-373 226-331 84-310" id="bA"/><use transform="matrix(0.019531249999999997,0,0,0.019531249999999997,0,0)" xlink:href="#bA" id="X"/><path fill="#6f7681" d="M83-546v-68h200c19-84 34-156 44-216l74 8c-9 60-23 129-41 208 100 6 225-18 284 35 36 48 27 146 29 228 0 126-15 222-45 287-67 151-178 99-322 42l24-68c77 33 133 49 169 49 15 0 30-10 44-31 50-85 57-266 49-411-6-99-154-52-249-63-51 205-118 400-202 587L71 13c80-177 145-363 196-559H83zm635-135l71-26c76 172 136 346 181 521l-73 18c-47-177-106-348-179-513" id="bB"/><use transform="matrix(0.019531249999999997,0,0,0.019531249999999997,0,0)" xlink:href="#bB" id="Y"/><path fill="#6f7681" d="M498-396c-130 3-278 76-358 143l-69-18c18-98 35-206 51-324l77 7c-13 101-26 182-37 244l2 1c75-61 217-120 344-121 191 0 287 76 287 228 0 90-38 156-111 206-108 74-353 82-544 59l5-70c85 9 153 13 206 13 237 0 356-69 357-208 0-107-70-161-210-160zM200-768c158 21 311 31 459 31v68c-154 0-310-10-467-30" id="bC"/><use transform="matrix(0.019531249999999997,0,0,0.019531249999999997,0,0)" xlink:href="#bC" id="Z"/><path fill="#6f7681" d="M125-548h134v-186H125v186zm329 164h141v-162H454v162zM34 14c6-2 27-10 33-12v-412h67v385l52-21v-437H50v-318h280v318h-72v125h84v68h-84v211c13-6 34-16 61-30l7 69C222 12 128 53 45 82zm321-685v-66h130v-100h79v100h128v66H355zM387 7l-61-24c36-79 63-165 80-258l61 15c-18 99-45 188-80 267zm487-37c2 31-3 31 26 32 13 0 22-4 26-11 8 2 12-177 11-263l63 7c-1 165-5 263-14 293s-38 45-86 45c-82-4-94-1-94-79v-328C780-153 729-15 654 78l-54-49c29-35 55-76 76-123l-39 19c-17-69-36-131-56-186l57-24c19 47 36 100 51 161 47-116 72-264 74-445h-96v246H564v272c-7 92 13 120-60 126-21 0-49-2-84-5l-2-70c25 3 43 5 54 5 28-3 20-13 20-53v-275H381v-283h283v-35h99v-184h75v184h153v72H838v68h36v471zm52-639c-23-59-44-111-65-156l57-24c27 59 48 112 65 157" id="bD"/><use transform="matrix(0.019531249999999997,0,0,0.019531249999999997,0,0)" xlink:href="#bD" id="aa"/><use transform="matrix(0.019531249999999997,0,0,0.019531249999999997,0,0)" xlink:href="#bm" id="ab"/><path fill="#6f7681" d="M414-800l82-6 13 175 354-12 3 72-350 12 20 265 368-11 3 72-366 11 23 284-82 7-23-288-385 12-3-72 383-12-21-265-318 11-3-71 316-12" id="bE"/><use transform="matrix(0.019531249999999997,0,0,0.019531249999999997,0,0)" xlink:href="#bE" id="ac"/><path fill="#6f7681" d="M243-615l77-14 31 173 415-86 14 71c-23 121-99 242-181 306l-55-51c68-55 131-144 155-239l-335 70 77 423-78 14-75-421-203 42-14-70 203-42" id="bF"/><use transform="matrix(0.019531249999999997,0,0,0.019531249999999997,0,0)" xlink:href="#bF" id="ad"/><path fill="#6f7681" d="M180-791l80-12c19 113 43 224 70 331 108-50 250-95 425-135l15 70c-207 47-362 100-464 158S153-260 153-195C153-86 254-31 457-31c93 0 198-8 313-23l8 71C567 45 310 65 170-18c-66-40-99-98-99-173 0-91 61-172 184-243-31-125-56-244-75-357" id="bG"/><use transform="matrix(0.019531249999999997,0,0,0.019531249999999997,0,0)" xlink:href="#bG" id="ae"/><path fill="#6f7681" d="M371-84v82h-76v-431h434v349H371zm0-61h282v-227H371v227zM794-3c60-3 59 0 59-60v-671H171V74H92v-876h840v739c-5 119-4 126-121 130-18 0-73-2-165-6l-2-69c91 3 141 5 150 5zM246-553v-64h532v64H246" id="bH"/><use transform="matrix(0.019531249999999997,0,0,0.019531249999999997,0,0)" xlink:href="#bH" id="af"/><path fill="#6f7681" d="M581 13c50-2 49-6 49-59v-105C549-81 451-13 334 52L296-9c131-67 242-143 334-227v-97H361v-66h269v-98H384v-63h246v-92H361v-67h157c-17-33-37-66-58-101l69-24c23 37 47 78 70 125h154c27-44 49-85 67-124l70 20c-13 29-32 63-55 104h131v66H709v93h243v63H709v98h271v66H709v6c22 46 49 90 82 133 45-37 86-78 121-122l55 44c-37 47-81 91-132 132C885-85 940-38 1000 1l-42 62C854-4 771-93 709-205v157c-4 113-7 126-117 130-22 0-60-2-115-5l-2-69c51 3 87 5 106 5zM361-269l54-47c42 42 80 84 114 126l-54 47c-33-39-71-81-114-126zM248-581c11 31 96 244 108 274l-50 51c-25-69-47-130-67-184V89h-76v-461c-27 91-60 171-97 240l-46-71c65-121 110-247 137-378H42v-67h121v-178h76v178h108v67h-99" id="bI"/><use transform="matrix(0.019531249999999997,0,0,0.019531249999999997,0,0)" xlink:href="#bI" id="ag"/><path fill="#0d47a1" d="M613-755l61-32c33 55 65 111 96 167l-62 30c-27-51-58-106-95-165zm143-39l63-33c40 66 73 123 98 172l-63 30c-32-58-65-114-98-169zm-53 290l77-24C841-370 897-191 948 8l-83 18c-50-201-104-378-162-530zM382-713C353-451 275-207 147 20L71-15c123-219 199-454 229-703" id="bJ"/><use transform="matrix(0.019531249999999997,0,0,0.019531249999999997,0,0)" xlink:href="#bJ" id="ah"/><path fill="#0d47a1" d="M190-34c341-58 440-171 457-552l75 4C716-188 563-8 206 35zM70-543l72-16c21 72 46 163 74 272l-73 17c-23-95-48-186-73-273zm225-29l73-17c27 95 52 189 74 284l-74 16c-23-98-47-192-73-283" id="bK"/><use transform="matrix(0.019531249999999997,0,0,0.019531249999999997,0,0)" xlink:href="#bK" id="ai"/><path fill="#0d47a1" d="M733-625H330c-40 118-108 222-204 311l-55-50c127-119 200-266 220-439l77 5c-3 31-9 65-18 102h466c1 488-214 682-675 724l-12-72c398-43 584-176 604-581" id="bL"/><use transform="matrix(0.019531249999999997,0,0,0.019531249999999997,0,0)" xlink:href="#bL" id="aj"/><path fill="#0d47a1" d="M837-7H65v-723h772V-7zM147-80h608v-577H147v577" id="bM"/><use transform="matrix(0.019531249999999997,0,0,0.019531249999999997,0,0)" xlink:href="#bM" id="ak"/><path fill="#0d47a1" d="M160-660v-74h634v74c-48 117-122 229-221 334 99 91 200 192 305 301l-55 54C723-76 622-177 520-272 405-161 267-65 106 16L71-49c273-140 515-346 637-611H160" id="bN"/><use transform="matrix(0.019531249999999997,0,0,0.019531249999999997,0,0)" xlink:href="#bN" id="al"/><path fill="#0d47a1" d="M325 0c-1-218 3-441-2-656L113-486v-91l212-171h82V0h-82" id="bO"/><use transform="matrix(0.019531249999999997,0,0,0.019531249999999997,0,0)" xlink:href="#bO" id="am"/><path fill="#6f7681" d="M159-302h120v-187H161c0 70 1 113-2 187zm313-217v343h285v-65l-43 38c-35-55-61-96-80-121-33 55-71 102-113 142l-42-54c38-33 76-81 114-144-37-49-78-96-121-139zM279-732H161v176h118v-176zM31 35c83-202 51-544 58-836h259v266c59-94 103-197 130-310l75 10c-12 46-24 85-36 116h453c-7 246-2 462-38 670-11 67-24 116-99 118-55 0-125-3-210-10l-2-71c81 6 141 9 180 9 54 0 49-30 60-97 28-168 23-312 31-548H488c-19 42-37 80-56 113h35l37-40c41 37 81 82 122 134 27-57 49-116 64-176l59 21c-20 77-47 147-81 212 27 39 57 83 89 132v-283h67v422H476v70h-74v-443c-15 25-33 49-54 74v359c-7 100 13 125-70 130-19 0-56-2-113-5l-4-70c37 3 66 5 87 5 41-2 31-10 31-60v-183H157C150-109 128-1 93 86" id="bP"/><use transform="matrix(0.019531249999999997,0,0,0.019531249999999997,0,0)" xlink:href="#bP" id="an"/><path fill="#6f7681" d="M528-390c-17-54-39-81-100-84-41 0-87 20-139 60s-104 96-156 170l-63-40c84-117 153-235 206-354H76v-65h228c16-38 31-80 46-125l73 17-40 108h444v65H355c-22 52-50 106-74 160 123-94 275-88 321 69 69-16 147-29 234-40l7 67c-93 12-168 25-227 39 9 51 13 118 13 200h-79c0-74-3-134-9-181-163 47-247 107-243 178C304-25 440-32 574-26c76 0 159-7 250-22l7 68C681 48 405 55 304-2c-56-29-84-75-84-138 0-109 103-192 308-250" id="bQ"/><use transform="matrix(0.019531249999999997,0,0,0.019531249999999997,0,0)" xlink:href="#bQ" id="ao"/><path fill="#6f7681" d="M279-470c71-92 137-251 166-389l77 10c-7 36-16 69-25 99h470c-4 166-11 288-19 367s-18 128-29 149c-34 53-99 24-184 26l-2-66H464v194c0 45 8 72 24 79 58 12 327 26 384-15 35-49 40-99 42-189l79 20C985-59 978 59 856 72c-120 13-285 16-402-1-64-9-70-71-70-151v-263h314v-179H453v-67h322v314c75 7 77 3 90-65 14-103 17-200 22-341H474c-37 107-82 193-135 260zM121 15c34-3 24-13 24-59v-190c-36 11-71 21-104 29l-7-71c52-13 89-23 111-31v-264H36v-69h109v-186h78v186h107v69H223v236c34-13 65-26 94-40l14 67c-29 15-65 30-108 46v214c-6 107 7 126-92 130-15 0-43-2-86-5l-2-67c33 3 59 5 78 5" id="bR"/><use transform="matrix(0.019531249999999997,0,0,0.019531249999999997,0,0)" xlink:href="#bR" id="ap"/><path fill="#6f7681" d="M139-566h636v76L521-282c30-4 56 3 73 27 26 19 51 177 82 198 46 31 148 17 208 0l14 67c-82 23-213 36-272-8-25-19-44-55-57-106-21-70-23-109-82-120-41 2-35 5-77 34C302-116 254-70 118 39L72-18l593-479c-171-5-351-1-526-2v-67zm108-158l9-68c153 25 304 37 452 37v71c-134 0-288-13-461-40" id="bS"/><use transform="matrix(0.019531249999999997,0,0,0.019531249999999997,0,0)" xlink:href="#bS" id="aq"/><use transform="matrix(0.019531249999999997,0,0,0.019531249999999997,0,0)" xlink:href="#bm" id="ar"/><use transform="matrix(0.019531249999999997,0,0,0.019531249999999997,0,0)" xlink:href="#bI" id="as"/><path fill="#6f7681" d="M141-489c0 61 0 125-1 187h101v-187H141zm0-67h100v-176H141v176zm175 281c72-89 139-232 167-366l67 10c-5 24-12 51-21 81h143c7 293-122 523-310 627l-44-58c87-45 157-120 212-225-41-43-77-78-106-103-21 33-43 63-67 91zm245 2c27-67 42-138 47-213h-99c-11 31-28 70-51 115 28 25 62 57 103 98zM309-46c-7 94 11 118-68 123-15 0-48-2-97-5l-4-70c29 3 53 5 72 5 37-3 29-12 29-60v-183H138C133-95 115 13 86 86L26 34c72-190 37-554 46-835h237v755zm474-218c65-2 95 25 95-43v-210H756v479c3 54 14 40 81 40 42 0 67-7 75-22s14-66 17-154l69 9c-8 89 4 178-50 220-29 14-64 16-110 15-126-9-153 16-153-96v-555h221v-102H423v154h-75v-221h274v-103h81v103h280v210h-36v243c-6 88 9 99-71 102-17 0-45-1-84-3" id="bT"/><use transform="matrix(0.019531249999999997,0,0,0.019531249999999997,0,0)" xlink:href="#bT" id="at"/><path fill="#6f7681" d="M310-432c1-22 9-151 10-175H95v-69h229c2-22 10-113 11-137l77 3c-3 39-6 83-9 134h403v69H399c-1 24-9 153-10 175h355v68H386c-3 81-4 130-4 149 5 167 26 192 194 195 197 3 272-86 228-247l72-18c9 38 14 73 15 104C887-11 762 52 576 51 359 46 309 1 304-215c0-39 1-89 3-149H71v-68h239" id="bU"/><use transform="matrix(0.019531249999999997,0,0,0.019531249999999997,0,0)" xlink:href="#bU" id="au"/><path fill="#6f7681" d="M837-7H65v-723h772V-7zM147-80h608v-577H147v577" id="bV"/><use transform="matrix(0.019531249999999997,0,0,0.019531249999999997,0,0)" xlink:href="#bV" id="av"/><use transform="matrix(0.019531249999999997,0,0,0.019531249999999997,0,0)" xlink:href="#aG" id="aw"/><path fill="#01579b" d="M613-755l61-32c33 55 65 111 96 167l-62 30c-27-51-58-106-95-165zm143-39l63-33c40 66 73 123 98 172l-63 30c-32-58-65-114-98-169zm-53 290l77-24C841-370 897-191 948 8l-83 18c-50-201-104-378-162-530zM382-713C353-451 275-207 147 20L71-15c123-219 199-454 229-703" id="bW"/><use transform="matrix(0.019531249999999997,0,0,0.019531249999999997,0,0)" xlink:href="#bW" id="ax"/><path fill="#01579b" d="M190-34c341-58 440-171 457-552l75 4C716-188 563-8 206 35zM70-543l72-16c21 72 46 163 74 272l-73 17c-23-95-48-186-73-273zm225-29l73-17c27 95 52 189 74 284l-74 16c-23-98-47-192-73-283" id="bX"/><use transform="matrix(0.019531249999999997,0,0,0.019531249999999997,0,0)" xlink:href="#bX" id="ay"/><use transform="matrix(0.019531249999999997,0,0,0.019531249999999997,0,0)" xlink:href="#aY" id="az"/><path fill="#01579b" d="M837-7H65v-723h772V-7zM147-80h608v-577H147v577" id="bY"/><use transform="matrix(0.019531249999999997,0,0,0.019531249999999997,0,0)" xlink:href="#bY" id="aA"/><path fill="#01579b" d="M160-660v-74h634v74c-48 117-122 229-221 334 99 91 200 192 305 301l-55 54C723-76 622-177 520-272 405-161 267-65 106 16L71-49c273-140 515-346 637-611H160" id="bZ"/><use transform="matrix(0.019531249999999997,0,0,0.019531249999999997,0,0)" xlink:href="#bZ" id="aB"/><path fill="#01579b" d="M325 0c-1-218 3-441-2-656L113-486v-91l212-171h82V0h-82" id="ca"/><use transform="matrix(0.019531249999999997,0,0,0.019531249999999997,0,0)" xlink:href="#ca" id="aC"/><use transform="matrix(0.019531249999999997,0,0,0.019531249999999997,0,0)" xlink:href="#bk" id="aD"/><use transform="matrix(0.019531249999999997,0,0,0.019531249999999997,0,0)" xlink:href="#bT" id="aE"/></defs></g></svg>