<svg xmlns="http://www.w3.org/2000/svg" xmlns:xlink="http://www.w3.org/1999/xlink" xmlns:lucid="lucid" width="1360" height="2200"><g transform="translate(-1240 20)" lucid:page-tab-id="ciC2ne-wUh5u"><path d="M1703 102.55h393.84M1703.03 102.55H1702M2096.82 102.55h1.02" stroke="#b2b2b2" stroke-width="2" fill="none"/><path d="M1660 40h480v80h-480z" fill="none"/><use xlink:href="#a" transform="matrix(1,0,0,1,1665,45) translate(136.0143229166667 45.34505208333333)"/><use xlink:href="#b" transform="matrix(1,0,0,1,1665,45) translate(155.27647569444449 45.34505208333333)"/><use xlink:href="#c" transform="matrix(1,0,0,1,1665,45) translate(184.10894097222223 45.34505208333333)"/><use xlink:href="#d" transform="matrix(1,0,0,1,1665,45) translate(214.52126736111111 45.34505208333333)"/><use xlink:href="#e" transform="matrix(1,0,0,1,1665,45) translate(238.5837673611111 45.34505208333333)"/><use xlink:href="#f" transform="matrix(1,0,0,1,1665,45) translate(277.47265625 45.34505208333333)"/><use xlink:href="#g" transform="matrix(1,0,0,1,1665,45) translate(306.70008680555554 45.34505208333333)"/><g class="lucid-layer" lucid:layer-id="cPg4hUY23rHK" display="block"><path d="M2000 2006a6 6 0 0 1 6-6h188a6 6 0 0 1 6 6v88a6 6 0 0 1-6 6h-188a6 6 0 0 1-6-6z" stroke="#01579b" stroke-width="3" fill="#0277bd"/><use xlink:href="#h" transform="matrix(1,0,0,1,2012,2012) translate(30.871093750000007 45.25390625)"/><use xlink:href="#i" transform="matrix(1,0,0,1,2012,2012) translate(48.41015625 45.25390625)"/><use xlink:href="#j" transform="matrix(1,0,0,1,2012,2012) translate(64.25 45.25390625)"/><use xlink:href="#k" transform="matrix(1,0,0,1,2012,2012) translate(82.765625 45.25390625)"/><use xlink:href="#l" transform="matrix(1,0,0,1,2012,2012) translate(101.5546875 45.25390625)"/><use xlink:href="#m" transform="matrix(1,0,0,1,2012,2012) translate(125.12890625 45.25390625)"/><path d="M2260 1800c22.1 0 40 22.4 40 50s-17.9 50-40 50h-120c-22.1 0-40-22.4-40-50s17.9-50 40-50z" stroke="#01579b" stroke-width="3" fill="#fff"/><use xlink:href="#n" transform="matrix(1,0,0,1,2105,1805) translate(35.85937500000001 52.44140625)"/><use xlink:href="#o" transform="matrix(1,0,0,1,2105,1805) translate(54.6484375 52.44140625)"/><use xlink:href="#p" transform="matrix(1,0,0,1,2105,1805) translate(78.22265625 52.44140625)"/><use xlink:href="#q" transform="matrix(1,0,0,1,2105,1805) translate(97.7734375 52.44140625)"/><use xlink:href="#r" transform="matrix(1,0,0,1,2105,1805) translate(117.83203125 52.44140625)"/><use xlink:href="#s" transform="matrix(1,0,0,1,2105,1805) translate(136.875 52.44140625)"/><path d="M1900 1406a6 6 0 0 1 6-6h188a6 6 0 0 1 6 6v88a6 6 0 0 1-6 6h-188a6 6 0 0 1-6-6z" stroke="#01579b" stroke-width="3" fill="#0277bd"/><use xlink:href="#t" transform="matrix(1,0,0,1,1912,1412) translate(30.500000000000007 45.25390625)"/><use xlink:href="#u" transform="matrix(1,0,0,1,1912,1412) translate(50.40234375 45.25390625)"/><use xlink:href="#v" transform="matrix(1,0,0,1,1912,1412) translate(65.87109375 45.25390625)"/><use xlink:href="#k" transform="matrix(1,0,0,1,1912,1412) translate(83.13671875 45.25390625)"/><use xlink:href="#l" transform="matrix(1,0,0,1,1912,1412) translate(101.92578125 45.25390625)"/><use xlink:href="#m" transform="matrix(1,0,0,1,1912,1412) translate(125.5 45.25390625)"/><path d="M2000 1606a6 6 0 0 1 6-6h188a6 6 0 0 1 6 6v88a6 6 0 0 1-6 6h-188a6 6 0 0 1-6-6z" stroke="#01579b" stroke-width="3" fill="#0277bd"/><use xlink:href="#w" transform="matrix(1,0,0,1,2012,1612) translate(70.3046875 45.25390625)"/><use xlink:href="#x" transform="matrix(1,0,0,1,2012,1612) translate(78 45.25390625)"/><path d="M2260 1000c22.1 0 40 22.4 40 50s-17.9 50-40 50h-120c-22.1 0-40-22.4-40-50s17.9-50 40-50z" stroke="#01579b" stroke-width="3" fill="#fff"/><g><use xlink:href="#y" transform="matrix(1,0,0,1,2105,1005) translate(30.390625000000014 52.44140625)"/><use xlink:href="#z" transform="matrix(1,0,0,1,2105,1005) translate(50.292968750000014 52.44140625)"/><use xlink:href="#A" transform="matrix(1,0,0,1,2105,1005) translate(65.76171875 52.44140625)"/><use xlink:href="#B" transform="matrix(1,0,0,1,2105,1005) translate(88.41796875 52.44140625)"/><use xlink:href="#C" transform="matrix(1,0,0,1,2105,1005) translate(105.68359375 52.44140625)"/><use xlink:href="#D" transform="matrix(1,0,0,1,2105,1005) translate(123.30078125 52.44140625)"/><use xlink:href="#E" transform="matrix(1,0,0,1,2105,1005) translate(147.2265625 52.44140625)"/></g><path d="M2200 806a6 6 0 0 1 6-6h188a6 6 0 0 1 6 6v88a6 6 0 0 1-6 6h-188a6 6 0 0 1-6-6z" stroke="#01579b" stroke-width="3" fill="#0277bd"/><g><use xlink:href="#F" transform="matrix(1,0,0,1,2212,812) translate(30.500000000000007 45.25390625)"/><use xlink:href="#G" transform="matrix(1,0,0,1,2212,812) translate(50.40234375 45.25390625)"/><use xlink:href="#H" transform="matrix(1,0,0,1,2212,812) translate(65.87109375 45.25390625)"/><use xlink:href="#I" transform="matrix(1,0,0,1,2212,812) translate(83.13671875 45.25390625)"/><use xlink:href="#J" transform="matrix(1,0,0,1,2212,812) translate(101.92578125 45.25390625)"/><use xlink:href="#K" transform="matrix(1,0,0,1,2212,812) translate(125.5 45.25390625)"/></g><path d="M2260 400c22.1 0 40 22.4 40 50s-17.9 50-40 50h-120c-22.1 0-40-22.4-40-50s17.9-50 40-50z" stroke="#01579b" stroke-width="3" fill="#fff"/><g><use xlink:href="#L" transform="matrix(1,0,0,1,2105,405) translate(28.583984375000014 52.44140625)"/><use xlink:href="#M" transform="matrix(1,0,0,1,2105,405) translate(47.099609375000014 52.44140625)"/><use xlink:href="#N" transform="matrix(1,0,0,1,2105,405) translate(64.677734375 52.44140625)"/><use xlink:href="#O" transform="matrix(1,0,0,1,2105,405) translate(85.498046875 52.44140625)"/><use xlink:href="#P" transform="matrix(1,0,0,1,2105,405) translate(105.048828125 52.44140625)"/><use xlink:href="#Q" transform="matrix(1,0,0,1,2105,405) translate(125.107421875 52.44140625)"/><use xlink:href="#R" transform="matrix(1,0,0,1,2105,405) translate(144.150390625 52.44140625)"/></g><path d="M2200 606a6 6 0 0 1 6-6h188a6 6 0 0 1 6 6v88a6 6 0 0 1-6 6h-188a6 6 0 0 1-6-6z" stroke="#01579b" stroke-width="3" fill="#0277bd"/><g><use xlink:href="#S" transform="matrix(1,0,0,1,2212,612) translate(15.529296875000014 45.25390625)"/><use xlink:href="#T" transform="matrix(1,0,0,1,2212,612) translate(23.224609375000014 45.25390625)"/><use xlink:href="#G" transform="matrix(1,0,0,1,2212,612) translate(43.12695312500001 45.25390625)"/><use xlink:href="#H" transform="matrix(1,0,0,1,2212,612) translate(58.595703125 45.25390625)"/><use xlink:href="#U" transform="matrix(1,0,0,1,2212,612) translate(75.861328125 45.25390625)"/><use xlink:href="#V" transform="matrix(1,0,0,1,2212,612) translate(94.376953125 45.25390625)"/><use xlink:href="#W" transform="matrix(1,0,0,1,2212,612) translate(111.955078125 45.25390625)"/><use xlink:href="#X" transform="matrix(1,0,0,1,2212,612) translate(132.775390625 45.25390625)"/></g><path d="M2000 206a6 6 0 0 1 6-6h188a6 6 0 0 1 6 6v88a6 6 0 0 1-6 6h-188a6 6 0 0 1-6-6z" stroke="#01579b" stroke-width="3" fill="#0277bd"/><g><use xlink:href="#Y" transform="matrix(1,0,0,1,2012,212) translate(23.595703125000014 45.25390625)"/><use xlink:href="#Z" transform="matrix(1,0,0,1,2012,212) translate(41.134765625000014 45.25390625)"/><use xlink:href="#U" transform="matrix(1,0,0,1,2012,212) translate(56.97460937500001 45.25390625)"/><use xlink:href="#U" transform="matrix(1,0,0,1,2012,212) translate(75.490234375 45.25390625)"/><use xlink:href="#V" transform="matrix(1,0,0,1,2012,212) translate(94.005859375 45.25390625)"/><use xlink:href="#W" transform="matrix(1,0,0,1,2012,212) translate(111.583984375 45.25390625)"/><use xlink:href="#aa" transform="matrix(1,0,0,1,2012,212) translate(132.404296875 45.25390625)"/></g><path d="M2000 1206a6 6 0 0 1 6-6h188a6 6 0 0 1 6 6v88a6 6 0 0 1-6 6h-188a6 6 0 0 1-6-6z" stroke="#01579b" stroke-width="3" fill="#0277bd"/><g><use xlink:href="#F" transform="matrix(1,0,0,1,2012,1212) translate(23.224609375000014 45.25390625)"/><use xlink:href="#G" transform="matrix(1,0,0,1,2012,1212) translate(43.126953125000014 45.25390625)"/><use xlink:href="#H" transform="matrix(1,0,0,1,2012,1212) translate(58.59570312500001 45.25390625)"/><use xlink:href="#U" transform="matrix(1,0,0,1,2012,1212) translate(75.861328125 45.25390625)"/><use xlink:href="#V" transform="matrix(1,0,0,1,2012,1212) translate(94.376953125 45.25390625)"/><use xlink:href="#W" transform="matrix(1,0,0,1,2012,1212) translate(111.955078125 45.25390625)"/><use xlink:href="#aa" transform="matrix(1,0,0,1,2012,1212) translate(132.775390625 45.25390625)"/></g><path d="M2220 1206a6 6 0 0 1 6-6h249.67a6 6 0 0 1 6 6v88a6 6 0 0 1-6 6H2226a6 6 0 0 1-6-6z" fill="#fff" fill-opacity="0"/><path d="M2246.17 1200H2226a6 6 0 0 0-6 6v88a6 6 0 0 0 6 6h20.17" stroke="#dfe3e8" stroke-width="3" fill="none"/><g><use xlink:href="#ab" transform="matrix(1,0,0,1,2241.3543307086616,1205) translate(0 36.796875)"/><use xlink:href="#ac" transform="matrix(1,0,0,1,2241.3543307086616,1205) translate(19.902343749999996 36.796875)"/><use xlink:href="#ad" transform="matrix(1,0,0,1,2241.3543307086616,1205) translate(35.37109374999999 36.796875)"/><use xlink:href="#ae" transform="matrix(1,0,0,1,2241.3543307086616,1205) translate(52.636718749999986 36.796875)"/><use xlink:href="#af" transform="matrix(1,0,0,1,2241.3543307086616,1205) translate(71.42578124999999 36.796875)"/><use xlink:href="#ag" transform="matrix(1,0,0,1,2241.3543307086616,1205) translate(89.60937499999999 36.796875)"/><use xlink:href="#ah" transform="matrix(1,0,0,1,2241.3543307086616,1205) translate(109.90234374999999 36.796875)"/><use xlink:href="#ai" transform="matrix(1,0,0,1,2241.3543307086616,1205) translate(126.75781249999999 36.796875)"/><use xlink:href="#aj" transform="matrix(1,0,0,1,2241.3543307086616,1205) translate(146.75781249999997 36.796875)"/><use xlink:href="#ak" transform="matrix(1,0,0,1,2241.3543307086616,1205) translate(0 66.50390625)"/><use xlink:href="#al" transform="matrix(1,0,0,1,2241.3543307086616,1205) translate(19.101562499999996 66.50390625)"/><use xlink:href="#am" transform="matrix(1,0,0,1,2241.3543307086616,1205) translate(35.70312499999999 66.50390625)"/><use xlink:href="#af" transform="matrix(1,0,0,1,2241.3543307086616,1205) translate(50.37109374999999 66.50390625)"/><use xlink:href="#an" transform="matrix(1,0,0,1,2241.3543307086616,1205) translate(68.55468749999999 66.50390625)"/><use xlink:href="#ao" transform="matrix(1,0,0,1,2241.3543307086616,1205) translate(88.33984374999999 66.50390625)"/><use xlink:href="#ap" transform="matrix(1,0,0,1,2241.3543307086616,1205) translate(104.90234374999999 66.50390625)"/><use xlink:href="#aq" transform="matrix(1,0,0,1,2241.3543307086616,1205) translate(124.90234374999999 66.50390625)"/></g></g><g class="lucid-layer" lucid:layer-id="kPg4JvM7Qv8z" display="block"><path d="M1600 2006a6 6 0 0 1 6-6h188a6 6 0 0 1 6 6v88a6 6 0 0 1-6 6h-188a6 6 0 0 1-6-6z" stroke="#01579b" stroke-width="3" fill="#0277bd"/><use xlink:href="#Y" transform="matrix(1,0,0,1,1612,2012) translate(30.871093750000007 45.25390625)"/><use xlink:href="#Z" transform="matrix(1,0,0,1,1612,2012) translate(48.41015625 45.25390625)"/><use xlink:href="#U" transform="matrix(1,0,0,1,1612,2012) translate(64.25 45.25390625)"/><use xlink:href="#I" transform="matrix(1,0,0,1,1612,2012) translate(82.765625 45.25390625)"/><use xlink:href="#J" transform="matrix(1,0,0,1,1612,2012) translate(101.5546875 45.25390625)"/><use xlink:href="#aa" transform="matrix(1,0,0,1,1612,2012) translate(125.12890625 45.25390625)"/><path d="M1660 1800c22.1 0 40 22.4 40 50s-17.9 50-40 50h-120c-22.1 0-40-22.4-40-50s17.9-50 40-50z" stroke="#01579b" stroke-width="3" fill="#fff"/><use xlink:href="#ar" transform="matrix(1,0,0,1,1505,1805) translate(35.85937500000001 52.44140625)"/><use xlink:href="#as" transform="matrix(1,0,0,1,1505,1805) translate(54.6484375 52.44140625)"/><use xlink:href="#O" transform="matrix(1,0,0,1,1505,1805) translate(78.22265625 52.44140625)"/><use xlink:href="#P" transform="matrix(1,0,0,1,1505,1805) translate(97.7734375 52.44140625)"/><use xlink:href="#Q" transform="matrix(1,0,0,1,1505,1805) translate(117.83203125 52.44140625)"/><use xlink:href="#R" transform="matrix(1,0,0,1,1505,1805) translate(136.875 52.44140625)"/><path d="M1700 1406a6 6 0 0 1 6-6h188a6 6 0 0 1 6 6v88a6 6 0 0 1-6 6h-188a6 6 0 0 1-6-6z" stroke="#01579b" stroke-width="3" fill="#0277bd"/><use xlink:href="#F" transform="matrix(1,0,0,1,1712,1412) translate(30.500000000000007 45.25390625)"/><use xlink:href="#G" transform="matrix(1,0,0,1,1712,1412) translate(50.40234375 45.25390625)"/><use xlink:href="#H" transform="matrix(1,0,0,1,1712,1412) translate(65.87109375 45.25390625)"/><use xlink:href="#I" transform="matrix(1,0,0,1,1712,1412) translate(83.13671875 45.25390625)"/><use xlink:href="#J" transform="matrix(1,0,0,1,1712,1412) translate(101.92578125 45.25390625)"/><use xlink:href="#aa" transform="matrix(1,0,0,1,1712,1412) translate(125.5 45.25390625)"/><path d="M1600 1606a6 6 0 0 1 6-6h188a6 6 0 0 1 6 6v88a6 6 0 0 1-6 6h-188a6 6 0 0 1-6-6z" stroke="#01579b" stroke-width="3" fill="#0277bd"/><use xlink:href="#S" transform="matrix(1,0,0,1,1612,1612) translate(70.3046875 45.25390625)"/><use xlink:href="#X" transform="matrix(1,0,0,1,1612,1612) translate(78 45.25390625)"/><path d="M1660 1000c22.1 0 40 22.4 40 50s-17.9 50-40 50h-120c-22.1 0-40-22.4-40-50s17.9-50 40-50z" stroke="#01579b" stroke-width="3" fill="#fff"/><g><use xlink:href="#at" transform="matrix(1,0,0,1,1505,1005) translate(30.390625000000014 52.44140625)"/><use xlink:href="#au" transform="matrix(1,0,0,1,1505,1005) translate(50.292968750000014 52.44140625)"/><use xlink:href="#av" transform="matrix(1,0,0,1,1505,1005) translate(65.76171875 52.44140625)"/><use xlink:href="#aw" transform="matrix(1,0,0,1,1505,1005) translate(88.41796875 52.44140625)"/><use xlink:href="#ax" transform="matrix(1,0,0,1,1505,1005) translate(105.68359375 52.44140625)"/><use xlink:href="#ay" transform="matrix(1,0,0,1,1505,1005) translate(123.30078125 52.44140625)"/><use xlink:href="#az" transform="matrix(1,0,0,1,1505,1005) translate(147.2265625 52.44140625)"/></g><path d="M1400 806a6 6 0 0 1 6-6h188a6 6 0 0 1 6 6v88a6 6 0 0 1-6 6h-188a6 6 0 0 1-6-6z" stroke="#01579b" stroke-width="3" fill="#0277bd"/><g><use xlink:href="#F" transform="matrix(1,0,0,1,1412,812) translate(30.500000000000007 45.25390625)"/><use xlink:href="#G" transform="matrix(1,0,0,1,1412,812) translate(50.40234375 45.25390625)"/><use xlink:href="#H" transform="matrix(1,0,0,1,1412,812) translate(65.87109375 45.25390625)"/><use xlink:href="#I" transform="matrix(1,0,0,1,1412,812) translate(83.13671875 45.25390625)"/><use xlink:href="#J" transform="matrix(1,0,0,1,1412,812) translate(101.92578125 45.25390625)"/><use xlink:href="#aa" transform="matrix(1,0,0,1,1412,812) translate(125.5 45.25390625)"/></g><path d="M1660 400c22.1 0 40 22.4 40 50s-17.9 50-40 50h-120c-22.1 0-40-22.4-40-50s17.9-50 40-50z" stroke="#01579b" stroke-width="3" fill="#fff"/><g><use xlink:href="#L" transform="matrix(1,0,0,1,1505,405) translate(28.583984375000014 52.44140625)"/><use xlink:href="#M" transform="matrix(1,0,0,1,1505,405) translate(47.099609375000014 52.44140625)"/><use xlink:href="#N" transform="matrix(1,0,0,1,1505,405) translate(64.677734375 52.44140625)"/><use xlink:href="#O" transform="matrix(1,0,0,1,1505,405) translate(85.498046875 52.44140625)"/><use xlink:href="#P" transform="matrix(1,0,0,1,1505,405) translate(105.048828125 52.44140625)"/><use xlink:href="#Q" transform="matrix(1,0,0,1,1505,405) translate(125.107421875 52.44140625)"/><use xlink:href="#R" transform="matrix(1,0,0,1,1505,405) translate(144.150390625 52.44140625)"/></g><path d="M1400 606a6 6 0 0 1 6-6h188a6 6 0 0 1 6 6v88a6 6 0 0 1-6 6h-188a6 6 0 0 1-6-6z" stroke="#01579b" stroke-width="3" fill="#0277bd"/><g><use xlink:href="#S" transform="matrix(1,0,0,1,1412,612) translate(15.529296875000014 45.25390625)"/><use xlink:href="#T" transform="matrix(1,0,0,1,1412,612) translate(23.224609375000014 45.25390625)"/><use xlink:href="#G" transform="matrix(1,0,0,1,1412,612) translate(43.12695312500001 45.25390625)"/><use xlink:href="#H" transform="matrix(1,0,0,1,1412,612) translate(58.595703125 45.25390625)"/><use xlink:href="#U" transform="matrix(1,0,0,1,1412,612) translate(75.861328125 45.25390625)"/><use xlink:href="#V" transform="matrix(1,0,0,1,1412,612) translate(94.376953125 45.25390625)"/><use xlink:href="#W" transform="matrix(1,0,0,1,1412,612) translate(111.955078125 45.25390625)"/><use xlink:href="#aA" transform="matrix(1,0,0,1,1412,612) translate(132.775390625 45.25390625)"/></g><path d="M1600 206a6 6 0 0 1 6-6h188a6 6 0 0 1 6 6v88a6 6 0 0 1-6 6h-188a6 6 0 0 1-6-6z" stroke="#01579b" stroke-width="3" fill="#0277bd"/><g><use xlink:href="#Y" transform="matrix(1,0,0,1,1612,212) translate(23.595703125000014 45.25390625)"/><use xlink:href="#Z" transform="matrix(1,0,0,1,1612,212) translate(41.134765625000014 45.25390625)"/><use xlink:href="#U" transform="matrix(1,0,0,1,1612,212) translate(56.97460937500001 45.25390625)"/><use xlink:href="#U" transform="matrix(1,0,0,1,1612,212) translate(75.490234375 45.25390625)"/><use xlink:href="#V" transform="matrix(1,0,0,1,1612,212) translate(94.005859375 45.25390625)"/><use xlink:href="#W" transform="matrix(1,0,0,1,1612,212) translate(111.583984375 45.25390625)"/><use xlink:href="#K" transform="matrix(1,0,0,1,1612,212) translate(132.404296875 45.25390625)"/></g><path d="M1600 1206a6 6 0 0 1 6-6h188a6 6 0 0 1 6 6v88a6 6 0 0 1-6 6h-188a6 6 0 0 1-6-6z" stroke="#01579b" stroke-width="3" fill="#0277bd"/><g><use xlink:href="#F" transform="matrix(1,0,0,1,1612,1212) translate(23.224609375000014 45.25390625)"/><use xlink:href="#G" transform="matrix(1,0,0,1,1612,1212) translate(43.126953125000014 45.25390625)"/><use xlink:href="#H" transform="matrix(1,0,0,1,1612,1212) translate(58.59570312500001 45.25390625)"/><use xlink:href="#U" transform="matrix(1,0,0,1,1612,1212) translate(75.861328125 45.25390625)"/><use xlink:href="#V" transform="matrix(1,0,0,1,1612,1212) translate(94.376953125 45.25390625)"/><use xlink:href="#W" transform="matrix(1,0,0,1,1612,1212) translate(111.955078125 45.25390625)"/><use xlink:href="#K" transform="matrix(1,0,0,1,1612,1212) translate(132.775390625 45.25390625)"/></g><path d="M1820 1206a6 6 0 0 1 6-6h249.67a6 6 0 0 1 6 6v88a6 6 0 0 1-6 6H1826a6 6 0 0 1-6-6z" fill="#fff" fill-opacity="0"/><path d="M1846.17 1200H1826a6 6 0 0 0-6 6v88a6 6 0 0 0 6 6h20.17" stroke="#dfe3e8" stroke-width="3" fill="none"/><g><use xlink:href="#ab" transform="matrix(1,0,0,1,1841.3543307086613,1205) translate(0 36.796875)"/><use xlink:href="#ac" transform="matrix(1,0,0,1,1841.3543307086613,1205) translate(19.902343749999996 36.796875)"/><use xlink:href="#ad" transform="matrix(1,0,0,1,1841.3543307086613,1205) translate(35.37109374999999 36.796875)"/><use xlink:href="#ae" transform="matrix(1,0,0,1,1841.3543307086613,1205) translate(52.636718749999986 36.796875)"/><use xlink:href="#af" transform="matrix(1,0,0,1,1841.3543307086613,1205) translate(71.42578124999999 36.796875)"/><use xlink:href="#ag" transform="matrix(1,0,0,1,1841.3543307086613,1205) translate(89.60937499999999 36.796875)"/><use xlink:href="#ah" transform="matrix(1,0,0,1,1841.3543307086613,1205) translate(109.90234374999999 36.796875)"/><use xlink:href="#ai" transform="matrix(1,0,0,1,1841.3543307086613,1205) translate(126.75781249999999 36.796875)"/><use xlink:href="#aj" transform="matrix(1,0,0,1,1841.3543307086613,1205) translate(146.75781249999997 36.796875)"/><use xlink:href="#ak" transform="matrix(1,0,0,1,1841.3543307086613,1205) translate(0 66.50390625)"/><use xlink:href="#al" transform="matrix(1,0,0,1,1841.3543307086613,1205) translate(19.101562499999996 66.50390625)"/><use xlink:href="#am" transform="matrix(1,0,0,1,1841.3543307086613,1205) translate(35.70312499999999 66.50390625)"/><use xlink:href="#af" transform="matrix(1,0,0,1,1841.3543307086613,1205) translate(50.37109374999999 66.50390625)"/><use xlink:href="#an" transform="matrix(1,0,0,1,1841.3543307086613,1205) translate(68.55468749999999 66.50390625)"/><use xlink:href="#ao" transform="matrix(1,0,0,1,1841.3543307086613,1205) translate(88.33984374999999 66.50390625)"/><use xlink:href="#ap" transform="matrix(1,0,0,1,1841.3543307086613,1205) translate(104.90234374999999 66.50390625)"/><use xlink:href="#aq" transform="matrix(1,0,0,1,1841.3543307086613,1205) translate(124.90234374999999 66.50390625)"/></g></g><g class="lucid-layer" lucid:layer-id="BTg4Z8X3eb3T" display="block"><path d="M1260 2060h100v100h-100zM2480 2060h100v100h-100zM1260 0h100v100h-100zM2480 0h100v100h-100z" stroke="#01579b" fill-opacity="0" opacity="0"/></g><defs><path fill="#6f7681" d="M58-328c-1-253 81-422 306-430 55 0 105 8 150 24v72c-107-41-239-43-303 44-39 47-62 116-67 206l2 1c42-59 108-88 199-88 146-2 242 99 242 246C587-93 483 12 325 10 148 10 59-103 58-328zm85 69c1 105 67 201 182 201 116 0 181-75 180-195 2-108-71-182-177-182-104 0-187 74-185 176" id="aB"/><use transform="matrix(0.03038194444444443,0,0,0.03038194444444443,0,0)" xlink:href="#aB" id="a"/><path fill="#6f7681" d="M160-660v-74h634v74c-48 117-122 229-221 334 99 91 200 192 305 301l-55 54C723-76 622-177 520-272 405-161 267-65 106 16L71-49c273-140 515-346 637-611H160" id="aC"/><use transform="matrix(0.03038194444444443,0,0,0.03038194444444443,0,0)" xlink:href="#aC" id="b"/><path fill="#6f7681" d="M187-673v-71h628v71H187zM71-468h860v72H580C575-127 464-19 240 44l-23-71c193-59 275-136 281-369H71v-72" id="aD"/><use transform="matrix(0.03038194444444443,0,0,0.03038194444444443,0,0)" xlink:href="#aD" id="c"/><path fill="#6f7681" d="M190-34c341-58 440-171 457-552l75 4C716-188 563-8 206 35zM70-543l72-16c21 72 46 163 74 272l-73 17c-23-95-48-186-73-273zm225-29l73-17c27 95 52 189 74 284l-74 16c-23-98-47-192-73-283" id="aE"/><use transform="matrix(0.03038194444444443,0,0,0.03038194444444443,0,0)" xlink:href="#aE" id="d"/><path fill="#6f7681" d="M978-738c0 76-67 144-152 131C797-196 580-11 175 34l-13-73c377-45 563-204 584-596H68v-75h650c-16-87 50-158 128-158 70 0 132 60 132 130zm-132 74c39 1 75-35 74-74 1-39-35-74-74-73-39-1-74 34-73 73-1 39 34 75 73 74" id="aF"/><use transform="matrix(0.03038194444444443,0,0,0.03038194444444443,0,0)" xlink:href="#aF" id="e"/><path fill="#6f7681" d="M71-384c295-40 609-200 769-380l51 55c-79 87-182 164-307 231V46h-83v-482C365-373 226-331 84-310" id="aG"/><use transform="matrix(0.03038194444444443,0,0,0.03038194444444443,0,0)" xlink:href="#aG" id="f"/><path fill="#6f7681" d="M70-677l36-69c109 55 214 113 314 174l-40 69c-94-59-197-117-310-174zM92-67c397-38 624-223 694-586l75 16C792-244 540-28 104 10" id="aH"/><use transform="matrix(0.03038194444444443,0,0,0.03038194444444443,0,0)" xlink:href="#aH" id="g"/><path fill="#fff" d="M69-720h761c3 479-214 695-654 744l-14-73c377-45 564-206 585-596H69v-75" id="aI"/><use transform="matrix(0.019531249999999997,0,0,0.019531249999999997,0,0)" xlink:href="#aI" id="h"/><path fill="#fff" d="M441-43c42-2 45-3 45-45v-284C368-251 241-152 105-74l-34-59c144-81 276-187 397-317H70v-65h416v-129h73v129h181v65H559v363C555 14 548 20 447 24c-43 0-89-3-138-9l5-66c53 5 96 8 127 8" id="aJ"/><use transform="matrix(0.019531249999999997,0,0,0.019531249999999997,0,0)" xlink:href="#aJ" id="i"/><path fill="#fff" d="M69-660v-70h809v70c-43 151-150 273-285 336l-41-63c125-62 205-153 242-273H69zm58 628c197-89 241-232 244-531h78c-3 336-61 494-285 597" id="aK"/><use transform="matrix(0.019531249999999997,0,0,0.019531249999999997,0,0)" xlink:href="#aK" id="j"/><path fill="#fff" d="M71-384c295-40 609-200 769-380l51 55c-79 87-182 164-307 231V46h-83v-482C365-373 226-331 84-310" id="aL"/><use transform="matrix(0.019531249999999997,0,0,0.019531249999999997,0,0)" xlink:href="#aL" id="k"/><path fill="#fff" d="M70-677l36-69c109 55 214 113 314 174l-40 69c-94-59-197-117-310-174zM92-67c397-38 624-223 694-586l75 16C792-244 540-28 104 10" id="aM"/><use transform="matrix(0.019531249999999997,0,0,0.019531249999999997,0,0)" xlink:href="#aM" id="l"/><path fill="#fff" d="M345-43h472v-302H345v302zm553-370V79h-81V24H345v55h-82v-372c-57 78-118 142-184 193l-45-61c154-119 263-278 327-477H69v-71h312c11-47 20-92 27-137l80 5c-5 38-14 82-25 132h492v71H443c-26 83-57 158-94 225h549" id="aN"/><use transform="matrix(0.019531249999999997,0,0,0.019531249999999997,0,0)" xlink:href="#aN" id="m"/><path fill="#0d47a1" d="M71-384c295-40 609-200 769-380l51 55c-79 87-182 164-307 231V46h-83v-482C365-373 226-331 84-310" id="aO"/><use transform="matrix(0.019531249999999997,0,0,0.019531249999999997,0,0)" xlink:href="#aO" id="n"/><path fill="#0d47a1" d="M70-677l36-69c109 55 214 113 314 174l-40 69c-94-59-197-117-310-174zM92-67c397-38 624-223 694-586l75 16C792-244 540-28 104 10" id="aP"/><use transform="matrix(0.019531249999999997,0,0,0.019531249999999997,0,0)" xlink:href="#aP" id="o"/><path fill="#0d47a1" d="M156-737h690v73H457v234h474v72H457c11 120-39 289 81 304 96 12 223 3 322-5l3 72c-116 8-265 22-371 2C389-5 371-88 371-222v-136H71v-72h300v-234H156v-73" id="aQ"/><use transform="matrix(0.019531249999999997,0,0,0.019531249999999997,0,0)" xlink:href="#aQ" id="p"/><path fill="#0d47a1" d="M433-39c52-2 49-4 49-59v-499H96v-72h386v-147h82v147h366v72H564v508C560 18 553 30 448 34c-50 0-103-5-161-14l8-70c45 7 91 11 138 11zM243-457l73 27C263-309 204-192 141-77l-70-33c64-116 121-232 172-347zm468 27l70-31c63 119 121 239 175 361l-73 29c-59-132-116-252-172-359" id="aR"/><use transform="matrix(0.019531249999999997,0,0,0.019531249999999997,0,0)" xlink:href="#aR" id="q"/><path fill="#0d47a1" d="M71-330v-78h834v78H71" id="aS"/><use transform="matrix(0.019531249999999997,0,0,0.019531249999999997,0,0)" xlink:href="#aS" id="r"/><path fill="#0d47a1" d="M733-625H330c-40 118-108 222-204 311l-55-50c127-119 200-266 220-439l77 5c-3 31-9 65-18 102h466c1 488-214 682-675 724l-12-72c398-43 584-176 604-581" id="aT"/><use transform="matrix(0.019531249999999997,0,0,0.019531249999999997,0,0)" xlink:href="#aT" id="s"/><path fill="#fff" d="M613-755l61-32c33 55 65 111 96 167l-62 30c-27-51-58-106-95-165zm143-39l63-33c40 66 73 123 98 172l-63 30c-32-58-65-114-98-169zm-53 290l77-24C841-370 897-191 948 8l-83 18c-50-201-104-378-162-530zM382-713C353-451 275-207 147 20L71-15c123-219 199-454 229-703" id="aU"/><use transform="matrix(0.019531249999999997,0,0,0.019531249999999997,0,0)" xlink:href="#aU" id="t"/><path fill="#fff" d="M190-34c341-58 440-171 457-552l75 4C716-188 563-8 206 35zM70-543l72-16c21 72 46 163 74 272l-73 17c-23-95-48-186-73-273zm225-29l73-17c27 95 52 189 74 284l-74 16c-23-98-47-192-73-283" id="aV"/><use transform="matrix(0.019531249999999997,0,0,0.019531249999999997,0,0)" xlink:href="#aV" id="u"/><path fill="#fff" d="M733-625H330c-40 118-108 222-204 311l-55-50c127-119 200-266 220-439l77 5c-3 31-9 65-18 102h466c1 488-214 682-675 724l-12-72c398-43 584-176 604-581" id="aW"/><use transform="matrix(0.019531249999999997,0,0,0.019531249999999997,0,0)" xlink:href="#aW" id="v"/><path fill="#fff" d="M270 143C155 37 72-117 72-322s83-361 198-466h78C216-664 150-508 150-322s67 341 198 465h-78" id="aX"/><use transform="matrix(0.019531249999999997,0,0,0.019531249999999997,0,0)" xlink:href="#aX" id="w"/><path fill="#fff" d="M914-433v67H653v343h299v71H212v-71h359v-343H309C256-233 186-111 99-1L39-48c135-173 226-372 271-597H82v-70h241c7-43 12-87 15-130l81 4c-2 30-7 72-16 126h539v70H391c-15 75-34 146-56 212h579" id="aY"/><path fill="#fff" d="M124-788c115 106 197 261 199 466-2 205-84 360-199 465H46C178 19 244-136 244-322S178-664 46-788h78" id="aZ"/><g id="x"><use transform="matrix(0.019531249999999997,0,0,0.019531249999999997,0,0)" xlink:href="#aY"/><use transform="matrix(0.019531249999999997,0,0,0.019531249999999997,19.999999999999996,0)" xlink:href="#aZ"/></g><path fill="#0d47a1" d="M613-755l61-32c33 55 65 111 96 167l-62 30c-27-51-58-106-95-165zm143-39l63-33c40 66 73 123 98 172l-63 30c-32-58-65-114-98-169zm-53 290l77-24C841-370 897-191 948 8l-83 18c-50-201-104-378-162-530zM382-713C353-451 275-207 147 20L71-15c123-219 199-454 229-703" id="ba"/><use transform="matrix(0.019531249999999997,0,0,0.019531249999999997,0,0)" xlink:href="#ba" id="y"/><path fill="#0d47a1" d="M190-34c341-58 440-171 457-552l75 4C716-188 563-8 206 35zM70-543l72-16c21 72 46 163 74 272l-73 17c-23-95-48-186-73-273zm225-29l73-17c27 95 52 189 74 284l-74 16c-23-98-47-192-73-283" id="bb"/><use transform="matrix(0.019531249999999997,0,0,0.019531249999999997,0,0)" xlink:href="#bb" id="z"/><use transform="matrix(0.019531249999999997,0,0,0.019531249999999997,0,0)" xlink:href="#aT" id="A"/><use transform="matrix(0.019531249999999997,0,0,0.019531249999999997,0,0)" xlink:href="#aT" id="B"/><path fill="#0d47a1" d="M837-7H65v-723h772V-7zM147-80h608v-577H147v577" id="bc"/><use transform="matrix(0.019531249999999997,0,0,0.019531249999999997,0,0)" xlink:href="#bc" id="C"/><path fill="#0d47a1" d="M160-660v-74h634v74c-48 117-122 229-221 334 99 91 200 192 305 301l-55 54C723-76 622-177 520-272 405-161 267-65 106 16L71-49c273-140 515-346 637-611H160" id="bd"/><use transform="matrix(0.019531249999999997,0,0,0.019531249999999997,0,0)" xlink:href="#bd" id="D"/><path fill="#0d47a1" d="M325 0c-1-218 3-441-2-656L113-486v-91l212-171h82V0h-82" id="be"/><use transform="matrix(0.019531249999999997,0,0,0.019531249999999997,0,0)" xlink:href="#be" id="E"/><use transform="matrix(0.019531249999999997,0,0,0.019531249999999997,0,0)" xlink:href="#aU" id="F"/><use transform="matrix(0.019531249999999997,0,0,0.019531249999999997,0,0)" xlink:href="#aV" id="G"/><use transform="matrix(0.019531249999999997,0,0,0.019531249999999997,0,0)" xlink:href="#aW" id="H"/><use transform="matrix(0.019531249999999997,0,0,0.019531249999999997,0,0)" xlink:href="#aL" id="I"/><use transform="matrix(0.019531249999999997,0,0,0.019531249999999997,0,0)" xlink:href="#aM" id="J"/><use transform="matrix(0.019531249999999997,0,0,0.019531249999999997,0,0)" xlink:href="#aN" id="K"/><path fill="#0d47a1" d="M69-660v-70h809v70c-43 151-150 273-285 336l-41-63c125-62 205-153 242-273H69zm58 628c197-89 241-232 244-531h78c-3 336-61 494-285 597" id="bf"/><use transform="matrix(0.019531249999999997,0,0,0.019531249999999997,0,0)" xlink:href="#bf" id="L"/><path fill="#0d47a1" d="M243-34c309-18 506-153 511-458v-97H145v251H68v-320h334v-164h79v164h351v166C829-147 599 21 252 38" id="bg"/><use transform="matrix(0.019531249999999997,0,0,0.019531249999999997,0,0)" xlink:href="#bg" id="M"/><path fill="#0d47a1" d="M147-785v299c189 45 379 104 572 176l-24 74c-194-73-377-130-548-171V48H65v-833h82" id="bh"/><use transform="matrix(0.019531249999999997,0,0,0.019531249999999997,0,0)" xlink:href="#bh" id="N"/><use transform="matrix(0.019531249999999997,0,0,0.019531249999999997,0,0)" xlink:href="#aQ" id="O"/><use transform="matrix(0.019531249999999997,0,0,0.019531249999999997,0,0)" xlink:href="#aR" id="P"/><use transform="matrix(0.019531249999999997,0,0,0.019531249999999997,0,0)" xlink:href="#aS" id="Q"/><use transform="matrix(0.019531249999999997,0,0,0.019531249999999997,0,0)" xlink:href="#aT" id="R"/><use transform="matrix(0.019531249999999997,0,0,0.019531249999999997,0,0)" xlink:href="#aX" id="S"/><use transform="matrix(0.019531249999999997,0,0,0.019531249999999997,0,0)" xlink:href="#aU" id="T"/><use transform="matrix(0.019531249999999997,0,0,0.019531249999999997,0,0)" xlink:href="#aK" id="U"/><path fill="#fff" d="M243-34c309-18 506-153 511-458v-97H145v251H68v-320h334v-164h79v164h351v166C829-147 599 21 252 38" id="bi"/><use transform="matrix(0.019531249999999997,0,0,0.019531249999999997,0,0)" xlink:href="#bi" id="V"/><path fill="#fff" d="M147-785v299c189 45 379 104 572 176l-24 74c-194-73-377-130-548-171V48H65v-833h82" id="bj"/><use transform="matrix(0.019531249999999997,0,0,0.019531249999999997,0,0)" xlink:href="#bj" id="W"/><g id="X"><use transform="matrix(0.019531249999999997,0,0,0.019531249999999997,0,0)" xlink:href="#aN"/><use transform="matrix(0.019531249999999997,0,0,0.019531249999999997,19.999999999999996,0)" xlink:href="#aZ"/></g><use transform="matrix(0.019531249999999997,0,0,0.019531249999999997,0,0)" xlink:href="#aI" id="Y"/><use transform="matrix(0.019531249999999997,0,0,0.019531249999999997,0,0)" xlink:href="#aJ" id="Z"/><use transform="matrix(0.019531249999999997,0,0,0.019531249999999997,0,0)" xlink:href="#aY" id="aa"/><path fill="#6f7681" d="M613-755l61-32c33 55 65 111 96 167l-62 30c-27-51-58-106-95-165zm143-39l63-33c40 66 73 123 98 172l-63 30c-32-58-65-114-98-169zm-53 290l77-24C841-370 897-191 948 8l-83 18c-50-201-104-378-162-530zM382-713C353-451 275-207 147 20L71-15c123-219 199-454 229-703" id="bk"/><use transform="matrix(0.019531249999999997,0,0,0.019531249999999997,0,0)" xlink:href="#bk" id="ab"/><use transform="matrix(0.019531249999999997,0,0,0.019531249999999997,0,0)" xlink:href="#aE" id="ac"/><path fill="#6f7681" d="M733-625H330c-40 118-108 222-204 311l-55-50c127-119 200-266 220-439l77 5c-3 31-9 65-18 102h466c1 488-214 682-675 724l-12-72c398-43 584-176 604-581" id="bl"/><use transform="matrix(0.019531249999999997,0,0,0.019531249999999997,0,0)" xlink:href="#bl" id="ad"/><use transform="matrix(0.019531249999999997,0,0,0.019531249999999997,0,0)" xlink:href="#aG" id="ae"/><use transform="matrix(0.019531249999999997,0,0,0.019531249999999997,0,0)" xlink:href="#aH" id="af"/><path fill="#6f7681" d="M83-546v-68h200c19-84 34-156 44-216l74 8c-9 60-23 129-41 208 100 6 225-18 284 35 36 48 27 146 29 228 0 126-15 222-45 287-67 151-178 99-322 42l24-68c77 33 133 49 169 49 15 0 30-10 44-31 50-85 57-266 49-411-6-99-154-52-249-63-51 205-118 400-202 587L71 13c80-177 145-363 196-559H83zm635-135l71-26c76 172 136 346 181 521l-73 18c-47-177-106-348-179-513" id="bm"/><use transform="matrix(0.019531249999999997,0,0,0.019531249999999997,0,0)" xlink:href="#bm" id="ag"/><path fill="#6f7681" d="M498-396c-130 3-278 76-358 143l-69-18c18-98 35-206 51-324l77 7c-13 101-26 182-37 244l2 1c75-61 217-120 344-121 191 0 287 76 287 228 0 90-38 156-111 206-108 74-353 82-544 59l5-70c85 9 153 13 206 13 237 0 356-69 357-208 0-107-70-161-210-160zM200-768c158 21 311 31 459 31v68c-154 0-310-10-467-30" id="bn"/><use transform="matrix(0.019531249999999997,0,0,0.019531249999999997,0,0)" xlink:href="#bn" id="ah"/><path fill="#6f7681" d="M125-548h134v-186H125v186zm329 164h141v-162H454v162zM34 14c6-2 27-10 33-12v-412h67v385l52-21v-437H50v-318h280v318h-72v125h84v68h-84v211c13-6 34-16 61-30l7 69C222 12 128 53 45 82zm321-685v-66h130v-100h79v100h128v66H355zM387 7l-61-24c36-79 63-165 80-258l61 15c-18 99-45 188-80 267zm487-37c2 31-3 31 26 32 13 0 22-4 26-11 8 2 12-177 11-263l63 7c-1 165-5 263-14 293s-38 45-86 45c-82-4-94-1-94-79v-328C780-153 729-15 654 78l-54-49c29-35 55-76 76-123l-39 19c-17-69-36-131-56-186l57-24c19 47 36 100 51 161 47-116 72-264 74-445h-96v246H564v272c-7 92 13 120-60 126-21 0-49-2-84-5l-2-70c25 3 43 5 54 5 28-3 20-13 20-53v-275H381v-283h283v-35h99v-184h75v184h153v72H838v68h36v471zm52-639c-23-59-44-111-65-156l57-24c27 59 48 112 65 157" id="bo"/><use transform="matrix(0.019531249999999997,0,0,0.019531249999999997,0,0)" xlink:href="#bo" id="ai"/><path fill="#6f7681" d="M177-120c0-96 107-143 225-143 181 0 251 89 197 227 117-27 175-96 175-207-4-130-95-169-241-169-139 0-283 42-433 127l-29-55c184-117 371-232 553-351H144v-67h618l4 68-402 243c67-15 133-28 193-27 201 0 301 74 301 223C854-42 694 46 467 44c-193 0-290-55-290-164zm221-78c-73-1-136 22-143 78 0 30 18 54 53 71 42 23 132 30 213 24 56-98 25-177-123-173" id="bp"/><use transform="matrix(0.019531249999999997,0,0,0.019531249999999997,0,0)" xlink:href="#bp" id="aj"/><path fill="#6f7681" d="M414-800l82-6 13 175 354-12 3 72-350 12 20 265 368-11 3 72-366 11 23 284-82 7-23-288-385 12-3-72 383-12-21-265-318 11-3-71 316-12" id="bq"/><use transform="matrix(0.019531249999999997,0,0,0.019531249999999997,0,0)" xlink:href="#bq" id="ak"/><path fill="#6f7681" d="M243-615l77-14 31 173 415-86 14 71c-23 121-99 242-181 306l-55-51c68-55 131-144 155-239l-335 70 77 423-78 14-75-421-203 42-14-70 203-42" id="br"/><use transform="matrix(0.019531249999999997,0,0,0.019531249999999997,0,0)" xlink:href="#br" id="al"/><path fill="#6f7681" d="M169-24c304-52 424-140 431-473v-264h84v262C679-131 523 2 187 51zM66-310v-451h82v451H66" id="bs"/><use transform="matrix(0.019531249999999997,0,0,0.019531249999999997,0,0)" xlink:href="#bs" id="am"/><path fill="#6f7681" d="M703-803l56-30c28 46 57 97 86 153l-35 17C804-189 585-4 134 38l-11-72c396-41 578-173 603-570H326c-39 112-105 212-200 300l-55-49c126-119 199-265 219-440l77 6c-4 40-10 77-19 111h428c-25-46-49-88-73-127zm138-17l58-30c31 51 60 103 88 156l-58 28c-30-56-59-107-88-154" id="bt"/><use transform="matrix(0.019531249999999997,0,0,0.019531249999999997,0,0)" xlink:href="#bt" id="an"/><path fill="#6f7681" d="M180-791l80-12c19 113 43 224 70 331 108-50 250-95 425-135l15 70c-207 47-362 100-464 158S153-260 153-195C153-86 254-31 457-31c93 0 198-8 313-23l8 71C567 45 310 65 170-18c-66-40-99-98-99-173 0-91 61-172 184-243-31-125-56-244-75-357" id="bu"/><use transform="matrix(0.019531249999999997,0,0,0.019531249999999997,0,0)" xlink:href="#bu" id="ao"/><path fill="#6f7681" d="M371-84v82h-76v-431h434v349H371zm0-61h282v-227H371v227zM794-3c60-3 59 0 59-60v-671H171V74H92v-876h840v739c-5 119-4 126-121 130-18 0-73-2-165-6l-2-69c91 3 141 5 150 5zM246-553v-64h532v64H246" id="bv"/><use transform="matrix(0.019531249999999997,0,0,0.019531249999999997,0,0)" xlink:href="#bv" id="ap"/><path fill="#6f7681" d="M581 13c50-2 49-6 49-59v-105C549-81 451-13 334 52L296-9c131-67 242-143 334-227v-97H361v-66h269v-98H384v-63h246v-92H361v-67h157c-17-33-37-66-58-101l69-24c23 37 47 78 70 125h154c27-44 49-85 67-124l70 20c-13 29-32 63-55 104h131v66H709v93h243v63H709v98h271v66H709v6c22 46 49 90 82 133 45-37 86-78 121-122l55 44c-37 47-81 91-132 132C885-85 940-38 1000 1l-42 62C854-4 771-93 709-205v157c-4 113-7 126-117 130-22 0-60-2-115-5l-2-69c51 3 87 5 106 5zM361-269l54-47c42 42 80 84 114 126l-54 47c-33-39-71-81-114-126zM248-581c11 31 96 244 108 274l-50 51c-25-69-47-130-67-184V89h-76v-461c-27 91-60 171-97 240l-46-71c65-121 110-247 137-378H42v-67h121v-178h76v178h108v67h-99" id="bw"/><use transform="matrix(0.019531249999999997,0,0,0.019531249999999997,0,0)" xlink:href="#bw" id="aq"/><use transform="matrix(0.019531249999999997,0,0,0.019531249999999997,0,0)" xlink:href="#aO" id="ar"/><use transform="matrix(0.019531249999999997,0,0,0.019531249999999997,0,0)" xlink:href="#aP" id="as"/><use transform="matrix(0.019531249999999997,0,0,0.019531249999999997,0,0)" xlink:href="#ba" id="at"/><use transform="matrix(0.019531249999999997,0,0,0.019531249999999997,0,0)" xlink:href="#bb" id="au"/><use transform="matrix(0.019531249999999997,0,0,0.019531249999999997,0,0)" xlink:href="#aT" id="av"/><use transform="matrix(0.019531249999999997,0,0,0.019531249999999997,0,0)" xlink:href="#aT" id="aw"/><use transform="matrix(0.019531249999999997,0,0,0.019531249999999997,0,0)" xlink:href="#bc" id="ax"/><use transform="matrix(0.019531249999999997,0,0,0.019531249999999997,0,0)" xlink:href="#bd" id="ay"/><use transform="matrix(0.019531249999999997,0,0,0.019531249999999997,0,0)" xlink:href="#be" id="az"/><g id="aA"><use transform="matrix(0.019531249999999997,0,0,0.019531249999999997,0,0)" xlink:href="#aY"/><use transform="matrix(0.019531249999999997,0,0,0.019531249999999997,19.999999999999996,0)" xlink:href="#aZ"/></g></defs></g></svg>